<svg xmlns="http://www.w3.org/2000/svg" width="56" height="56" viewBox="0 0 17.92 17.92" version="1.1"><g><path d="M8.373 0.005C8.335 0.008 8.212 0.02 8.102 0.029 5.557 0.259 3.172 1.632 1.662 3.742 0.822 4.916 0.283 6.247 0.08 7.657 0.008 8.149 0 8.294 0 8.961 0 9.629 0.008 9.774 0.08 10.267 0.568 13.631 2.962 16.458 6.21 17.506 6.791 17.693 7.405 17.821 8.102 17.898 8.373 17.928 9.547 17.928 9.818 17.898 11.021 17.765 12.041 17.467 13.047 16.953 13.201 16.875 13.231 16.854 13.21 16.836 13.196 16.826 12.538 15.945 11.75 14.88L10.317 12.944 8.522 10.288C7.534 8.827 6.721 7.632 6.714 7.632 6.707 7.631 6.7 8.811 6.697 10.252 6.691 12.776 6.69 12.878 6.658 12.937 6.613 13.024 6.578 13.059 6.504 13.097 6.448 13.125 6.399 13.13 6.135 13.13L5.832 13.13 5.75 13.08C5.698 13.046 5.659 13.003 5.634 12.951L5.596 12.873 5.6 9.361 5.606 5.848 5.659 5.779C5.687 5.743 5.747 5.695 5.79 5.673 5.861 5.638 5.889 5.634 6.192 5.634 6.55 5.634 6.609 5.648 6.702 5.75 6.728 5.778 7.701 7.242 8.863 9.006 10.027 10.77 11.617 13.178 12.398 14.36L13.817 16.509 13.889 16.461C14.525 16.048 15.198 15.46 15.73 14.846 16.864 13.545 17.594 11.959 17.839 10.267 17.911 9.774 17.92 9.629 17.92 8.961 17.92 8.294 17.911 8.149 17.839 7.657 17.352 4.292 14.958 1.466 11.71 0.418 11.137 0.232 10.528 0.104 9.845 0.027 9.676 0.01 8.518-0.009 8.373 0.005L8.373 0.005ZM12.041 5.424C12.125 5.466 12.193 5.546 12.218 5.631 12.232 5.676 12.236 6.65 12.232 8.845L12.227 11.994 11.672 11.143 11.115 10.291 11.115 8.002C11.115 6.522 11.122 5.69 11.132 5.65 11.16 5.552 11.222 5.475 11.306 5.429 11.377 5.392 11.404 5.389 11.679 5.389 11.938 5.389 11.983 5.392 12.041 5.424Z" fill="#FFFFFF"/></g></svg>
