<svg xmlns="http://www.w3.org/2000/svg" fill-rule="evenodd" width="56" height="56" viewBox="-135 -112 112 112"><path d="M-113.632-37.214l22.418-12.573 0.382-1.092-0.382-0.609H-92.3l-3.753-0.228-12.816-0.345-11.109-0.462-10.764-0.579-2.712-0.576L-136.001-57.026l0.261-1.671 2.28-1.527 3.258 0.285 7.222 0.489 10.82 0.753 7.846 0.459 11.633 1.212h1.849l0.26-0.747-0.636-0.465-0.489-0.459-11.202-7.581-12.12-8.019-6.348-4.617-3.437-2.331-1.729-2.196-0.752-4.788 3.116-3.429 4.185 0.285 1.068 0.288 4.243 3.261 9.063 7.011 11.831 8.706 1.735 1.443 0.689-0.489 0.09-0.345-0.779-1.302-6.436-11.619-6.87-11.829-3.057-4.902-0.809-2.94a14.109 14.109 0 0 1-0.493-3.462L-106.157-112.364-104.195-113l4.731 0.636 1.995 1.728 2.946 6.717 4.759 10.59 7.385 14.391 2.166 4.266 1.155 3.951 0.432 1.212h0.75V-70.202l0.61-8.103 1.125-9.951 1.091-12.804 0.381-3.609 1.785-4.323 3.549-2.337 2.775 1.332 2.28 3.252-0.318 2.109-1.359 8.793-2.655 13.788-1.73 9.225h1.007l1.155-1.149 4.678-6.204 7.847-9.804 3.469-3.894 4.037-4.293 2.598-2.049h4.906l3.611 5.364-1.616 5.538-5.053 6.399-4.185 5.424-6.003 8.073-3.753 6.462 0.345 0.522 0.895-0.096 13.566-2.877 7.328-1.332 8.746-1.494 3.956 1.842 0.433 1.875-1.558 3.834-9.354 2.31-10.968 2.193-16.335 3.861-0.198 0.144 0.231 0.291 7.359 0.693 3.144 0.171h7.704l14.346 1.068 3.753 2.478 2.25 3.033-0.374 2.304-5.772 2.943-7.789-1.848-18.188-4.323-6.232-1.56h-0.866v0.522l5.192 5.073 9.529 8.598 11.918 11.067 0.603 2.745-1.53 2.16-1.614-0.231-10.475-7.872-4.042-3.549-9.147-7.695h-0.609v0.81l2.109 3.081 11.139 16.725 0.58 5.13-0.808 1.677-2.889 1.011-3.173-0.579-6.525-9.144-6.721-10.293-5.43-9.228-0.666 0.378-3.2 34.458-1.501 1.758-3.465 1.329-2.883-2.19-1.529-3.549 1.529-7.011 1.849-9.138 1.497-7.269 1.358-9.024 0.808-3.003-0.057-0.198-0.667 0.084-6.81 9.345-10.356 13.989-8.199 8.763-1.965 0.78-3.405-1.758 0.318-3.144 1.905-2.799 11.343-14.421 6.84-8.94 4.416-5.157-0.027-0.75h-0.263L-116.375-24.839l-5.366 0.693-2.314-2.166 0.291-3.543 1.096-1.155 9.063-6.231-0.027 0.027z" fill="#D37744"/></svg>
