<svg xmlns="http://www.w3.org/2000/svg" width="56" height="56" viewBox="0 -960 2240 2240"><path d="M373.339 1000q-77 0-131.833-54.834T186.673 813.333v-373.333h653.333v186.666h560v-186.666h653.333v373.333q0 77-54.833 131.833T1866.673 1000H373.339Zm653.334-560v-186.667h186.666v186.667h-186.666ZM186.673 253.333v-466.667q0-77 54.833-131.833T373.339-400h373.334v-186.667q0-77 54.833-131.833T933.339-773.334h373.334q77 0 131.833 54.834T1493.339-586.667v186.667h373.334q77 0 131.833 54.833T2053.339-213.334v466.667H1400.006v-186.667H840.006v186.667H186.673Zm746.666-653.333h373.334v-186.667H933.339v186.667Z" fill="#FFFFFF"/></svg>
