<svg xmlns="http://www.w3.org/2000/svg" viewBox="0.06 1.494 4.679 6.853" width="39" height="57.107"><path d="M1.186 8.4c0.662 0 1.2-0.52 1.2-1.16v-1.16H1.186c-0.662 0-1.2 0.52-1.2 1.16s0.537 1.16 1.2 1.16z" fill="#FFFFFF"/><path d="M-0.014 4.92c0-0.64 0.537-1.16 1.2-1.16h1.2v2.32H1.186c-0.662 0-1.2-0.52-1.2-1.16z" fill="#828282"/><path d="M-0.014 2.6C-0.014 1.96 0.523 1.44 1.186 1.44h1.2v2.32H1.186C0.523 3.76-0.014 3.24-0.014 2.6z" fill="#FFFFFF"/><path d="M2.386 1.44h1.2c0.662 0 1.2 0.52 1.199 1.16s-0.537 1.16-1.199 1.16h-1.2V1.44z" fill="#828282"/><path d="M4.785 4.92c0 0.64-0.537 1.16-1.199 1.16s-1.2-0.52-1.2-1.16 0.537-1.16 1.2-1.16 1.2 0.52 1.199 1.16z" fill="#FFFFFF"/></svg>
