<svg width="443" height="191" viewBox="0 0 443 191" fill="none" xmlns="http://www.w3.org/2000/svg">
<g filter="url(#filter0_ddd_33_439)">
<g clip-path="url(#clip0_33_439)">
<rect x="28.9214" y="25.0652" width="385" height="133.153" rx="15.4247" fill="white"/>
<rect width="385" height="133.153" transform="translate(28.9214 25.0652)" fill="white"/>
<rect width="385" height="83.4472" transform="translate(28.9214 25.0652)" fill="white"/>
<path d="M44.7317 53.6843L48.6804 42.887H50.7474L54.6961 53.6843H52.7372L49.6985 45.0465L46.6598 53.6843H44.7317ZM46.4901 51.1392L46.9837 49.6739H52.3053L52.7989 51.1392H46.4901ZM56.1196 53.6843V45.9103H57.7546L57.8935 47.2059C58.13 46.7535 58.4693 46.3936 58.9115 46.1262C59.3537 45.8588 59.8781 45.7252 60.4848 45.7252C61.1121 45.7252 61.6468 45.8588 62.089 46.1262C62.5312 46.3833 62.8705 46.7638 63.107 47.2676C63.3538 47.7715 63.4772 48.3988 63.4772 49.1495V53.6843H61.6263V49.3191C61.6263 48.6713 61.4823 48.1726 61.1944 47.8229C60.9064 47.4733 60.4797 47.2985 59.9141 47.2985C59.5439 47.2985 59.2097 47.3859 58.9115 47.5607C58.6236 47.7355 58.3922 47.9926 58.2174 48.3319C58.0529 48.661 57.9706 49.062 57.9706 49.5351V53.6843H56.1196ZM68.8838 53.8694C68.164 53.8694 67.5213 53.6946 66.9557 53.345C66.3902 52.9954 65.948 52.512 65.6292 51.8951C65.3207 51.2781 65.1665 50.5788 65.1665 49.7973C65.1665 49.0158 65.3259 48.3217 65.6446 47.715C65.9634 47.098 66.4056 46.6147 66.9712 46.265C67.547 45.9051 68.1949 45.7252 68.9147 45.7252C69.5008 45.7252 70.0098 45.8383 70.4417 46.0645C70.8839 46.2805 71.2335 46.589 71.4906 46.99V42.5785H73.3416V53.6843H71.6757L71.4906 52.5583C71.3261 52.7846 71.1256 53.0005 70.889 53.2062C70.6525 53.4015 70.3697 53.5609 70.0407 53.6843C69.7116 53.8077 69.326 53.8694 68.8838 53.8694ZM69.2694 52.2653C69.7116 52.2653 70.1024 52.1624 70.4417 51.9568C70.7811 51.7408 71.0433 51.4477 71.2284 51.0775C71.4135 50.7074 71.506 50.2806 71.506 49.7973C71.506 49.314 71.4135 48.8872 71.2284 48.517C71.0433 48.1468 70.7811 47.8589 70.4417 47.6533C70.1024 47.4476 69.7116 47.3448 69.2694 47.3448C68.8478 47.3448 68.4674 47.4476 68.128 47.6533C67.7887 47.8589 67.5213 48.1468 67.3259 48.517C67.1408 48.8872 67.0483 49.314 67.0483 49.7973C67.0483 50.2806 67.1408 50.7074 67.3259 51.0775C67.5213 51.4477 67.7887 51.7408 68.128 51.9568C68.4674 52.1624 68.8478 52.2653 69.2694 52.2653ZM75.4005 53.6843V45.9103H77.051L77.2207 47.3602C77.4058 47.0208 77.6371 46.7329 77.9148 46.4964C78.1924 46.2496 78.5163 46.0594 78.8865 45.9257C79.267 45.792 79.6835 45.7252 80.1359 45.7252V47.6841H79.4881C79.1796 47.6841 78.8865 47.7252 78.6089 47.8075C78.3312 47.8795 78.0896 48.0029 77.8839 48.1777C77.6885 48.3422 77.5343 48.5736 77.4212 48.8718C77.3081 49.1597 77.2515 49.5248 77.2515 49.967V53.6843H75.4005ZM84.9904 53.8694C84.25 53.8694 83.5816 53.6998 82.9852 53.3604C82.399 53.0108 81.9363 52.5326 81.5969 51.9259C81.2679 51.3089 81.1034 50.6045 81.1034 49.8127C81.1034 49.0003 81.273 48.2908 81.6124 47.6841C81.9517 47.0671 82.4145 46.589 83.0006 46.2496C83.597 45.9 84.2654 45.7252 85.0058 45.7252C85.7462 45.7252 86.4095 45.9 86.9956 46.2496C87.592 46.589 88.0548 47.062 88.3838 47.6687C88.7232 48.2754 88.8928 48.9849 88.8928 49.7973C88.8928 50.6097 88.7232 51.3192 88.3838 51.9259C88.0445 52.5326 87.5766 53.0108 86.9802 53.3604C86.394 53.6998 85.7308 53.8694 84.9904 53.8694ZM84.9904 52.2807C85.3606 52.2807 85.6948 52.1881 85.993 52.003C86.3015 51.8179 86.5483 51.5403 86.7334 51.1701C86.9185 50.7999 87.011 50.3423 87.011 49.7973C87.011 49.2523 86.9185 48.7998 86.7334 48.4399C86.5586 48.0697 86.3169 47.7921 86.0084 47.607C85.7102 47.4219 85.376 47.3293 85.0058 47.3293C84.6459 47.3293 84.3117 47.4219 84.0032 47.607C83.6947 47.7921 83.4479 48.0697 83.2628 48.4399C83.0777 48.7998 82.9852 49.2523 82.9852 49.7973C82.9852 50.3423 83.0777 50.7999 83.2628 51.1701C83.4479 51.5403 83.6896 51.8179 83.9878 52.003C84.2963 52.1881 84.6305 52.2807 84.9904 52.2807ZM90.7819 53.6843V45.9103H92.6329V53.6843H90.7819ZM91.7074 44.6763C91.368 44.6763 91.0852 44.5735 90.859 44.3678C90.6431 44.1518 90.5351 43.8896 90.5351 43.5811C90.5351 43.2624 90.6431 43.0053 90.859 42.8099C91.0852 42.6042 91.368 42.5014 91.7074 42.5014C92.0467 42.5014 92.3244 42.6042 92.5403 42.8099C92.7665 43.0053 92.8797 43.2624 92.8797 43.5811C92.8797 43.8896 92.7665 44.1518 92.5403 44.3678C92.3244 44.5735 92.0467 44.6763 91.7074 44.6763ZM98.227 53.8694C97.5071 53.8694 96.8645 53.6946 96.2989 53.345C95.7333 52.9954 95.2911 52.512 94.9724 51.8951C94.6639 51.2781 94.5096 50.5788 94.5096 49.7973C94.5096 49.0158 94.669 48.3217 94.9878 47.715C95.3066 47.098 95.7487 46.6147 96.3143 46.265C96.8902 45.9051 97.538 45.7252 98.2578 45.7252C98.844 45.7252 99.353 45.8383 99.7849 46.0645C100.227 46.2805 100.577 46.589 100.834 46.99V42.5785H102.685V53.6843H101.019L100.834 52.5583C100.669 52.7846 100.469 53.0005 100.232 53.2062C99.9957 53.4015 99.7129 53.5609 99.3838 53.6843C99.0548 53.8077 98.6691 53.8694 98.227 53.8694ZM98.6126 52.2653C99.0548 52.2653 99.4455 52.1624 99.7849 51.9568C100.124 51.7408 100.386 51.4477 100.572 51.0775C100.757 50.7074 100.849 50.2806 100.849 49.7973C100.849 49.314 100.757 48.8872 100.572 48.517C100.386 48.1468 100.124 47.8589 99.7849 47.6533C99.4455 47.4476 99.0548 47.3448 98.6126 47.3448C98.191 47.3448 97.8105 47.4476 97.4712 47.6533C97.1318 47.8589 96.8645 48.1468 96.6691 48.517C96.484 48.8872 96.3914 49.314 96.3914 49.7973C96.3914 50.2806 96.484 50.7074 96.6691 51.0775C96.8645 51.4477 97.1318 51.7408 97.4712 51.9568C97.8105 52.1624 98.191 52.2653 98.6126 52.2653ZM111.101 53.8694C110.463 53.8694 109.934 53.7614 109.512 53.5455C109.09 53.3296 108.777 53.0416 108.571 52.6817C108.366 52.3218 108.263 51.931 108.263 51.5094C108.263 51.0158 108.386 50.5891 108.633 50.2292C108.89 49.8693 109.265 49.5916 109.759 49.3963C110.252 49.1906 110.859 49.0878 111.579 49.0878H113.538C113.538 48.6764 113.481 48.3371 113.368 48.0697C113.255 47.7921 113.08 47.5864 112.844 47.4527C112.607 47.3191 112.304 47.2522 111.934 47.2522C111.512 47.2522 111.152 47.3499 110.854 47.5453C110.556 47.7304 110.371 48.0183 110.299 48.4091H108.479C108.54 47.8538 108.725 47.3808 109.034 46.99C109.342 46.589 109.749 46.2805 110.252 46.0645C110.767 45.8383 111.327 45.7252 111.934 45.7252C112.664 45.7252 113.286 45.8537 113.8 46.1108C114.314 46.3576 114.705 46.7175 114.972 47.1905C115.25 47.6533 115.389 48.2137 115.389 48.8718V53.6843H113.816L113.63 52.4349C113.528 52.6406 113.394 52.8308 113.229 53.0056C113.075 53.1805 112.895 53.3347 112.69 53.4684C112.484 53.5918 112.247 53.6895 111.98 53.7614C111.723 53.8334 111.43 53.8694 111.101 53.8694ZM111.517 52.4041C111.816 52.4041 112.078 52.3527 112.304 52.2498C112.54 52.1367 112.741 51.9825 112.906 51.7871C113.08 51.5814 113.214 51.3552 113.307 51.1084C113.399 50.8616 113.461 50.5994 113.492 50.3217V50.2909H111.78C111.42 50.2909 111.121 50.3372 110.885 50.4297C110.648 50.512 110.479 50.6354 110.376 50.7999C110.273 50.9644 110.222 51.1547 110.222 51.3706C110.222 51.5866 110.273 51.7717 110.376 51.9259C110.479 52.0802 110.628 52.1984 110.823 52.2807C111.019 52.3629 111.25 52.4041 111.517 52.4041ZM117.367 57.0778V45.9103H119.017L119.218 47.0363C119.382 46.81 119.578 46.5992 119.804 46.4039C120.04 46.1982 120.323 46.0337 120.652 45.9103C120.991 45.7869 121.377 45.7252 121.809 45.7252C122.539 45.7252 123.182 45.9051 123.737 46.265C124.303 46.6249 124.745 47.1134 125.064 47.7304C125.382 48.3371 125.542 49.0312 125.542 49.8127C125.542 50.5942 125.377 51.2935 125.048 51.9105C124.729 52.5172 124.287 52.9954 123.722 53.345C123.166 53.6946 122.529 53.8694 121.809 53.8694C121.223 53.8694 120.709 53.7614 120.266 53.5455C119.835 53.3193 119.485 53.0005 119.218 52.5892V57.0778H117.367ZM121.423 52.2653C121.855 52.2653 122.241 52.1624 122.58 51.9568C122.92 51.7511 123.182 51.4632 123.367 51.093C123.562 50.7228 123.66 50.296 123.66 49.8127C123.66 49.3191 123.562 48.8872 123.367 48.517C123.182 48.1468 122.92 47.8589 122.58 47.6533C122.241 47.4476 121.855 47.3448 121.423 47.3448C120.981 47.3448 120.59 47.4476 120.251 47.6533C119.922 47.8589 119.66 48.1468 119.464 48.517C119.279 48.8872 119.187 49.314 119.187 49.7973C119.187 50.2909 119.279 50.7228 119.464 51.093C119.66 51.4529 119.922 51.7408 120.251 51.9568C120.59 52.1624 120.981 52.2653 121.423 52.2653ZM127.338 57.0778V45.9103H128.989L129.189 47.0363C129.354 46.81 129.549 46.5992 129.776 46.4039C130.012 46.1982 130.295 46.0337 130.624 45.9103C130.963 45.7869 131.349 45.7252 131.781 45.7252C132.511 45.7252 133.154 45.9051 133.709 46.265C134.274 46.6249 134.717 47.1134 135.035 47.7304C135.354 48.3371 135.514 49.0312 135.514 49.8127C135.514 50.5942 135.349 51.2935 135.02 51.9105C134.701 52.5172 134.259 52.9954 133.693 53.345C133.138 53.6946 132.501 53.8694 131.781 53.8694C131.195 53.8694 130.681 53.7614 130.238 53.5455C129.806 53.3193 129.457 53.0005 129.189 52.5892V57.0778H127.338ZM131.395 52.2653C131.827 52.2653 132.213 52.1624 132.552 51.9568C132.891 51.7511 133.154 51.4632 133.339 51.093C133.534 50.7228 133.632 50.296 133.632 49.8127C133.632 49.3191 133.534 48.8872 133.339 48.517C133.154 48.1468 132.891 47.8589 132.552 47.6533C132.213 47.4476 131.827 47.3448 131.395 47.3448C130.953 47.3448 130.562 47.4476 130.223 47.6533C129.894 47.8589 129.632 48.1468 129.436 48.517C129.251 48.8872 129.159 49.314 129.159 49.7973C129.159 50.2909 129.251 50.7228 129.436 51.093C129.632 51.4529 129.894 51.7408 130.223 51.9568C130.562 52.1624 130.953 52.2653 131.395 52.2653ZM137.31 53.6843V42.5785H139.161V53.6843H137.31ZM141.304 53.6843V45.9103H143.155V53.6843H141.304ZM142.229 44.6763C141.89 44.6763 141.607 44.5735 141.381 44.3678C141.165 44.1518 141.057 43.8896 141.057 43.5811C141.057 43.2624 141.165 43.0053 141.381 42.8099C141.607 42.6042 141.89 42.5014 142.229 42.5014C142.569 42.5014 142.846 42.6042 143.062 42.8099C143.289 43.0053 143.402 43.2624 143.402 43.5811C143.402 43.8896 143.289 44.1518 143.062 44.3678C142.846 44.5735 142.569 44.6763 142.229 44.6763ZM148.98 53.8694C148.219 53.8694 147.536 53.6998 146.929 53.3604C146.332 53.0108 145.865 52.5326 145.525 51.9259C145.196 51.3089 145.032 50.6097 145.032 49.8281C145.032 49.0158 145.196 48.3062 145.525 47.6995C145.865 47.0825 146.332 46.5992 146.929 46.2496C147.536 45.9 148.225 45.7252 148.996 45.7252C149.962 45.7252 150.775 45.9822 151.433 46.4964C152.091 47.0003 152.513 47.6944 152.698 48.5787H150.754C150.651 48.188 150.435 47.8795 150.106 47.6533C149.788 47.427 149.407 47.3139 148.965 47.3139C148.584 47.3139 148.235 47.4116 147.916 47.607C147.608 47.8024 147.361 48.0851 147.176 48.4553C147.001 48.8255 146.913 49.2729 146.913 49.7973C146.913 50.1983 146.965 50.5531 147.068 50.8616C147.171 51.1701 147.314 51.4323 147.5 51.6483C147.695 51.8539 147.916 52.0133 148.163 52.1264C148.41 52.2395 148.677 52.2961 148.965 52.2961C149.263 52.2961 149.53 52.2498 149.767 52.1573C150.014 52.0544 150.219 51.9053 150.384 51.71C150.559 51.5146 150.682 51.2832 150.754 51.0158H152.698C152.513 51.8796 152.091 52.5737 151.433 53.0982C150.775 53.6123 149.957 53.8694 148.98 53.8694ZM157.074 53.8694C156.436 53.8694 155.907 53.7614 155.485 53.5455C155.063 53.3296 154.75 53.0416 154.544 52.6817C154.338 52.3218 154.236 51.931 154.236 51.5094C154.236 51.0158 154.359 50.5891 154.606 50.2292C154.863 49.8693 155.238 49.5916 155.732 49.3963C156.225 49.1906 156.832 49.0878 157.552 49.0878H159.511C159.511 48.6764 159.454 48.3371 159.341 48.0697C159.228 47.7921 159.053 47.5864 158.817 47.4527C158.58 47.3191 158.277 47.2522 157.907 47.2522C157.485 47.2522 157.125 47.3499 156.827 47.5453C156.529 47.7304 156.344 48.0183 156.272 48.4091H154.452C154.513 47.8538 154.698 47.3808 155.007 46.99C155.315 46.589 155.722 46.2805 156.225 46.0645C156.74 45.8383 157.3 45.7252 157.907 45.7252C158.637 45.7252 159.259 45.8537 159.773 46.1108C160.287 46.3576 160.678 46.7175 160.945 47.1905C161.223 47.6533 161.362 48.2137 161.362 48.8718V53.6843H159.789L159.603 52.4349C159.501 52.6406 159.367 52.8308 159.202 53.0056C159.048 53.1805 158.868 53.3347 158.663 53.4684C158.457 53.5918 158.22 53.6895 157.953 53.7614C157.696 53.8334 157.403 53.8694 157.074 53.8694ZM157.49 52.4041C157.788 52.4041 158.051 52.3527 158.277 52.2498C158.513 52.1367 158.714 51.9825 158.878 51.7871C159.053 51.5814 159.187 51.3552 159.279 51.1084C159.372 50.8616 159.434 50.5994 159.465 50.3217V50.2909H157.752C157.393 50.2909 157.094 50.3372 156.858 50.4297C156.621 50.512 156.452 50.6354 156.349 50.7999C156.246 50.9644 156.195 51.1547 156.195 51.3706C156.195 51.5866 156.246 51.7717 156.349 51.9259C156.452 52.0802 156.601 52.1984 156.796 52.2807C156.991 52.3629 157.223 52.4041 157.49 52.4041ZM166.597 53.6843C166.073 53.6843 165.615 53.6021 165.224 53.4375C164.844 53.273 164.546 53.0005 164.33 52.62C164.114 52.2395 164.006 51.7254 164.006 51.0775V47.4682H162.679V45.9103H164.006L164.222 43.8588H165.857V45.9103H167.97V47.4682H165.857V51.0775C165.857 51.4683 165.939 51.7408 166.103 51.8951C166.278 52.039 166.566 52.111 166.967 52.111H167.924V53.6843H166.597ZM169.788 53.6843V45.9103H171.639V53.6843H169.788ZM170.714 44.6763C170.375 44.6763 170.092 44.5735 169.866 44.3678C169.65 44.1518 169.542 43.8896 169.542 43.5811C169.542 43.2624 169.65 43.0053 169.866 42.8099C170.092 42.6042 170.375 42.5014 170.714 42.5014C171.053 42.5014 171.331 42.6042 171.547 42.8099C171.773 43.0053 171.886 43.2624 171.886 43.5811C171.886 43.8896 171.773 44.1518 171.547 44.3678C171.331 44.5735 171.053 44.6763 170.714 44.6763ZM177.403 53.8694C176.663 53.8694 175.994 53.6998 175.398 53.3604C174.812 53.0108 174.349 52.5326 174.01 51.9259C173.681 51.3089 173.516 50.6045 173.516 49.8127C173.516 49.0003 173.686 48.2908 174.025 47.6841C174.365 47.0671 174.827 46.589 175.413 46.2496C176.01 45.9 176.678 45.7252 177.419 45.7252C178.159 45.7252 178.822 45.9 179.408 46.2496C180.005 46.589 180.468 47.062 180.797 47.6687C181.136 48.2754 181.306 48.9849 181.306 49.7973C181.306 50.6097 181.136 51.3192 180.797 51.9259C180.457 52.5326 179.989 53.0108 179.393 53.3604C178.807 53.6998 178.144 53.8694 177.403 53.8694ZM177.403 52.2807C177.773 52.2807 178.108 52.1881 178.406 52.003C178.714 51.8179 178.961 51.5403 179.146 51.1701C179.331 50.7999 179.424 50.3423 179.424 49.7973C179.424 49.2523 179.331 48.7998 179.146 48.4399C178.971 48.0697 178.73 47.7921 178.421 47.607C178.123 47.4219 177.789 47.3293 177.419 47.3293C177.059 47.3293 176.724 47.4219 176.416 47.607C176.108 47.7921 175.861 48.0697 175.676 48.4399C175.491 48.7998 175.398 49.2523 175.398 49.7973C175.398 50.3423 175.491 50.7999 175.676 51.1701C175.861 51.5403 176.102 51.8179 176.401 52.003C176.709 52.1881 177.043 52.2807 177.403 52.2807ZM183.118 53.6843V45.9103H184.753L184.891 47.2059C185.128 46.7535 185.467 46.3936 185.909 46.1262C186.352 45.8588 186.876 45.7252 187.483 45.7252C188.11 45.7252 188.645 45.8588 189.087 46.1262C189.529 46.3833 189.868 46.7638 190.105 47.2676C190.352 47.7715 190.475 48.3988 190.475 49.1495V53.6843H188.624V49.3191C188.624 48.6713 188.48 48.1726 188.192 47.8229C187.904 47.4733 187.478 47.2985 186.912 47.2985C186.542 47.2985 186.208 47.3859 185.909 47.5607C185.622 47.7355 185.39 47.9926 185.215 48.3319C185.051 48.661 184.969 49.062 184.969 49.5351V53.6843H183.118ZM200.635 53.8694C200.223 53.8694 199.853 53.8129 199.524 53.6998C199.195 53.5969 198.907 53.453 198.66 53.2679C198.414 53.0725 198.208 52.8514 198.043 52.6046L197.843 53.6843H196.192V42.5785H198.043V47.0517C198.29 46.6712 198.624 46.3576 199.046 46.1108C199.468 45.8537 199.992 45.7252 200.619 45.7252C201.349 45.7252 201.992 45.9051 202.547 46.265C203.113 46.6147 203.555 47.098 203.874 47.715C204.203 48.3217 204.368 49.0209 204.368 49.8127C204.368 50.584 204.208 51.2781 203.889 51.8951C203.571 52.512 203.128 52.9954 202.563 53.345C202.008 53.6946 201.365 53.8694 200.635 53.8694ZM200.249 52.2653C200.681 52.2653 201.067 52.1624 201.406 51.9568C201.745 51.7408 202.008 51.4529 202.193 51.093C202.388 50.7228 202.486 50.2909 202.486 49.7973C202.486 49.314 202.388 48.8872 202.193 48.517C202.008 48.1468 201.745 47.8589 201.406 47.6533C201.067 47.4476 200.681 47.3448 200.249 47.3448C199.807 47.3448 199.416 47.4476 199.077 47.6533C198.748 47.8589 198.486 48.1468 198.29 48.517C198.105 48.8872 198.013 49.314 198.013 49.7973C198.013 50.2909 198.105 50.7228 198.29 51.093C198.486 51.4529 198.748 51.7408 199.077 51.9568C199.416 52.1624 199.807 52.2653 200.249 52.2653ZM209.049 53.8694C208.421 53.8694 207.882 53.746 207.429 53.4992C206.987 53.2422 206.648 52.8617 206.411 52.3578C206.175 51.8436 206.056 51.2112 206.056 50.4606V45.9103H207.907V50.2755C207.907 50.9439 208.046 51.4529 208.324 51.8025C208.612 52.1419 209.044 52.3115 209.619 52.3115C209.99 52.3115 210.319 52.2241 210.607 52.0493C210.905 51.8745 211.136 51.6226 211.301 51.2935C211.476 50.9541 211.563 50.5428 211.563 50.0595V45.9103H213.414V53.6843H211.779L211.64 52.3886C211.404 52.8411 211.059 53.201 210.607 53.4684C210.164 53.7357 209.645 53.8694 209.049 53.8694ZM218.743 57.2629C218.013 57.2629 217.371 57.1703 216.815 56.9852C216.27 56.8104 215.844 56.5379 215.535 56.1677C215.237 55.8078 215.088 55.3553 215.088 54.8103C215.088 54.4916 215.165 54.1779 215.319 53.8694C215.484 53.5712 215.725 53.2936 216.044 53.0365C216.373 52.7691 216.79 52.5378 217.293 52.3424L218.111 53.237C217.617 53.4118 217.273 53.6226 217.078 53.8694C216.882 54.1162 216.784 54.3682 216.784 54.6252C216.784 54.8926 216.867 55.1137 217.031 55.2885C217.206 55.4736 217.437 55.6124 217.725 55.705C218.024 55.7975 218.358 55.8438 218.728 55.8438C219.088 55.8438 219.402 55.7924 219.669 55.6895C219.936 55.597 220.142 55.4633 220.286 55.2885C220.44 55.1137 220.517 54.9029 220.517 54.6561C220.517 54.3476 220.409 54.0957 220.193 53.9003C219.977 53.7152 219.551 53.6021 218.913 53.5609C218.368 53.5198 217.89 53.4632 217.479 53.3913C217.067 53.309 216.712 53.2164 216.414 53.1136C216.126 53.0108 215.88 52.8977 215.674 52.7743C215.468 52.6406 215.299 52.5069 215.165 52.3732V52.0185L216.784 50.3217L218.157 50.7691L216.337 52.5429L216.815 51.6483C216.918 51.7202 217.021 51.7871 217.124 51.8488C217.237 51.9105 217.376 51.967 217.54 52.0185C217.715 52.0596 217.941 52.1007 218.219 52.1419C218.497 52.183 218.857 52.2241 219.299 52.2653C219.988 52.3167 220.548 52.4401 220.98 52.6354C221.412 52.8308 221.731 53.093 221.936 53.4221C222.142 53.7512 222.245 54.1471 222.245 54.6098C222.245 55.0623 222.116 55.489 221.859 55.8901C221.612 56.2911 221.232 56.6202 220.718 56.8772C220.204 57.1343 219.545 57.2629 218.743 57.2629ZM218.743 51.3552C218.096 51.3552 217.535 51.2318 217.062 50.985C216.599 50.7279 216.245 50.3886 215.998 49.967C215.751 49.5351 215.628 49.062 215.628 48.5479C215.628 48.0235 215.751 47.5504 215.998 47.1288C216.245 46.7072 216.599 46.3679 217.062 46.1108C217.535 45.8537 218.096 45.7252 218.743 45.7252C219.391 45.7252 219.947 45.8537 220.409 46.1108C220.872 46.3679 221.227 46.7072 221.474 47.1288C221.72 47.5504 221.844 48.0235 221.844 48.5479C221.844 49.062 221.72 49.5351 221.474 49.967C221.227 50.3886 220.872 50.7279 220.409 50.985C219.947 51.2318 219.391 51.3552 218.743 51.3552ZM218.743 49.9207C219.186 49.9207 219.54 49.8024 219.808 49.5659C220.075 49.3294 220.209 48.9901 220.209 48.5479C220.209 48.1057 220.075 47.7715 219.808 47.5453C219.54 47.3088 219.186 47.1905 218.743 47.1905C218.301 47.1905 217.941 47.3088 217.664 47.5453C217.386 47.7715 217.247 48.1057 217.247 48.5479C217.247 48.9901 217.386 49.3294 217.664 49.5659C217.941 49.8024 218.301 49.9207 218.743 49.9207ZM220.024 47.2676L219.669 45.9103H222.862V47.0671L220.024 47.2676ZM228.262 53.6843V45.9103H229.912L230.082 47.3602C230.267 47.0208 230.499 46.7329 230.776 46.4964C231.054 46.2496 231.378 46.0594 231.748 45.9257C232.128 45.792 232.545 45.7252 232.997 45.7252V47.6841H232.35C232.041 47.6841 231.748 47.7252 231.47 47.8075C231.193 47.8795 230.951 48.0029 230.745 48.1777C230.55 48.3422 230.396 48.5736 230.283 48.8718C230.17 49.1597 230.113 49.5248 230.113 49.967V53.6843H228.262ZM237.867 53.8694C237.096 53.8694 236.417 53.7049 235.831 53.3758C235.245 53.0365 234.787 52.5635 234.458 51.9568C234.129 51.3501 233.965 50.6508 233.965 49.859C233.965 49.0363 234.124 48.3165 234.443 47.6995C234.772 47.0825 235.23 46.5992 235.816 46.2496C236.412 45.9 237.101 45.7252 237.883 45.7252C238.644 45.7252 239.307 45.8948 239.872 46.2342C240.438 46.5735 240.875 47.0311 241.184 47.607C241.492 48.1726 241.646 48.8101 241.646 49.5196C241.646 49.6225 241.646 49.7356 241.646 49.859C241.646 49.9824 241.636 50.1109 241.615 50.2446H235.291V49.0569H239.78C239.759 48.4913 239.569 48.0492 239.209 47.7304C238.849 47.4013 238.402 47.2368 237.867 47.2368C237.487 47.2368 237.137 47.3242 236.818 47.499C236.5 47.6738 236.248 47.936 236.063 48.2857C235.877 48.625 235.785 49.0569 235.785 49.5813V50.0287C235.785 50.512 235.872 50.9284 236.047 51.2781C236.232 51.6277 236.479 51.8951 236.788 52.0802C237.106 52.255 237.461 52.3424 237.852 52.3424C238.284 52.3424 238.639 52.2498 238.916 52.0647C239.204 51.8796 239.415 51.6328 239.549 51.3243H241.43C241.286 51.8077 241.05 52.2447 240.721 52.6354C240.392 53.0159 239.986 53.3193 239.502 53.5455C239.019 53.7614 238.474 53.8694 237.867 53.8694ZM245.183 53.6843L242.314 45.9103H244.257L246.309 51.9259L248.36 45.9103H250.273L247.404 53.6843H245.183ZM251.672 53.6843V45.9103H253.523V53.6843H251.672ZM252.598 44.6763C252.258 44.6763 251.975 44.5735 251.749 44.3678C251.533 44.1518 251.425 43.8896 251.425 43.5811C251.425 43.2624 251.533 43.0053 251.749 42.8099C251.975 42.6042 252.258 42.5014 252.598 42.5014C252.937 42.5014 253.215 42.6042 253.43 42.8099C253.657 43.0053 253.77 43.2624 253.77 43.5811C253.77 43.8896 253.657 44.1518 253.43 44.3678C253.215 44.5735 252.937 44.6763 252.598 44.6763ZM259.302 53.8694C258.531 53.8694 257.852 53.7049 257.266 53.3758C256.68 53.0365 256.222 52.5635 255.893 51.9568C255.564 51.3501 255.4 50.6508 255.4 49.859C255.4 49.0363 255.559 48.3165 255.878 47.6995C256.207 47.0825 256.665 46.5992 257.251 46.2496C257.847 45.9 258.536 45.7252 259.318 45.7252C260.079 45.7252 260.742 45.8948 261.307 46.2342C261.873 46.5735 262.31 47.0311 262.619 47.607C262.927 48.1726 263.081 48.8101 263.081 49.5196C263.081 49.6225 263.081 49.7356 263.081 49.859C263.081 49.9824 263.071 50.1109 263.05 50.2446H256.726V49.0569H261.215C261.194 48.4913 261.004 48.0492 260.644 47.7304C260.284 47.4013 259.837 47.2368 259.302 47.2368C258.922 47.2368 258.572 47.3242 258.253 47.499C257.935 47.6738 257.683 47.936 257.498 48.2857C257.312 48.625 257.22 49.0569 257.22 49.5813V50.0287C257.22 50.512 257.307 50.9284 257.482 51.2781C257.667 51.6277 257.914 51.8951 258.223 52.0802C258.541 52.255 258.896 52.3424 259.287 52.3424C259.719 52.3424 260.073 52.2498 260.351 52.0647C260.639 51.8796 260.85 51.6328 260.984 51.3243H262.865C262.721 51.8077 262.485 52.2447 262.156 52.6354C261.827 53.0159 261.421 53.3193 260.937 53.5455C260.454 53.7614 259.909 53.8694 259.302 53.8694ZM266.032 53.6843L263.749 45.9103H265.584L267.173 52.2961L266.834 52.2807L268.607 45.9103H270.674L272.464 52.2807H272.124L273.713 45.9103H275.549L273.266 53.6843H271.353L269.456 47.098H269.841L267.944 53.6843H266.032Z" fill="black"/>
<path d="M47.111 73.6631V66.3633H44.6932V65.5651H50.5006V66.3633H48.0827V73.6631H47.111ZM52.6793 73.8019C52.2088 73.8019 51.8155 73.7209 51.4993 73.559C51.1831 73.3893 50.9478 73.1695 50.7936 72.8996C50.6393 72.6219 50.5622 72.3211 50.5622 71.9972C50.5622 71.6039 50.6625 71.2723 50.863 71.0023C51.0712 70.7247 51.3604 70.5164 51.7306 70.3776C52.1085 70.2311 52.552 70.1578 53.061 70.1578H54.5996C54.5996 69.7953 54.5418 69.4946 54.4261 69.2555C54.3181 69.0087 54.1562 68.8236 53.9402 68.7002C53.732 68.5768 53.4698 68.5151 53.1536 68.5151C52.7834 68.5151 52.4633 68.6076 52.1934 68.7927C51.9234 68.9778 51.7576 69.2516 51.6959 69.6141H50.701C50.7473 69.1976 50.8861 68.8506 51.1175 68.5729C51.3566 68.2876 51.6574 68.0716 52.0198 67.9251C52.3823 67.7708 52.7602 67.6937 53.1536 67.6937C53.6934 67.6937 54.1407 67.794 54.4955 67.9945C54.858 68.1873 55.1279 68.4611 55.3053 68.8159C55.4827 69.1629 55.5714 69.5755 55.5714 70.0537V73.6631H54.7037L54.6459 72.6335C54.5688 72.7954 54.4685 72.9497 54.3451 73.0962C54.2294 73.235 54.0906 73.3584 53.9287 73.4664C53.7667 73.5667 53.5816 73.6477 53.3734 73.7094C53.1728 73.7711 52.9415 73.8019 52.6793 73.8019ZM52.8296 72.9805C53.0996 72.9805 53.3425 72.9266 53.5585 72.8186C53.7821 72.7029 53.9711 72.5486 54.1253 72.3558C54.2796 72.1553 54.3953 71.9355 54.4724 71.6964C54.5572 71.4573 54.5996 71.2067 54.5996 70.9445V70.9098H53.142C52.7641 70.9098 52.4594 70.956 52.2281 71.0486C51.9967 71.1334 51.8309 71.2568 51.7306 71.4188C51.6304 71.573 51.5802 71.7504 51.5802 71.9509C51.5802 72.1592 51.6265 72.3404 51.7191 72.4947C51.8193 72.6489 51.962 72.7685 52.1471 72.8533C52.3399 72.9381 52.5674 72.9805 52.8296 72.9805ZM57.0747 73.6631V67.8325H57.9539L58.0001 68.8506C58.1852 68.4881 58.4475 68.2066 58.7868 68.0061C59.1339 67.7978 59.5272 67.6937 59.9668 67.6937C60.4218 67.6937 60.8152 67.7863 61.1468 67.9714C61.4784 68.1487 61.7368 68.4225 61.9219 68.7927C62.107 69.1552 62.1995 69.618 62.1995 70.181V73.6631H61.2278V70.2851C61.2278 69.6989 61.0967 69.2593 60.8344 68.9663C60.5799 68.6732 60.2175 68.5267 59.747 68.5267C59.4231 68.5267 59.1339 68.6076 58.8794 68.7696C58.6249 68.9238 58.4205 69.1514 58.2662 69.4521C58.1197 69.7452 58.0464 70.1115 58.0464 70.5511V73.6631H57.0747ZM66.0081 73.6631C65.6611 73.6631 65.3603 73.6091 65.1058 73.5011C64.8513 73.3932 64.6546 73.2119 64.5158 72.9574C64.3847 72.6952 64.3191 72.3443 64.3191 71.9047V68.6539H63.3011V67.8325H64.3191L64.4464 66.4212H65.2909V67.8325H66.9799V68.6539H65.2909V71.9047C65.2909 72.2671 65.3641 72.5139 65.5107 72.6451C65.6572 72.7685 65.9156 72.8302 66.2858 72.8302H66.9105V73.6631H66.0081ZM68.2478 73.6631V67.8325H69.127L69.1964 68.9431C69.3275 68.6809 69.4933 68.4572 69.6939 68.2721C69.9021 68.087 70.1489 67.9444 70.4343 67.8441C70.7273 67.7438 71.059 67.6937 71.4292 67.6937V68.7117H71.0705C70.8237 68.7117 70.5885 68.7465 70.3648 68.8159C70.1412 68.8776 69.9407 68.9817 69.7633 69.1282C69.5936 69.2748 69.4586 69.4753 69.3584 69.7298C69.2658 69.9766 69.2196 70.2851 69.2196 70.6553V73.6631H68.2478ZM74.4268 73.8019C73.9563 73.8019 73.563 73.7209 73.2468 73.559C72.9306 73.3893 72.6953 73.1695 72.5411 72.8996C72.3868 72.6219 72.3097 72.3211 72.3097 71.9972C72.3097 71.6039 72.41 71.2723 72.6105 71.0023C72.8187 70.7247 73.1079 70.5164 73.4781 70.3776C73.856 70.2311 74.2995 70.1578 74.8085 70.1578H76.3471C76.3471 69.7953 76.2893 69.4946 76.1736 69.2555C76.0656 69.0087 75.9037 68.8236 75.6877 68.7002C75.4795 68.5768 75.2173 68.5151 74.9011 68.5151C74.5309 68.5151 74.2108 68.6076 73.9409 68.7927C73.671 68.9778 73.5051 69.2516 73.4434 69.6141H72.4485C72.4948 69.1976 72.6336 68.8506 72.865 68.5729C73.1041 68.2876 73.4049 68.0716 73.7674 67.9251C74.1298 67.7708 74.5077 67.6937 74.9011 67.6937C75.4409 67.6937 75.8883 67.794 76.243 67.9945C76.6055 68.1873 76.8754 68.4611 77.0528 68.8159C77.2302 69.1629 77.3189 69.5755 77.3189 70.0537V73.6631H76.4513L76.3934 72.6335C76.3163 72.7954 76.216 72.9497 76.0926 73.0962C75.9769 73.235 75.8381 73.3584 75.6762 73.4664C75.5142 73.5667 75.3291 73.6477 75.1209 73.7094C74.9204 73.7711 74.689 73.8019 74.4268 73.8019ZM74.5772 72.9805C74.8471 72.9805 75.09 72.9266 75.306 72.8186C75.5296 72.7029 75.7186 72.5486 75.8728 72.3558C76.0271 72.1553 76.1428 71.9355 76.2199 71.6964C76.3047 71.4573 76.3471 71.2067 76.3471 70.9445V70.9098H74.8895C74.5116 70.9098 74.207 70.956 73.9756 71.0486C73.7442 71.1334 73.5784 71.2568 73.4781 71.4188C73.3779 71.573 73.3278 71.7504 73.3278 71.9509C73.3278 72.1592 73.374 72.3404 73.4666 72.4947C73.5668 72.6489 73.7095 72.7685 73.8946 72.8533C74.0874 72.9381 74.3149 72.9805 74.5772 72.9805ZM81.1243 76.347C80.5999 76.347 80.1333 76.2776 79.7245 76.1388C79.3235 76.0076 79.0111 75.8033 78.7875 75.5256C78.5638 75.248 78.452 74.9048 78.452 74.496C78.452 74.3186 78.4867 74.1297 78.5561 73.9292C78.6332 73.7286 78.7605 73.532 78.9379 73.3392C79.123 73.1464 79.3813 72.9728 79.713 72.8186L80.3839 73.2119C79.9752 73.3816 79.7091 73.5744 79.5857 73.7903C79.4623 74.014 79.4006 74.2184 79.4006 74.4035C79.4006 74.658 79.4739 74.8701 79.6204 75.0397C79.7669 75.2094 79.9713 75.3367 80.2335 75.4215C80.4958 75.5063 80.7927 75.5488 81.1243 75.5488C81.4559 75.5488 81.7413 75.5025 81.9804 75.4099C82.2195 75.3174 82.4046 75.1863 82.5357 75.0166C82.6668 74.8469 82.7323 74.6464 82.7323 74.415C82.7323 74.1451 82.6321 73.9176 82.4316 73.7325C82.231 73.5551 81.8493 73.451 81.2863 73.4201C80.8312 73.3893 80.4495 73.3469 80.141 73.2929C79.8325 73.2389 79.578 73.1772 79.3775 73.1078C79.1769 73.0307 79.0073 72.9458 78.8685 72.8533C78.7373 72.7607 78.6178 72.6643 78.5098 72.5641V72.298L79.632 71.1874L80.4765 71.4882L79.3196 72.5294L79.47 72.1245C79.5549 72.1862 79.6358 72.244 79.713 72.298C79.7901 72.352 79.8942 72.3983 80.0253 72.4368C80.1564 72.4754 80.3377 72.5101 80.569 72.5409C80.8081 72.5718 81.1205 72.6026 81.5061 72.6335C82.0382 72.672 82.4624 72.7646 82.7786 72.9111C83.1025 73.0577 83.3339 73.2543 83.4727 73.5011C83.6193 73.7479 83.6925 74.041 83.6925 74.3803C83.6925 74.712 83.6 75.0243 83.4149 75.3174C83.2375 75.6182 82.9599 75.865 82.582 76.0578C82.204 76.2506 81.7182 76.347 81.1243 76.347ZM81.1127 71.8353C80.6269 71.8353 80.2104 71.7427 79.8633 71.5576C79.524 71.3725 79.2656 71.1257 79.0883 70.8172C78.9109 70.501 78.8222 70.1501 78.8222 69.7645C78.8222 69.3789 78.9109 69.0318 79.0883 68.7233C79.2734 68.4148 79.5356 68.168 79.8749 67.9829C80.2143 67.7901 80.6269 67.6937 81.1127 67.6937C81.5986 67.6937 82.0112 67.7901 82.3506 67.9829C82.6899 68.168 82.9483 68.4148 83.1257 68.7233C83.3031 69.0318 83.3918 69.3789 83.3918 69.7645C83.3918 70.1501 83.3031 70.501 83.1257 70.8172C82.9483 71.1257 82.6899 71.3725 82.3506 71.5576C82.0112 71.7427 81.5986 71.8353 81.1127 71.8353ZM81.1127 71.037C81.5292 71.037 81.857 70.9291 82.0961 70.7131C82.3352 70.4972 82.4547 70.181 82.4547 69.7645C82.4547 69.3557 82.3352 69.0434 82.0961 68.8274C81.857 68.6115 81.5292 68.5035 81.1127 68.5035C80.704 68.5035 80.3724 68.6115 80.1179 68.8274C79.8711 69.0434 79.7477 69.3557 79.7477 69.7645C79.7477 70.181 79.8711 70.4972 80.1179 70.7131C80.3647 70.9291 80.6963 71.037 81.1127 71.037ZM82.0614 68.6539L81.7722 67.8325H84.1553V68.5614L82.0614 68.6539ZM85.9093 76.2082L87.3322 73.0152H86.9967L84.7061 67.8325H85.7589L87.6561 72.2864L89.6459 67.8325H90.6524L86.9273 76.2082H85.9093ZM93.237 73.8019C92.7665 73.8019 92.3732 73.7209 92.057 73.559C91.7408 73.3893 91.5055 73.1695 91.3513 72.8996C91.197 72.6219 91.1199 72.3211 91.1199 71.9972C91.1199 71.6039 91.2202 71.2723 91.4207 71.0023C91.6289 70.7247 91.9181 70.5164 92.2883 70.3776C92.6662 70.2311 93.1097 70.1578 93.6187 70.1578H95.1573C95.1573 69.7953 95.0995 69.4946 94.9838 69.2555C94.8758 69.0087 94.7139 68.8236 94.4979 68.7002C94.2897 68.5768 94.0275 68.5151 93.7113 68.5151C93.3411 68.5151 93.021 68.6076 92.7511 68.7927C92.4811 68.9778 92.3153 69.2516 92.2536 69.6141H91.2587C91.305 69.1976 91.4438 68.8506 91.6752 68.5729C91.9143 68.2876 92.2151 68.0716 92.5775 67.9251C92.94 67.7708 93.3179 67.6937 93.7113 67.6937C94.2511 67.6937 94.6984 67.794 95.0532 67.9945C95.4157 68.1873 95.6856 68.4611 95.863 68.8159C96.0404 69.1629 96.1291 69.5755 96.1291 70.0537V73.6631H95.2614L95.2036 72.6335C95.1265 72.7954 95.0262 72.9497 94.9028 73.0962C94.7871 73.235 94.6483 73.3584 94.4864 73.4664C94.3244 73.5667 94.1393 73.6477 93.9311 73.7094C93.7305 73.7711 93.4992 73.8019 93.237 73.8019ZM93.3873 72.9805C93.6573 72.9805 93.9002 72.9266 94.1162 72.8186C94.3398 72.7029 94.5288 72.5486 94.683 72.3558C94.8373 72.1553 94.953 71.9355 95.0301 71.6964C95.1149 71.4573 95.1573 71.2067 95.1573 70.9445V70.9098H93.6997C93.3218 70.9098 93.0171 70.956 92.7858 71.0486C92.5544 71.1334 92.3886 71.2568 92.2883 71.4188C92.1881 71.573 92.1379 71.7504 92.1379 71.9509C92.1379 72.1592 92.1842 72.3404 92.2768 72.4947C92.377 72.6489 92.5197 72.7685 92.7048 72.8533C92.8976 72.9381 93.1251 72.9805 93.3873 72.9805ZM97.6324 73.6631V67.8325H98.5116L98.5578 68.8506C98.7429 68.4881 99.0052 68.2066 99.3445 68.0061C99.6916 67.7978 100.085 67.6937 100.525 67.6937C100.98 67.6937 101.373 67.7863 101.704 67.9714C102.036 68.1487 102.294 68.4225 102.48 68.7927C102.665 69.1552 102.757 69.618 102.757 70.181V73.6631H101.785V70.2851C101.785 69.6989 101.654 69.2593 101.392 68.9663C101.138 68.6732 100.775 68.5267 100.305 68.5267C99.9808 68.5267 99.6916 68.6076 99.4371 68.7696C99.1826 68.9238 98.9782 69.1514 98.8239 69.4521C98.6774 69.7452 98.6041 70.1115 98.6041 70.5511V73.6631H97.6324ZM107.406 73.6631V65.5651H110.044C110.684 65.5651 111.208 65.6731 111.617 65.889C112.033 66.0973 112.338 66.3788 112.531 66.7335C112.731 67.0883 112.832 67.4932 112.832 67.9482C112.832 68.3878 112.731 68.7889 112.531 69.1514C112.338 69.5061 112.037 69.7915 111.628 70.0074C111.22 70.2234 110.691 70.3313 110.044 70.3313H108.378V73.6631H107.406ZM108.378 69.51H110.032C110.68 69.51 111.143 69.3673 111.42 69.0819C111.698 68.7966 111.837 68.4187 111.837 67.9482C111.837 67.4469 111.698 67.0613 111.42 66.7914C111.143 66.5137 110.68 66.3749 110.032 66.3749H108.378V69.51ZM114.059 73.6631V67.8325H114.938L115.007 68.9431C115.139 68.6809 115.304 68.4572 115.505 68.2721C115.713 68.087 115.96 67.9444 116.245 67.8441C116.538 67.7438 116.87 67.6937 117.24 67.6937V68.7117H116.882C116.635 68.7117 116.4 68.7465 116.176 68.8159C115.952 68.8776 115.752 68.9817 115.574 69.1282C115.405 69.2748 115.27 69.4753 115.169 69.7298C115.077 69.9766 115.031 70.2851 115.031 70.6553V73.6631H114.059ZM118.433 73.6631V67.8325H119.405V73.6631H118.433ZM118.919 66.5947C118.726 66.5947 118.564 66.533 118.433 66.4096C118.31 66.2785 118.248 66.1165 118.248 65.9237C118.248 65.7309 118.31 65.5767 118.433 65.461C118.564 65.3376 118.726 65.2759 118.919 65.2759C119.104 65.2759 119.262 65.3376 119.393 65.461C119.524 65.5767 119.59 65.7309 119.59 65.9237C119.59 66.1165 119.524 66.2785 119.393 66.4096C119.262 66.533 119.104 66.5947 118.919 66.5947ZM122.797 73.6631L120.588 67.8325H121.606L123.364 72.726L125.134 67.8325H126.129L123.919 73.6631H122.797ZM128.824 73.8019C128.353 73.8019 127.96 73.7209 127.644 73.559C127.328 73.3893 127.092 73.1695 126.938 72.8996C126.784 72.6219 126.707 72.3211 126.707 71.9972C126.707 71.6039 126.807 71.2723 127.008 71.0023C127.216 70.7247 127.505 70.5164 127.875 70.3776C128.253 70.2311 128.697 70.1578 129.206 70.1578H130.744C130.744 69.7953 130.686 69.4946 130.571 69.2555C130.463 69.0087 130.301 68.8236 130.085 68.7002C129.877 68.5768 129.614 68.5151 129.298 68.5151C128.928 68.5151 128.608 68.6076 128.338 68.7927C128.068 68.9778 127.902 69.2516 127.84 69.6141H126.846C126.892 69.1976 127.031 68.8506 127.262 68.5729C127.501 68.2876 127.802 68.0716 128.164 67.9251C128.527 67.7708 128.905 67.6937 129.298 67.6937C129.838 67.6937 130.285 67.794 130.64 67.9945C131.003 68.1873 131.272 68.4611 131.45 68.8159C131.627 69.1629 131.716 69.5755 131.716 70.0537V73.6631H130.848L130.79 72.6335C130.713 72.7954 130.613 72.9497 130.49 73.0962C130.374 73.235 130.235 73.3584 130.073 73.4664C129.911 73.5667 129.726 73.6477 129.518 73.7094C129.317 73.7711 129.086 73.8019 128.824 73.8019ZM128.974 72.9805C129.244 72.9805 129.487 72.9266 129.703 72.8186C129.927 72.7029 130.116 72.5486 130.27 72.3558C130.424 72.1553 130.54 71.9355 130.617 71.6964C130.702 71.4573 130.744 71.2067 130.744 70.9445V70.9098H129.287C128.909 70.9098 128.604 70.956 128.373 71.0486C128.141 71.1334 127.975 71.2568 127.875 71.4188C127.775 71.573 127.725 71.7504 127.725 71.9509C127.725 72.1592 127.771 72.3404 127.864 72.4947C127.964 72.6489 128.107 72.7685 128.292 72.8533C128.484 72.9381 128.712 72.9805 128.974 72.9805ZM135.352 73.6631C135.005 73.6631 134.704 73.6091 134.449 73.5011C134.195 73.3932 133.998 73.2119 133.859 72.9574C133.728 72.6952 133.663 72.3443 133.663 71.9047V68.6539H132.645V67.8325H133.663L133.79 66.4212H134.634V67.8325H136.323V68.6539H134.634V71.9047C134.634 72.2671 134.708 72.5139 134.854 72.6451C135.001 72.7685 135.259 72.8302 135.629 72.8302H136.254V73.6631H135.352ZM139.99 73.8019C139.442 73.8019 138.956 73.6747 138.532 73.4201C138.116 73.1656 137.788 72.8109 137.549 72.3558C137.31 71.8931 137.19 71.3571 137.19 70.7478C137.19 70.1308 137.306 69.5948 137.537 69.1398C137.776 68.6848 138.108 68.33 138.532 68.0755C138.964 67.821 139.458 67.6937 140.013 67.6937C140.584 67.6937 141.066 67.821 141.459 68.0755C141.86 68.33 142.165 68.6655 142.373 69.0819C142.589 69.4907 142.697 69.9419 142.697 70.4355C142.697 70.5126 142.697 70.5936 142.697 70.6784C142.697 70.7632 142.693 70.8596 142.685 70.9676H137.919V70.2157H141.748C141.725 69.6835 141.548 69.267 141.216 68.9663C140.892 68.6655 140.483 68.5151 139.99 68.5151C139.658 68.5151 139.35 68.5922 139.064 68.7465C138.787 68.893 138.563 69.1128 138.393 69.4059C138.224 69.6912 138.139 70.0498 138.139 70.4817V70.8057C138.139 71.2838 138.224 71.6849 138.393 72.0088C138.571 72.3327 138.798 72.5756 139.076 72.7376C139.361 72.8996 139.666 72.9805 139.99 72.9805C140.399 72.9805 140.734 72.8918 140.996 72.7145C141.266 72.5294 141.459 72.2826 141.575 71.9741H142.535C142.442 72.3211 142.28 72.6335 142.049 72.9111C141.818 73.1888 141.528 73.4086 141.181 73.5705C140.842 73.7248 140.445 73.8019 139.99 73.8019ZM147.139 73.6631V65.5651H148.111V72.888H151.882V73.6631H147.139ZM153.274 73.6631V67.8325H154.246V73.6631H153.274ZM153.76 66.5947C153.567 66.5947 153.405 66.533 153.274 66.4096C153.151 66.2785 153.089 66.1165 153.089 65.9237C153.089 65.7309 153.151 65.5767 153.274 65.461C153.405 65.3376 153.567 65.2759 153.76 65.2759C153.945 65.2759 154.103 65.3376 154.234 65.461C154.366 65.5767 154.431 65.7309 154.431 65.9237C154.431 66.1165 154.366 66.2785 154.234 66.4096C154.103 66.533 153.945 66.5947 153.76 66.5947ZM155.961 73.6631V67.8325H156.84L156.898 68.6655C157.083 68.3647 157.33 68.1295 157.638 67.9598C157.955 67.7824 158.298 67.6937 158.668 67.6937C158.969 67.6937 159.239 67.7361 159.478 67.821C159.725 67.8981 159.94 68.0215 160.126 68.1912C160.311 68.3531 160.461 68.5614 160.577 68.8159C160.777 68.4611 161.051 68.1873 161.398 67.9945C161.753 67.794 162.131 67.6937 162.532 67.6937C162.979 67.6937 163.369 67.7863 163.7 67.9714C164.04 68.1487 164.298 68.4225 164.475 68.7927C164.66 69.1552 164.753 69.618 164.753 70.181V73.6631H163.793V70.2851C163.793 69.6989 163.673 69.2593 163.434 68.9663C163.195 68.6732 162.86 68.5267 162.428 68.5267C162.127 68.5267 161.857 68.6076 161.618 68.7696C161.379 68.9238 161.19 69.1514 161.051 69.4521C160.912 69.7529 160.843 70.1231 160.843 70.5627V73.6631H159.871V70.2851C159.871 69.6989 159.752 69.2593 159.512 68.9663C159.273 68.6732 158.934 68.5267 158.494 68.5267C158.201 68.5267 157.935 68.6076 157.696 68.7696C157.465 68.9238 157.28 69.1514 157.141 69.4521C157.002 69.7529 156.933 70.1231 156.933 70.5627V73.6631H155.961ZM166.357 73.6631V67.8325H167.328V73.6631H166.357ZM166.843 66.5947C166.65 66.5947 166.488 66.533 166.357 66.4096C166.233 66.2785 166.172 66.1165 166.172 65.9237C166.172 65.7309 166.233 65.5767 166.357 65.461C166.488 65.3376 166.65 65.2759 166.843 65.2759C167.028 65.2759 167.186 65.3376 167.317 65.461C167.448 65.5767 167.514 65.7309 167.514 65.9237C167.514 66.1165 167.448 66.2785 167.317 66.4096C167.186 66.533 167.028 66.5947 166.843 66.5947ZM171.334 73.6631C170.987 73.6631 170.686 73.6091 170.432 73.5011C170.177 73.3932 169.98 73.2119 169.842 72.9574C169.71 72.6952 169.645 72.3443 169.645 71.9047V68.6539H168.627V67.8325H169.645L169.772 66.4212H170.617V67.8325H172.306V68.6539H170.617V71.9047C170.617 72.2671 170.69 72.5139 170.836 72.6451C170.983 72.7685 171.241 72.8302 171.612 72.8302H172.236V73.6631H171.334ZM175.972 73.8019C175.424 73.8019 174.939 73.6747 174.514 73.4201C174.098 73.1656 173.77 72.8109 173.531 72.3558C173.292 71.8931 173.172 71.3571 173.172 70.7478C173.172 70.1308 173.288 69.5948 173.52 69.1398C173.759 68.6848 174.09 68.33 174.514 68.0755C174.946 67.821 175.44 67.6937 175.995 67.6937C176.566 67.6937 177.048 67.821 177.441 68.0755C177.842 68.33 178.147 68.6655 178.355 69.0819C178.571 69.4907 178.679 69.9419 178.679 70.4355C178.679 70.5126 178.679 70.5936 178.679 70.6784C178.679 70.7632 178.675 70.8596 178.668 70.9676H173.901V70.2157H177.73C177.707 69.6835 177.53 69.267 177.198 68.9663C176.874 68.6655 176.466 68.5151 175.972 68.5151C175.64 68.5151 175.332 68.5922 175.047 68.7465C174.769 68.893 174.545 69.1128 174.376 69.4059C174.206 69.6912 174.121 70.0498 174.121 70.4817V70.8057C174.121 71.2838 174.206 71.6849 174.376 72.0088C174.553 72.3327 174.78 72.5756 175.058 72.7376C175.343 72.8996 175.648 72.9805 175.972 72.9805C176.381 72.9805 176.716 72.8918 176.979 72.7145C177.248 72.5294 177.441 72.2826 177.557 71.9741H178.517C178.425 72.3211 178.263 72.6335 178.031 72.9111C177.8 73.1888 177.511 73.4086 177.164 73.5705C176.824 73.7248 176.427 73.8019 175.972 73.8019ZM182.559 73.8019C181.996 73.8019 181.502 73.6708 181.078 73.4086C180.654 73.1386 180.326 72.7723 180.095 72.3096C179.863 71.8468 179.748 71.3224 179.748 70.7362C179.748 70.1501 179.863 69.6295 180.095 69.1745C180.326 68.7117 180.654 68.3493 181.078 68.087C181.51 67.8248 182.007 67.6937 182.57 67.6937C183.048 67.6937 183.465 67.7901 183.82 67.9829C184.182 68.1757 184.46 68.4457 184.653 68.7927V65.3337H185.624V73.6631H184.745L184.664 72.7029C184.541 72.8957 184.383 73.0769 184.19 73.2466C183.997 73.4086 183.766 73.5435 183.496 73.6515C183.226 73.7518 182.913 73.8019 182.559 73.8019ZM182.674 72.9574C183.06 72.9574 183.399 72.8649 183.692 72.6798C183.985 72.4947 184.213 72.2402 184.375 71.9162C184.537 71.5846 184.618 71.1951 184.618 70.7478C184.618 70.3082 184.537 69.9226 184.375 69.591C184.213 69.2593 183.985 69.001 183.692 68.8159C183.399 68.6308 183.06 68.5382 182.674 68.5382C182.296 68.5382 181.961 68.6308 181.668 68.8159C181.375 69.001 181.147 69.2593 180.985 69.591C180.823 69.9226 180.742 70.3082 180.742 70.7478C180.742 71.1951 180.823 71.5846 180.985 71.9162C181.147 72.2402 181.375 72.4947 181.668 72.6798C181.961 72.8649 182.296 72.9574 182.674 72.9574ZM192.271 73.6631V66.3633H189.854V65.5651H195.661V66.3633H193.243V73.6631H192.271ZM198.318 73.8019C197.771 73.8019 197.285 73.6747 196.861 73.4201C196.444 73.1656 196.116 72.8109 195.877 72.3558C195.638 71.8931 195.519 71.3571 195.519 70.7478C195.519 70.1308 195.634 69.5948 195.866 69.1398C196.105 68.6848 196.436 68.33 196.861 68.0755C197.293 67.821 197.786 67.6937 198.341 67.6937C198.912 67.6937 199.394 67.821 199.788 68.0755C200.189 68.33 200.493 68.6655 200.701 69.0819C200.917 69.4907 201.025 69.9419 201.025 70.4355C201.025 70.5126 201.025 70.5936 201.025 70.6784C201.025 70.7632 201.021 70.8596 201.014 70.9676H196.248V70.2157H200.077C200.054 69.6835 199.876 69.267 199.545 68.9663C199.221 68.6655 198.812 68.5151 198.318 68.5151C197.987 68.5151 197.678 68.5922 197.393 68.7465C197.115 68.893 196.892 69.1128 196.722 69.4059C196.552 69.6912 196.467 70.0498 196.467 70.4817V70.8057C196.467 71.2838 196.552 71.6849 196.722 72.0088C196.899 72.3327 197.127 72.5756 197.404 72.7376C197.69 72.8996 197.994 72.9805 198.318 72.9805C198.727 72.9805 199.063 72.8918 199.325 72.7145C199.595 72.5294 199.788 72.2826 199.903 71.9741H200.863C200.771 72.3211 200.609 72.6335 200.378 72.9111C200.146 73.1888 199.857 73.4086 199.51 73.5705C199.171 73.7248 198.773 73.8019 198.318 73.8019ZM204.963 73.8019C204.415 73.8019 203.922 73.6747 203.482 73.4201C203.05 73.1656 202.711 72.8109 202.464 72.3558C202.217 71.8931 202.094 71.3609 202.094 70.7594C202.094 70.1424 202.217 69.6064 202.464 69.1514C202.711 68.6963 203.05 68.3416 203.482 68.087C203.922 67.8248 204.415 67.6937 204.963 67.6937C205.657 67.6937 206.235 67.875 206.698 68.2374C207.161 68.5922 207.454 69.0704 207.577 69.6719H206.582C206.505 69.3095 206.316 69.028 206.016 68.8274C205.715 68.6269 205.36 68.5267 204.951 68.5267C204.62 68.5267 204.311 68.6115 204.026 68.7812C203.74 68.9431 203.513 69.1899 203.343 69.5215C203.174 69.8532 203.089 70.2619 203.089 70.7478C203.089 71.1103 203.139 71.4342 203.239 71.7196C203.339 71.9972 203.474 72.2286 203.644 72.4137C203.814 72.5988 204.01 72.7415 204.234 72.8417C204.465 72.9343 204.704 72.9805 204.951 72.9805C205.229 72.9805 205.48 72.9381 205.703 72.8533C205.927 72.7607 206.116 72.6258 206.27 72.4484C206.424 72.271 206.528 72.0628 206.582 71.8237H207.577C207.454 72.4098 207.157 72.888 206.687 73.2582C206.224 73.6207 205.649 73.8019 204.963 73.8019ZM208.957 73.6631V65.3337H209.929V68.8159C210.122 68.4688 210.392 68.195 210.739 67.9945C211.093 67.794 211.479 67.6937 211.895 67.6937C212.343 67.6937 212.732 67.7863 213.064 67.9714C213.395 68.1487 213.65 68.4225 213.827 68.7927C214.005 69.1629 214.093 69.6295 214.093 70.1925V73.6631H213.133V70.2966C213.133 69.7105 213.01 69.2709 212.763 68.9778C212.516 68.677 212.158 68.5267 211.687 68.5267C211.356 68.5267 211.055 68.6076 210.785 68.7696C210.523 68.9316 210.314 69.1629 210.16 69.4637C210.006 69.7645 209.929 70.1347 209.929 70.5743V73.6631H208.957ZM215.611 73.6631V67.8325H216.49L216.537 68.8506C216.722 68.4881 216.984 68.2066 217.323 68.0061C217.67 67.7978 218.064 67.6937 218.503 67.6937C218.958 67.6937 219.352 67.7863 219.683 67.9714C220.015 68.1487 220.273 68.4225 220.458 68.7927C220.644 69.1552 220.736 69.618 220.736 70.181V73.6631H219.764V70.2851C219.764 69.6989 219.633 69.2593 219.371 68.9663C219.116 68.6732 218.754 68.5267 218.284 68.5267C217.96 68.5267 217.67 68.6076 217.416 68.7696C217.161 68.9238 216.957 69.1514 216.803 69.4521C216.656 69.7452 216.583 70.1115 216.583 70.5511V73.6631H215.611ZM224.857 73.8019C224.317 73.8019 223.831 73.6785 223.399 73.4317C222.967 73.1772 222.628 72.8224 222.381 72.3674C222.135 71.9047 222.011 71.3687 222.011 70.7594C222.011 70.1347 222.135 69.5948 222.381 69.1398C222.636 68.677 222.979 68.3223 223.411 68.0755C223.851 67.821 224.34 67.6937 224.88 67.6937C225.435 67.6937 225.925 67.821 226.349 68.0755C226.781 68.3223 227.121 68.677 227.367 69.1398C227.622 69.5948 227.749 70.1308 227.749 70.7478C227.749 71.3648 227.622 71.9047 227.367 72.3674C227.113 72.8224 226.77 73.1772 226.338 73.4317C225.906 73.6785 225.412 73.8019 224.857 73.8019ZM224.869 72.969C225.2 72.969 225.509 72.888 225.794 72.726C226.079 72.5564 226.311 72.3057 226.488 71.9741C226.666 71.6424 226.754 71.2337 226.754 70.7478C226.754 70.2542 226.666 69.8455 226.488 69.5215C226.319 69.1899 226.091 68.9431 225.806 68.7812C225.528 68.6115 225.219 68.5267 224.88 68.5267C224.556 68.5267 224.248 68.6115 223.955 68.7812C223.669 68.9431 223.438 69.1899 223.261 69.5215C223.091 69.8455 223.006 70.2542 223.006 70.7478C223.006 71.2337 223.091 71.6424 223.261 71.9741C223.438 72.3057 223.665 72.5564 223.943 72.726C224.228 72.888 224.537 72.969 224.869 72.969ZM229.112 73.6631V65.3337H230.083V73.6631H229.112ZM234.29 73.8019C233.75 73.8019 233.265 73.6785 232.833 73.4317C232.401 73.1772 232.061 72.8224 231.815 72.3674C231.568 71.9047 231.444 71.3687 231.444 70.7594C231.444 70.1347 231.568 69.5948 231.815 69.1398C232.069 68.677 232.412 68.3223 232.844 68.0755C233.284 67.821 233.774 67.6937 234.313 67.6937C234.869 67.6937 235.359 67.821 235.783 68.0755C236.215 68.3223 236.554 68.677 236.801 69.1398C237.055 69.5948 237.182 70.1308 237.182 70.7478C237.182 71.3648 237.055 71.9047 236.801 72.3674C236.546 72.8224 236.203 73.1772 235.771 73.4317C235.339 73.6785 234.846 73.8019 234.29 73.8019ZM234.302 72.969C234.634 72.969 234.942 72.888 235.227 72.726C235.513 72.5564 235.744 72.3057 235.922 71.9741C236.099 71.6424 236.188 71.2337 236.188 70.7478C236.188 70.2542 236.099 69.8455 235.922 69.5215C235.752 69.1899 235.524 68.9431 235.239 68.7812C234.961 68.6115 234.653 68.5267 234.313 68.5267C233.99 68.5267 233.681 68.6115 233.388 68.7812C233.103 68.9431 232.871 69.1899 232.694 69.5215C232.524 69.8455 232.439 70.2542 232.439 70.7478C232.439 71.2337 232.524 71.6424 232.694 71.9741C232.871 72.3057 233.099 72.5564 233.376 72.726C233.662 72.888 233.97 72.969 234.302 72.969ZM240.599 76.347C240.074 76.347 239.608 76.2776 239.199 76.1388C238.798 76.0076 238.485 75.8033 238.262 75.5256C238.038 75.248 237.926 74.9048 237.926 74.496C237.926 74.3186 237.961 74.1297 238.03 73.9292C238.107 73.7286 238.235 73.532 238.412 73.3392C238.597 73.1464 238.856 72.9728 239.187 72.8186L239.858 73.2119C239.449 73.3816 239.183 73.5744 239.06 73.7903C238.937 74.014 238.875 74.2184 238.875 74.4035C238.875 74.658 238.948 74.8701 239.095 75.0397C239.241 75.2094 239.446 75.3367 239.708 75.4215C239.97 75.5063 240.267 75.5488 240.599 75.5488C240.93 75.5488 241.216 75.5025 241.455 75.4099C241.694 75.3174 241.879 75.1863 242.01 75.0166C242.141 74.8469 242.207 74.6464 242.207 74.415C242.207 74.1451 242.106 73.9176 241.906 73.7325C241.705 73.5551 241.324 73.451 240.761 73.4201C240.305 73.3893 239.924 73.3469 239.615 73.2929C239.307 73.2389 239.052 73.1772 238.852 73.1078C238.651 73.0307 238.482 72.9458 238.343 72.8533C238.212 72.7607 238.092 72.6643 237.984 72.5641V72.298L239.106 71.1874L239.951 71.4882L238.794 72.5294L238.944 72.1245C239.029 72.1862 239.11 72.244 239.187 72.298C239.264 72.352 239.368 72.3983 239.5 72.4368C239.631 72.4754 239.812 72.5101 240.043 72.5409C240.282 72.5718 240.595 72.6026 240.98 72.6335C241.512 72.672 241.937 72.7646 242.253 72.9111C242.577 73.0577 242.808 73.2543 242.947 73.5011C243.094 73.7479 243.167 74.041 243.167 74.3803C243.167 74.712 243.074 75.0243 242.889 75.3174C242.712 75.6182 242.434 75.865 242.056 76.0578C241.678 76.2506 241.192 76.347 240.599 76.347ZM240.587 71.8353C240.101 71.8353 239.685 71.7427 239.338 71.5576C238.998 71.3725 238.74 71.1257 238.562 70.8172C238.385 70.501 238.296 70.1501 238.296 69.7645C238.296 69.3789 238.385 69.0318 238.562 68.7233C238.748 68.4148 239.01 68.168 239.349 67.9829C239.688 67.7901 240.101 67.6937 240.587 67.6937C241.073 67.6937 241.485 67.7901 241.825 67.9829C242.164 68.168 242.423 68.4148 242.6 68.7233C242.777 69.0318 242.866 69.3789 242.866 69.7645C242.866 70.1501 242.777 70.501 242.6 70.8172C242.423 71.1257 242.164 71.3725 241.825 71.5576C241.485 71.7427 241.073 71.8353 240.587 71.8353ZM240.587 71.037C241.003 71.037 241.331 70.9291 241.57 70.7131C241.809 70.4972 241.929 70.181 241.929 69.7645C241.929 69.3557 241.809 69.0434 241.57 68.8274C241.331 68.6115 241.003 68.5035 240.587 68.5035C240.178 68.5035 239.847 68.6115 239.592 68.8274C239.345 69.0434 239.222 69.3557 239.222 69.7645C239.222 70.181 239.345 70.4972 239.592 70.7131C239.839 70.9291 240.171 71.037 240.587 71.037ZM241.536 68.6539L241.246 67.8325H243.63V68.5614L241.536 68.6539ZM244.84 73.6631V67.8325H245.812V73.6631H244.84ZM245.326 66.5947C245.133 66.5947 244.971 66.533 244.84 66.4096C244.716 66.2785 244.655 66.1165 244.655 65.9237C244.655 65.7309 244.716 65.5767 244.84 65.461C244.971 65.3376 245.133 65.2759 245.326 65.2759C245.511 65.2759 245.669 65.3376 245.8 65.461C245.931 65.5767 245.997 65.7309 245.997 65.9237C245.997 66.1165 245.931 66.2785 245.8 66.4096C245.669 66.533 245.511 66.5947 245.326 66.5947ZM250.083 73.8019C249.535 73.8019 249.05 73.6747 248.625 73.4201C248.209 73.1656 247.881 72.8109 247.642 72.3558C247.403 71.8931 247.283 71.3571 247.283 70.7478C247.283 70.1308 247.399 69.5948 247.631 69.1398C247.87 68.6848 248.201 68.33 248.625 68.0755C249.057 67.821 249.551 67.6937 250.106 67.6937C250.677 67.6937 251.159 67.821 251.552 68.0755C251.953 68.33 252.258 68.6655 252.466 69.0819C252.682 69.4907 252.79 69.9419 252.79 70.4355C252.79 70.5126 252.79 70.5936 252.79 70.6784C252.79 70.7632 252.786 70.8596 252.779 70.9676H248.012V70.2157H251.841C251.818 69.6835 251.641 69.267 251.309 68.9663C250.985 68.6655 250.577 68.5151 250.083 68.5151C249.751 68.5151 249.443 68.5922 249.158 68.7465C248.88 68.893 248.656 69.1128 248.487 69.4059C248.317 69.6912 248.232 70.0498 248.232 70.4817V70.8057C248.232 71.2838 248.317 71.6849 248.487 72.0088C248.664 72.3327 248.891 72.5756 249.169 72.7376C249.454 72.8996 249.759 72.9805 250.083 72.9805C250.492 72.9805 250.827 72.8918 251.09 72.7145C251.359 72.5294 251.552 72.2826 251.668 71.9741H252.628C252.536 72.3211 252.374 72.6335 252.142 72.9111C251.911 73.1888 251.622 73.4086 251.275 73.5705C250.935 73.7248 250.538 73.8019 250.083 73.8019ZM256.3 73.8019C255.814 73.8019 255.389 73.7209 255.027 73.559C254.672 73.397 254.387 73.1734 254.171 72.888C253.963 72.5949 253.835 72.2517 253.789 71.8584H254.784C254.823 72.0589 254.904 72.244 255.027 72.4137C255.15 72.5834 255.316 72.7222 255.524 72.8302C255.74 72.9304 256.003 72.9805 256.311 72.9805C256.581 72.9805 256.805 72.942 256.982 72.8649C257.159 72.78 257.291 72.6682 257.375 72.5294C257.468 72.3905 257.514 72.2402 257.514 72.0782C257.514 71.8391 257.456 71.6579 257.341 71.5345C257.233 71.4111 257.071 71.3147 256.855 71.2453C256.639 71.1681 256.377 71.1026 256.068 71.0486C255.814 71.0023 255.563 70.9406 255.316 70.8635C255.069 70.7864 254.85 70.6861 254.657 70.5627C254.464 70.4316 254.31 70.2735 254.194 70.0884C254.086 69.9033 254.032 69.6758 254.032 69.4059C254.032 69.0742 254.117 68.7812 254.287 68.5267C254.456 68.2644 254.699 68.0601 255.015 67.9135C255.339 67.767 255.713 67.6937 256.138 67.6937C256.762 67.6937 257.267 67.8441 257.653 68.1449C258.039 68.4457 258.266 68.8814 258.336 69.4521H257.375C257.337 69.1591 257.21 68.9316 256.994 68.7696C256.785 68.5999 256.496 68.5151 256.126 68.5151C255.764 68.5151 255.486 68.5883 255.293 68.7349C255.108 68.8814 255.015 69.0742 255.015 69.3133C255.015 69.4676 255.066 69.6064 255.166 69.7298C255.274 69.8455 255.428 69.9457 255.629 70.0306C255.837 70.1154 256.091 70.1848 256.392 70.2388C256.778 70.3082 257.129 70.4008 257.445 70.5164C257.761 70.6321 258.016 70.8057 258.208 71.037C258.409 71.2607 258.509 71.5807 258.509 71.9972C258.509 72.3597 258.417 72.6759 258.231 72.9458C258.054 73.2158 257.8 73.4279 257.468 73.5821C257.136 73.7286 256.747 73.8019 256.3 73.8019Z" fill="black" fill-opacity="0.6"/>
<path d="M46.9169 87.6247H57.2M46.9169 87.6247V93.2806C46.9169 94.0005 46.9169 94.3602 47.057 94.6352C47.1802 94.8771 47.3767 95.0739 47.6186 95.1971C47.8933 95.3371 48.253 95.3371 48.9715 95.3371H55.1454C55.8639 95.3371 56.2231 95.3371 56.4978 95.1971C56.7397 95.0739 56.9368 94.8771 57.0601 94.6352C57.2 94.3605 57.2 94.0013 57.2 93.2828V87.6247M46.9169 87.6247V87.1107C46.9169 86.3908 46.9169 86.0306 47.057 85.7556C47.1802 85.5138 47.3767 85.3173 47.6186 85.194C47.8935 85.0539 48.2538 85.0539 48.9736 85.0539H49.4877M57.2 87.6247V87.1086C57.2 86.3901 57.2 86.0303 57.0601 85.7556C56.9368 85.5138 56.7397 85.3173 56.4978 85.194C56.2229 85.0539 55.8634 85.0539 55.1435 85.0539H54.6293M54.6293 83.7686V85.0539M54.6293 85.0539H49.4877M49.4877 83.7686V85.0539" stroke="black" stroke-opacity="0.6" stroke-width="0.964046" stroke-linecap="round" stroke-linejoin="round"/>
<path d="M65.6669 93.8344C64.9574 93.8344 64.3443 93.6609 63.8275 93.3138C63.3185 92.959 62.9291 92.4693 62.6591 91.8446C62.3892 91.2122 62.2542 90.4795 62.2542 89.6466C62.2542 88.8136 62.3892 88.0848 62.6591 87.4601C62.9291 86.8277 63.3185 86.338 63.8275 85.9909C64.3443 85.6361 64.9574 85.4588 65.6669 85.4588C66.3765 85.4588 66.9819 85.6361 67.4832 85.9909C67.9922 86.338 68.3817 86.8277 68.6516 87.4601C68.9216 88.0848 69.0565 88.8136 69.0565 89.6466C69.0565 90.4795 68.9216 91.2122 68.6516 91.8446C68.3817 92.4693 67.9922 92.959 67.4832 93.3138C66.9819 93.6609 66.3765 93.8344 65.6669 93.8344ZM65.6554 92.9783C66.1181 92.9783 66.5307 92.8472 66.8932 92.585C67.2557 92.315 67.541 91.9333 67.7493 91.4397C67.9575 90.9384 68.0616 90.3407 68.0616 89.6466C68.0616 88.9525 67.9575 88.3586 67.7493 87.865C67.541 87.3637 67.2557 86.9819 66.8932 86.7197C66.5307 86.4575 66.1181 86.3264 65.6554 86.3264C65.1926 86.3264 64.7762 86.4575 64.406 86.7197C64.0435 86.9819 63.7581 87.3637 63.5499 87.865C63.3494 88.3586 63.2491 88.9525 63.2491 89.6466C63.2491 90.3407 63.3494 90.9384 63.5499 91.4397C63.7581 91.9333 64.0435 92.315 64.406 92.585C64.7762 92.8472 65.1926 92.9783 65.6554 92.9783ZM71.3655 93.6956V86.685L69.9773 87.0321V86.338L71.6895 85.5976H72.3489V93.6956H71.3655ZM73.5349 94.7946L76.4386 84.8572H77.3988L74.4951 94.7946H73.5349ZM81.4833 93.8344C80.7738 93.8344 80.1606 93.6609 79.6439 93.3138C79.1349 92.959 78.7454 92.4693 78.4755 91.8446C78.2056 91.2122 78.0706 90.4795 78.0706 89.6466C78.0706 88.8136 78.2056 88.0848 78.4755 87.4601C78.7454 86.8277 79.1349 86.338 79.6439 85.9909C80.1606 85.6361 80.7738 85.4588 81.4833 85.4588C82.1929 85.4588 82.7983 85.6361 83.2996 85.9909C83.8086 86.338 84.1981 86.8277 84.468 87.4601C84.7379 88.0848 84.8729 88.8136 84.8729 89.6466C84.8729 90.4795 84.7379 91.2122 84.468 91.8446C84.1981 92.4693 83.8086 92.959 83.2996 93.3138C82.7983 93.6609 82.1929 93.8344 81.4833 93.8344ZM81.4717 92.9783C81.9345 92.9783 82.3471 92.8472 82.7096 92.585C83.0721 92.315 83.3574 91.9333 83.5657 91.4397C83.7739 90.9384 83.878 90.3407 83.878 89.6466C83.878 88.9525 83.7739 88.3586 83.5657 87.865C83.3574 87.3637 83.0721 86.9819 82.7096 86.7197C82.3471 86.4575 81.9345 86.3264 81.4717 86.3264C81.009 86.3264 80.5925 86.4575 80.2223 86.7197C79.8599 86.9819 79.5745 87.3637 79.3663 87.865C79.1657 88.3586 79.0655 88.9525 79.0655 89.6466C79.0655 90.3407 79.1657 90.9384 79.3663 91.4397C79.5745 91.9333 79.8599 92.315 80.2223 92.585C80.5925 92.8472 81.009 92.9783 81.4717 92.9783ZM86.0509 93.6956V93.013C86.5985 92.5811 87.1191 92.1454 87.6127 91.7058C88.114 91.2662 88.5574 90.8304 88.943 90.3985C89.3287 89.9589 89.6294 89.5309 89.8454 89.1144C90.069 88.6979 90.1809 88.2969 90.1809 87.9113C90.1809 87.6259 90.1307 87.3637 90.0305 87.1246C89.9302 86.8778 89.7683 86.6773 89.5446 86.5231C89.3287 86.3688 89.0356 86.2917 88.6654 86.2917C88.3029 86.2917 88.0021 86.3727 87.763 86.5346C87.524 86.6889 87.3427 86.8971 87.2193 87.1593C87.1036 87.4138 87.0458 87.6953 87.0458 88.0038H86.1087C86.1165 87.4717 86.2283 87.0166 86.4442 86.6387C86.6679 86.2531 86.9725 85.9601 87.3581 85.7595C87.7438 85.559 88.1834 85.4588 88.677 85.4588C89.1628 85.4588 89.5909 85.5513 89.9611 85.7364C90.3313 85.9138 90.6205 86.1799 90.8287 86.5346C91.0447 86.8894 91.1526 87.3367 91.1526 87.8766C91.1526 88.2545 91.0717 88.6324 90.9097 89.0103C90.7554 89.3882 90.5472 89.7584 90.285 90.1209C90.0228 90.4756 89.7297 90.8188 89.4058 91.1505C89.0896 91.4821 88.7618 91.7945 88.4225 92.0875C88.0908 92.3806 87.7785 92.6467 87.4854 92.8858H91.4303V93.6956H86.0509ZM92.2999 94.7946L95.2036 84.8572H96.1638L93.2601 94.7946H92.2999ZM97.2466 93.6956V93.013C97.7942 92.5811 98.3148 92.1454 98.8084 91.7058C99.3097 91.2662 99.7532 90.8304 100.139 90.3985C100.524 89.9589 100.825 89.5309 101.041 89.1144C101.265 88.6979 101.377 88.2969 101.377 87.9113C101.377 87.6259 101.326 87.3637 101.226 87.1246C101.126 86.8778 100.964 86.6773 100.74 86.5231C100.524 86.3688 100.231 86.2917 99.8611 86.2917C99.4986 86.2917 99.1979 86.3727 98.9588 86.5346C98.7197 86.6889 98.5385 86.8971 98.4151 87.1593C98.2994 87.4138 98.2415 87.6953 98.2415 88.0038H97.3045C97.3122 87.4717 97.424 87.0166 97.64 86.6387C97.8636 86.2531 98.1683 85.9601 98.5539 85.7595C98.9395 85.559 99.3791 85.4588 99.8727 85.4588C100.359 85.4588 100.787 85.5513 101.157 85.7364C101.527 85.9138 101.816 86.1799 102.024 86.5346C102.24 86.8894 102.348 87.3367 102.348 87.8766C102.348 88.2545 102.267 88.6324 102.105 89.0103C101.951 89.3882 101.743 89.7584 101.481 90.1209C101.219 90.4756 100.925 90.8188 100.602 91.1505C100.285 91.4821 99.9575 91.7945 99.6182 92.0875C99.2866 92.3806 98.9742 92.6467 98.6811 92.8858H102.626V93.6956H97.2466ZM106.77 93.8344C106.214 93.8344 105.732 93.7341 105.323 93.5336C104.922 93.3331 104.602 93.0593 104.363 92.7122C104.132 92.3652 103.985 91.9757 103.924 91.5438H104.872C104.965 91.9757 105.177 92.3266 105.509 92.5965C105.84 92.8665 106.264 93.0014 106.781 93.0014C107.167 93.0014 107.494 92.9128 107.764 92.7354C108.042 92.558 108.254 92.315 108.401 92.0065C108.555 91.6981 108.632 91.3549 108.632 90.9769C108.632 90.5836 108.555 90.2366 108.401 89.9358C108.246 89.635 108.034 89.4036 107.764 89.2417C107.494 89.072 107.178 88.9872 106.816 88.9872C106.376 88.9872 106.002 89.0836 105.694 89.2764C105.385 89.4692 105.154 89.716 105 90.0168H104.062L104.733 85.5976H109.014V86.4421H105.485L105.034 88.9293C105.227 88.7057 105.482 88.5244 105.798 88.3856C106.122 88.2391 106.496 88.1658 106.92 88.1658C107.321 88.1658 107.683 88.2352 108.007 88.374C108.331 88.5128 108.609 88.7095 108.84 88.964C109.072 89.2185 109.249 89.5155 109.372 89.8548C109.504 90.1941 109.569 90.5643 109.569 90.9654C109.569 91.3587 109.504 91.7289 109.372 92.076C109.249 92.4153 109.068 92.7199 108.829 92.9899C108.59 93.2521 108.297 93.4603 107.95 93.6146C107.602 93.7611 107.209 93.8344 106.77 93.8344Z" fill="black" fill-opacity="0.6"/>
<path d="M44.3461 110.44H398.497" stroke="#DCDCDC" stroke-width="0.964046" stroke-linecap="round"/>
<rect width="385" height="45.8495" transform="translate(28.9214 112.369)" fill="white"/>
<rect x="44.3461" y="122.009" width="59.9214" height="22.7124" rx="3.85618" fill="#9F1818" fill-opacity="0.2"/>
<g clip-path="url(#clip1_33_439)">
<g clip-path="url(#clip2_33_439)">
<path d="M56.8784 138.989C59.9842 138.989 62.502 136.472 62.502 133.366C62.502 130.26 59.9842 127.742 56.8784 127.742C53.7726 127.742 51.2548 130.26 51.2548 133.366C51.2548 136.472 53.7726 138.989 56.8784 138.989Z" stroke="#9F1818" stroke-width="1.12472" stroke-linecap="round" stroke-linejoin="round"/>
</g>
<path d="M71.9718 137.004C71.1928 137.004 70.5064 136.831 69.9126 136.483C69.3265 136.129 68.8637 135.639 68.5244 135.014C68.1927 134.382 68.0269 133.649 68.0269 132.816C68.0269 131.991 68.1927 131.266 68.5244 130.641C68.8637 130.009 69.3265 129.515 69.9126 129.161C70.5064 128.806 71.1928 128.628 71.9718 128.628C72.7662 128.628 73.4603 128.806 74.0541 129.161C74.648 129.515 75.1069 130.009 75.4308 130.641C75.7624 131.266 75.9282 131.991 75.9282 132.816C75.9282 133.649 75.7624 134.382 75.4308 135.014C75.1069 135.639 74.648 136.129 74.0541 136.483C73.4603 136.831 72.7662 137.004 71.9718 137.004ZM71.9834 135.974C72.5387 135.974 73.0245 135.847 73.441 135.593C73.8575 135.338 74.1775 134.976 74.4012 134.505C74.6326 134.035 74.7482 133.472 74.7482 132.816C74.7482 132.161 74.6326 131.598 74.4012 131.127C74.1775 130.657 73.8575 130.298 73.441 130.051C73.0245 129.797 72.5387 129.67 71.9834 129.67C71.4281 129.67 70.9422 129.797 70.5257 130.051C70.1093 130.298 69.7853 130.657 69.554 131.127C69.3226 131.598 69.2069 132.161 69.2069 132.816C69.2069 133.472 69.3226 134.035 69.554 134.505C69.7853 134.976 70.1093 135.338 70.5257 135.593C70.9422 135.847 71.4281 135.974 71.9834 135.974ZM77.3783 139.41V131.035H78.4195L78.5351 131.937C78.6585 131.76 78.8128 131.594 78.9979 131.44C79.183 131.278 79.4028 131.147 79.6573 131.046C79.9195 130.946 80.2241 130.896 80.5712 130.896C81.1265 130.896 81.6124 131.031 82.0288 131.301C82.453 131.571 82.7808 131.937 83.0122 132.4C83.2513 132.855 83.3708 133.375 83.3708 133.962C83.3708 134.548 83.2513 135.072 83.0122 135.535C82.7731 135.99 82.4415 136.349 82.0173 136.611C81.6008 136.873 81.1149 137.004 80.5596 137.004C80.1046 137.004 79.7036 136.915 79.3565 136.738C79.0094 136.553 78.7357 136.298 78.5351 135.974V139.41H77.3783ZM80.3745 135.998C80.7293 135.998 81.0417 135.913 81.3116 135.743C81.5892 135.573 81.8052 135.334 81.9594 135.026C82.1214 134.717 82.2024 134.359 82.2024 133.95C82.2024 133.541 82.1214 133.186 81.9594 132.886C81.8052 132.577 81.5892 132.338 81.3116 132.168C81.0417 131.991 80.7293 131.902 80.3745 131.902C80.0121 131.902 79.692 131.991 79.4143 132.168C79.1444 132.338 78.9323 132.577 78.7781 132.886C78.6238 133.186 78.5467 133.541 78.5467 133.95C78.5467 134.359 78.6238 134.717 78.7781 135.026C78.9323 135.334 79.1444 135.573 79.4143 135.743C79.692 135.913 80.0121 135.998 80.3745 135.998ZM87.4749 137.004C86.9196 137.004 86.426 136.877 85.9941 136.622C85.5622 136.368 85.2229 136.013 84.9761 135.558C84.737 135.103 84.6175 134.575 84.6175 133.973C84.6175 133.356 84.737 132.82 84.9761 132.365C85.2229 131.902 85.5622 131.544 85.9941 131.289C86.426 131.027 86.9273 130.896 87.4981 130.896C88.0688 130.896 88.5585 131.023 88.9673 131.278C89.376 131.532 89.6922 131.871 89.9159 132.296C90.1395 132.712 90.2514 133.175 90.2514 133.684C90.2514 133.761 90.2475 133.846 90.2398 133.938C90.2398 134.023 90.2359 134.12 90.2282 134.228H85.462V133.406H89.0945C89.0714 132.92 88.9094 132.542 88.6086 132.273C88.3079 131.995 87.9338 131.856 87.4865 131.856C87.1703 131.856 86.8811 131.929 86.6188 132.076C86.3566 132.215 86.1445 132.423 85.9826 132.701C85.8283 132.97 85.7512 133.314 85.7512 133.73V134.054C85.7512 134.486 85.8283 134.852 85.9826 135.153C86.1445 135.446 86.3566 135.67 86.6188 135.824C86.8811 135.971 87.1664 136.044 87.4749 136.044C87.8451 136.044 88.1497 135.963 88.3888 135.801C88.6279 135.639 88.8053 135.419 88.921 135.142H90.0778C89.9776 135.496 89.8079 135.816 89.5688 136.102C89.3297 136.379 89.0328 136.599 88.678 136.761C88.331 136.923 87.9299 137.004 87.4749 137.004ZM91.6523 136.865V131.035H92.6935L92.7629 132.03C92.948 131.683 93.2102 131.409 93.5496 131.208C93.8889 131 94.2784 130.896 94.718 130.896C95.1807 130.896 95.5779 130.988 95.9096 131.174C96.2412 131.359 96.4996 131.64 96.6847 132.018C96.8698 132.388 96.9623 132.855 96.9623 133.418V136.865H95.8054V133.533C95.8054 132.994 95.6859 132.585 95.4468 132.307C95.2077 132.03 94.8607 131.891 94.4057 131.891C94.1049 131.891 93.8349 131.964 93.5959 132.111C93.3568 132.249 93.164 132.458 93.0174 132.735C92.8786 133.013 92.8092 133.352 92.8092 133.753V136.865H91.6523Z" fill="#9F1818"/>
</g>
<path d="M330.072 139.149V135.293" stroke="#E3C100" stroke-width="1.15685" stroke-linecap="round" stroke-linejoin="round"/>
<path d="M333.928 139.149V131.437" stroke="#E3C100" stroke-width="1.15685" stroke-linecap="round" stroke-linejoin="round"/>
<path d="M337.784 139.149V127.581" stroke="#E3C100" stroke-width="1.15685" stroke-linecap="round" stroke-linejoin="round"/>
<path d="M349.037 137.004C348.45 137.004 347.93 136.9 347.475 136.692C347.02 136.483 346.665 136.187 346.411 135.801C346.156 135.415 346.025 134.956 346.017 134.424H347.486C347.486 134.694 347.548 134.937 347.672 135.153C347.803 135.361 347.98 135.527 348.204 135.651C348.435 135.774 348.713 135.836 349.037 135.836C349.314 135.836 349.553 135.793 349.754 135.708C349.962 135.616 350.12 135.489 350.228 135.327C350.344 135.157 350.402 134.96 350.402 134.737C350.402 134.482 350.34 134.274 350.217 134.112C350.101 133.942 349.939 133.8 349.731 133.684C349.522 133.568 349.283 133.468 349.013 133.383C348.744 133.291 348.458 133.194 348.157 133.094C347.517 132.878 347.035 132.604 346.711 132.273C346.387 131.933 346.225 131.482 346.225 130.919C346.225 130.449 346.337 130.044 346.561 129.704C346.785 129.365 347.097 129.103 347.498 128.918C347.907 128.725 348.377 128.628 348.909 128.628C349.449 128.628 349.92 128.725 350.321 128.918C350.729 129.11 351.05 129.38 351.281 129.727C351.52 130.067 351.643 130.476 351.651 130.954H350.17C350.163 130.753 350.109 130.568 350.008 130.398C349.908 130.221 349.762 130.078 349.569 129.97C349.384 129.855 349.156 129.797 348.886 129.797C348.655 129.789 348.447 129.828 348.262 129.913C348.084 129.99 347.941 130.105 347.833 130.26C347.733 130.406 347.683 130.591 347.683 130.815C347.683 131.031 347.729 131.212 347.822 131.359C347.922 131.497 348.065 131.617 348.25 131.717C348.435 131.81 348.651 131.898 348.898 131.983C349.145 132.068 349.415 132.161 349.708 132.261C350.109 132.392 350.471 132.554 350.795 132.747C351.127 132.932 351.389 133.175 351.582 133.476C351.774 133.776 351.871 134.166 351.871 134.644C351.871 135.061 351.763 135.45 351.547 135.812C351.331 136.167 351.015 136.456 350.598 136.68C350.182 136.896 349.661 137.004 349.037 137.004ZM355.824 136.865C355.43 136.865 355.087 136.804 354.794 136.68C354.509 136.557 354.285 136.352 354.123 136.067C353.961 135.782 353.88 135.396 353.88 134.91V132.203H352.885V131.035H353.88L354.042 129.496H355.268V131.035H356.853V132.203H355.268V134.91C355.268 135.203 355.33 135.408 355.453 135.523C355.585 135.631 355.8 135.685 356.101 135.685H356.819V136.865H355.824ZM360.219 137.004C359.74 137.004 359.343 136.923 359.027 136.761C358.711 136.599 358.476 136.383 358.321 136.113C358.167 135.843 358.09 135.55 358.09 135.234C358.09 134.864 358.182 134.544 358.368 134.274C358.56 134.004 358.842 133.796 359.212 133.649C359.582 133.495 360.037 133.418 360.577 133.418H362.046C362.046 133.109 362.004 132.855 361.919 132.654C361.834 132.446 361.703 132.292 361.526 132.192C361.348 132.091 361.121 132.041 360.843 132.041C360.527 132.041 360.257 132.114 360.033 132.261C359.81 132.4 359.671 132.616 359.617 132.909H358.252C358.298 132.492 358.437 132.138 358.668 131.844C358.9 131.544 359.204 131.312 359.582 131.15C359.968 130.981 360.388 130.896 360.843 130.896C361.391 130.896 361.857 130.992 362.243 131.185C362.629 131.37 362.922 131.64 363.122 131.995C363.33 132.342 363.435 132.762 363.435 133.256V136.865H362.255L362.116 135.928C362.039 136.082 361.938 136.225 361.815 136.356C361.699 136.487 361.564 136.603 361.41 136.703C361.256 136.796 361.078 136.869 360.878 136.923C360.685 136.977 360.465 137.004 360.219 137.004ZM360.531 135.905C360.755 135.905 360.951 135.866 361.121 135.789C361.298 135.705 361.449 135.589 361.572 135.442C361.703 135.288 361.803 135.118 361.873 134.933C361.942 134.748 361.988 134.552 362.012 134.343V134.32H360.728C360.458 134.32 360.234 134.355 360.057 134.424C359.879 134.486 359.752 134.579 359.675 134.702C359.598 134.825 359.559 134.968 359.559 135.13C359.559 135.292 359.598 135.431 359.675 135.546C359.752 135.662 359.864 135.751 360.01 135.812C360.157 135.874 360.33 135.905 360.531 135.905ZM365.034 136.865V131.035H366.26L366.364 132.006C366.541 131.667 366.796 131.397 367.127 131.197C367.459 130.996 367.852 130.896 368.307 130.896C368.778 130.896 369.179 130.996 369.511 131.197C369.842 131.389 370.097 131.675 370.274 132.053C370.459 132.431 370.552 132.901 370.552 133.464V136.865H369.164V133.591C369.164 133.105 369.056 132.731 368.84 132.469C368.624 132.207 368.304 132.076 367.879 132.076C367.602 132.076 367.351 132.141 367.127 132.273C366.912 132.404 366.738 132.596 366.607 132.851C366.483 133.098 366.422 133.399 366.422 133.753V136.865H365.034ZM374.722 137.004C374.183 137.004 373.701 136.873 373.276 136.611C372.852 136.349 372.521 135.986 372.281 135.523C372.05 135.061 371.934 134.536 371.934 133.95C371.934 133.364 372.054 132.843 372.293 132.388C372.532 131.925 372.864 131.563 373.288 131.301C373.72 131.031 374.206 130.896 374.746 130.896C375.185 130.896 375.567 130.981 375.891 131.15C376.222 131.312 376.485 131.544 376.677 131.844V128.536H378.066V136.865H376.816L376.677 136.021C376.554 136.19 376.404 136.352 376.226 136.507C376.049 136.653 375.837 136.773 375.59 136.865C375.343 136.958 375.054 137.004 374.722 137.004ZM375.012 135.801C375.343 135.801 375.636 135.724 375.891 135.57C376.145 135.408 376.342 135.188 376.481 134.91C376.62 134.633 376.689 134.312 376.689 133.95C376.689 133.587 376.62 133.267 376.481 132.99C376.342 132.712 376.145 132.496 375.891 132.342C375.636 132.188 375.343 132.111 375.012 132.111C374.695 132.111 374.41 132.188 374.156 132.342C373.901 132.496 373.701 132.712 373.554 132.99C373.415 133.267 373.346 133.587 373.346 133.95C373.346 134.312 373.415 134.633 373.554 134.91C373.701 135.188 373.901 135.408 374.156 135.57C374.41 135.724 374.695 135.801 375.012 135.801ZM381.669 137.004C381.191 137.004 380.794 136.923 380.478 136.761C380.161 136.599 379.926 136.383 379.772 136.113C379.618 135.843 379.541 135.55 379.541 135.234C379.541 134.864 379.633 134.544 379.818 134.274C380.011 134.004 380.292 133.796 380.663 133.649C381.033 133.495 381.488 133.418 382.028 133.418H383.497C383.497 133.109 383.455 132.855 383.37 132.654C383.285 132.446 383.154 132.292 382.976 132.192C382.799 132.091 382.571 132.041 382.294 132.041C381.978 132.041 381.708 132.114 381.484 132.261C381.26 132.4 381.122 132.616 381.068 132.909H379.702C379.749 132.492 379.888 132.138 380.119 131.844C380.35 131.544 380.655 131.312 381.033 131.15C381.418 130.981 381.839 130.896 382.294 130.896C382.841 130.896 383.308 130.992 383.694 131.185C384.079 131.37 384.372 131.64 384.573 131.995C384.781 132.342 384.885 132.762 384.885 133.256V136.865H383.705L383.566 135.928C383.489 136.082 383.389 136.225 383.266 136.356C383.15 136.487 383.015 136.603 382.861 136.703C382.706 136.796 382.529 136.869 382.329 136.923C382.136 136.977 381.916 137.004 381.669 137.004ZM381.981 135.905C382.205 135.905 382.402 135.866 382.571 135.789C382.749 135.705 382.899 135.589 383.023 135.442C383.154 135.288 383.254 135.118 383.323 134.933C383.393 134.748 383.439 134.552 383.462 134.343V134.32H382.178C381.908 134.32 381.685 134.355 381.507 134.424C381.33 134.486 381.203 134.579 381.125 134.702C381.048 134.825 381.01 134.968 381.01 135.13C381.01 135.292 381.048 135.431 381.125 135.546C381.203 135.662 381.314 135.751 381.461 135.812C381.607 135.874 381.781 135.905 381.981 135.905ZM386.484 136.865V131.035H387.722L387.849 132.122C387.988 131.868 388.162 131.652 388.37 131.474C388.578 131.289 388.821 131.147 389.099 131.046C389.384 130.946 389.696 130.896 390.036 130.896V132.365H389.55C389.318 132.365 389.099 132.396 388.89 132.458C388.682 132.512 388.501 132.604 388.347 132.735C388.2 132.859 388.084 133.032 388 133.256C387.915 133.472 387.872 133.746 387.872 134.077V136.865H386.484ZM393.665 137.004C393.125 137.004 392.643 136.873 392.219 136.611C391.795 136.349 391.463 135.986 391.224 135.523C390.993 135.061 390.877 134.536 390.877 133.95C390.877 133.364 390.997 132.843 391.236 132.388C391.475 131.925 391.806 131.563 392.23 131.301C392.662 131.031 393.148 130.896 393.688 130.896C394.128 130.896 394.509 130.981 394.833 131.15C395.165 131.312 395.427 131.544 395.62 131.844V128.536H397.008V136.865H395.759L395.62 136.021C395.497 136.19 395.346 136.352 395.169 136.507C394.992 136.653 394.779 136.773 394.533 136.865C394.286 136.958 393.997 137.004 393.665 137.004ZM393.954 135.801C394.286 135.801 394.579 135.724 394.833 135.57C395.088 135.408 395.285 135.188 395.423 134.91C395.562 134.633 395.632 134.312 395.632 133.95C395.632 133.587 395.562 133.267 395.423 132.99C395.285 132.712 395.088 132.496 394.833 132.342C394.579 132.188 394.286 132.111 393.954 132.111C393.638 132.111 393.353 132.188 393.098 132.342C392.844 132.496 392.643 132.712 392.497 132.99C392.358 133.267 392.288 133.587 392.288 133.95C392.288 134.312 392.358 134.633 392.497 134.91C392.643 135.188 392.844 135.408 393.098 135.57C393.353 135.724 393.638 135.801 393.954 135.801Z" fill="#E3C100"/>
</g>
</g>
<defs>
<filter id="filter0_ddd_33_439" x="3.8147e-06" y="2.38419e-07" width="442.843" height="190.996" filterUnits="userSpaceOnUse" color-interpolation-filters="sRGB">
<feFlood flood-opacity="0" result="BackgroundImageFix"/>
<feColorMatrix in="SourceAlpha" type="matrix" values="0 0 0 0 0 0 0 0 0 0 0 0 0 0 0 0 0 0 127 0" result="hardAlpha"/>
<feOffset dy="3.85618"/>
<feGaussianBlur stdDeviation="14.4607"/>
<feComposite in2="hardAlpha" operator="out"/>
<feColorMatrix type="matrix" values="0 0 0 0 0 0 0 0 0 0 0 0 0 0 0 0 0 0 0.04 0"/>
<feBlend mode="normal" in2="BackgroundImageFix" result="effect1_dropShadow_33_439"/>
<feColorMatrix in="SourceAlpha" type="matrix" values="0 0 0 0 0 0 0 0 0 0 0 0 0 0 0 0 0 0 127 0" result="hardAlpha"/>
<feMorphology radius="0.420805" operator="dilate" in="SourceAlpha" result="effect2_dropShadow_33_439"/>
<feOffset/>
<feComposite in2="hardAlpha" operator="out"/>
<feColorMatrix type="matrix" values="0 0 0 0 0.870588 0 0 0 0 0.870588 0 0 0 0 0.870588 0 0 0 1 0"/>
<feBlend mode="normal" in2="effect1_dropShadow_33_439" result="effect2_dropShadow_33_439"/>
<feColorMatrix in="SourceAlpha" type="matrix" values="0 0 0 0 0 0 0 0 0 0 0 0 0 0 0 0 0 0 127 0" result="hardAlpha"/>
<feOffset dy="3.36644"/>
<feGaussianBlur stdDeviation="5.04966"/>
<feComposite in2="hardAlpha" operator="out"/>
<feColorMatrix type="matrix" values="0 0 0 0 0 0 0 0 0 0 0 0 0 0 0 0 0 0 0.05 0"/>
<feBlend mode="normal" in2="effect2_dropShadow_33_439" result="effect3_dropShadow_33_439"/>
<feBlend mode="normal" in="SourceGraphic" in2="effect3_dropShadow_33_439" result="shape"/>
</filter>
<clipPath id="clip0_33_439">
<rect x="28.9214" y="25.0652" width="385" height="133.153" rx="15.4247" fill="white"/>
</clipPath>
<clipPath id="clip1_33_439">
<rect x="50.1304" y="125.865" width="48.3528" height="15" rx="7.5" fill="white"/>
</clipPath>
<clipPath id="clip2_33_439">
<rect width="13.4966" height="13.4966" fill="white" transform="translate(50.1304 126.617)"/>
</clipPath>
</defs>
</svg>
