<svg width="450" height="198" viewBox="0 0 450 198" fill="none" xmlns="http://www.w3.org/2000/svg">
<g filter="url(#filter0_d_33_440)">
<g clip-path="url(#clip0_33_440)">
<rect width="385" height="76.3742" transform="translate(32.1584 27.8706)" fill="white"/>
<path d="M52.9456 59.8779L49.7554 47.8721H51.9508L54.1976 57.5282L56.8046 47.8721H59.0857L61.6069 57.5454L63.8708 47.8721H66.0833L62.8075 59.8779H60.372L57.9022 50.7878L55.3639 59.8779H52.9456ZM70.8032 60.0837C69.9457 60.0837 69.191 59.9008 68.5393 59.5349C67.8875 59.1576 67.3787 58.6316 67.0128 57.957C66.6469 57.2824 66.464 56.5049 66.464 55.6244C66.464 54.7097 66.6412 53.9093 66.9957 53.2233C67.3616 52.5372 67.8704 51.9998 68.5221 51.6111C69.1853 51.2223 69.9514 51.0279 70.8204 51.0279C71.6665 51.0279 72.404 51.2166 73.0329 51.5939C73.6618 51.9713 74.1477 52.4801 74.4907 53.1204C74.8337 53.7493 75.0053 54.4582 75.0053 55.2471C75.0053 55.3615 75.0053 55.4872 75.0053 55.6244C75.0053 55.7617 74.9938 55.9046 74.971 56.0532H67.939V54.7326H72.93C72.9071 54.1037 72.6956 53.612 72.2954 53.2576C71.8952 52.8917 71.3978 52.7088 70.8032 52.7088C70.3802 52.7088 69.9914 52.8059 69.637 53.0003C69.2825 53.1947 69.0024 53.4863 68.7965 53.875C68.5907 54.2524 68.4878 54.7326 68.4878 55.3157V55.8131C68.4878 56.3505 68.585 56.8136 68.7794 57.2024C68.9852 57.5911 69.2596 57.8884 69.6027 58.0942C69.9571 58.2886 70.3516 58.3858 70.7861 58.3858C71.2663 58.3858 71.6608 58.2829 71.9695 58.0771C72.2897 57.8712 72.5241 57.5968 72.6727 57.2538H74.7651C74.6051 57.7912 74.3421 58.2772 73.9762 58.7117C73.6103 59.1347 73.1587 59.472 72.6213 59.7236C72.0838 59.9637 71.4778 60.0837 70.8032 60.0837ZM81.8451 60.0837C81.3877 60.0837 80.9761 60.0209 80.6102 59.8951C80.2443 59.7807 79.9242 59.6207 79.6497 59.4148C79.3753 59.1976 79.1466 58.9518 78.9637 58.6774L78.7407 59.8779H76.9056V47.5291H78.9637V52.5029C79.2381 52.0799 79.6097 51.7311 80.0785 51.4567C80.5473 51.1709 81.1304 51.0279 81.8279 51.0279C82.6397 51.0279 83.3544 51.228 83.9718 51.6282C84.6007 52.017 85.0924 52.5544 85.4468 53.2404C85.8127 53.9151 85.9957 54.6926 85.9957 55.573C85.9957 56.4306 85.8184 57.2024 85.464 57.8884C85.1095 58.5744 84.6178 59.1118 83.989 59.5006C83.3715 59.8894 82.6569 60.0837 81.8451 60.0837ZM81.4163 58.3C81.8965 58.3 82.3253 58.1857 82.7026 57.957C83.08 57.7169 83.3715 57.3967 83.5773 56.9965C83.7946 56.5849 83.9032 56.1047 83.9032 55.5558C83.9032 55.0184 83.7946 54.5439 83.5773 54.1323C83.3715 53.7207 83.08 53.4005 82.7026 53.1718C82.3253 52.9432 81.8965 52.8288 81.4163 52.8288C80.9246 52.8288 80.4901 52.9432 80.1128 53.1718C79.7469 53.4005 79.4554 53.7207 79.2381 54.1323C79.0323 54.5439 78.9294 55.0184 78.9294 55.5558C78.9294 56.1047 79.0323 56.5849 79.2381 56.9965C79.4554 57.3967 79.7469 57.7169 80.1128 57.957C80.4901 58.1857 80.9246 58.3 81.4163 58.3ZM96.0226 60.0837C95.2222 60.0837 94.5076 59.8894 93.8787 59.5006C93.2499 59.1118 92.7582 58.5744 92.4037 57.8884C92.0607 57.2024 91.8892 56.4248 91.8892 55.5558C91.8892 54.6869 92.0664 53.9151 92.4209 53.2404C92.7754 52.5544 93.267 52.017 93.8959 51.6282C94.5362 51.228 95.2566 51.0279 96.0569 51.0279C96.7087 51.0279 97.2747 51.1537 97.7549 51.4053C98.2466 51.6454 98.6353 51.9884 98.9212 52.4343V47.5291H100.979V59.8779H99.127L98.9212 58.6259C98.7382 58.8774 98.5153 59.1176 98.2523 59.3462C97.9893 59.5635 97.6749 59.7407 97.309 59.8779C96.9431 60.0151 96.5143 60.0837 96.0226 60.0837ZM96.4514 58.3C96.9431 58.3 97.3776 58.1857 97.7549 57.957C98.1322 57.7169 98.4238 57.391 98.6296 56.9794C98.8354 56.5678 98.9383 56.0932 98.9383 55.5558C98.9383 55.0184 98.8354 54.5439 98.6296 54.1323C98.4238 53.7207 98.1322 53.4005 97.7549 53.1718C97.3776 52.9432 96.9431 52.8288 96.4514 52.8288C95.9826 52.8288 95.5596 52.9432 95.1822 53.1718C94.8049 53.4005 94.5076 53.7207 94.2904 54.1323C94.0846 54.5439 93.9816 55.0184 93.9816 55.5558C93.9816 56.0932 94.0846 56.5678 94.2904 56.9794C94.5076 57.391 94.8049 57.7169 95.1822 57.957C95.5596 58.1857 95.9826 58.3 96.4514 58.3ZM106.15 60.0837C105.441 60.0837 104.852 59.9637 104.384 59.7236C103.915 59.4835 103.566 59.1633 103.337 58.7631C103.109 58.3629 102.994 57.9284 102.994 57.4596C102.994 56.9108 103.132 56.4363 103.406 56.0361C103.692 55.6359 104.109 55.3272 104.658 55.1099C105.207 54.8812 105.881 54.7669 106.682 54.7669H108.86C108.86 54.3095 108.797 53.9322 108.671 53.6349C108.546 53.3262 108.351 53.0975 108.088 52.9489C107.825 52.8002 107.488 52.7259 107.076 52.7259C106.607 52.7259 106.207 52.8345 105.876 53.0518C105.544 53.2576 105.338 53.5777 105.258 54.0122H103.234C103.303 53.3948 103.509 52.8688 103.852 52.4343C104.195 51.9884 104.647 51.6454 105.207 51.4053C105.779 51.1537 106.402 51.0279 107.076 51.0279C107.888 51.0279 108.58 51.1709 109.152 51.4567C109.723 51.7311 110.158 52.1313 110.455 52.6573C110.764 53.1718 110.918 53.795 110.918 54.5268V59.8779H109.169L108.963 58.4887C108.849 58.7174 108.7 58.9289 108.517 59.1233C108.345 59.3177 108.145 59.4892 107.917 59.6378C107.688 59.775 107.425 59.8836 107.128 59.9637C106.842 60.0437 106.516 60.0837 106.15 60.0837ZM106.613 58.4544C106.945 58.4544 107.236 58.3972 107.488 58.2829C107.751 58.1571 107.974 57.9856 108.157 57.7683C108.351 57.5397 108.5 57.2881 108.603 57.0137C108.706 56.7393 108.774 56.4477 108.809 56.139V56.1047H106.905C106.505 56.1047 106.173 56.1561 105.91 56.259C105.647 56.3505 105.458 56.4877 105.344 56.6707C105.23 56.8536 105.172 57.0651 105.172 57.3053C105.172 57.5454 105.23 57.7512 105.344 57.9227C105.458 58.0942 105.624 58.2257 105.841 58.3172C106.059 58.4086 106.316 58.4544 106.613 58.4544ZM116.565 60.0837C115.799 60.0837 115.13 59.9637 114.558 59.7236C113.998 59.472 113.552 59.129 113.22 58.6945C112.9 58.2486 112.711 57.7398 112.654 57.1681H114.712C114.769 57.4082 114.872 57.6311 115.021 57.8369C115.17 58.0313 115.37 58.1857 115.621 58.3C115.884 58.4144 116.193 58.4715 116.547 58.4715C116.89 58.4715 117.171 58.4258 117.388 58.3343C117.605 58.2314 117.765 58.0999 117.868 57.9399C117.971 57.7798 118.022 57.6083 118.022 57.4253C118.022 57.1509 117.948 56.9394 117.799 56.7907C117.651 56.6421 117.434 56.5277 117.148 56.4477C116.873 56.3562 116.542 56.2705 116.153 56.1904C115.741 56.1104 115.341 56.0132 114.952 55.8989C114.575 55.7731 114.232 55.6187 113.923 55.4358C113.626 55.2528 113.386 55.0184 113.203 54.7326C113.031 54.4467 112.946 54.098 112.946 53.6864C112.946 53.1833 113.077 52.7316 113.34 52.3314C113.615 51.9312 114.003 51.6168 114.506 51.3881C115.021 51.148 115.633 51.0279 116.342 51.0279C117.348 51.0279 118.148 51.2623 118.743 51.7311C119.349 52.1885 119.703 52.8345 119.806 53.6692H117.851C117.794 53.3491 117.634 53.1032 117.371 52.9317C117.108 52.7488 116.759 52.6573 116.324 52.6573C115.879 52.6573 115.536 52.7431 115.295 52.9146C115.067 53.0746 114.952 53.2919 114.952 53.5663C114.952 53.7378 115.021 53.8979 115.158 54.0465C115.307 54.1838 115.518 54.3038 115.793 54.4067C116.067 54.4982 116.405 54.5897 116.805 54.6811C117.445 54.8069 118.011 54.9556 118.503 55.1271C118.994 55.2986 119.383 55.5501 119.669 55.8817C119.955 56.2133 120.098 56.6821 120.098 57.2881C120.109 57.8369 119.966 58.3229 119.669 58.746C119.383 59.169 118.977 59.5006 118.451 59.7407C117.925 59.9694 117.296 60.0837 116.565 60.0837ZM122.095 59.8779V47.5291H124.153V52.5715C124.439 52.1027 124.828 51.7311 125.319 51.4567C125.811 51.1709 126.365 51.0279 126.983 51.0279C127.692 51.0279 128.292 51.1766 128.784 51.4739C129.275 51.7597 129.647 52.1885 129.899 52.7602C130.162 53.3205 130.293 54.0237 130.293 54.8698V59.8779H128.252V55.0585C128.252 54.3152 128.092 53.7493 127.772 53.3605C127.463 52.9717 126.989 52.7774 126.348 52.7774C125.937 52.7774 125.565 52.8803 125.233 53.0861C124.902 53.2805 124.639 53.5663 124.444 53.9436C124.25 54.3095 124.153 54.7612 124.153 55.2986V59.8779H122.095ZM137.419 60.0837C136.961 60.0837 136.55 60.0209 136.184 59.8951C135.818 59.7807 135.498 59.6207 135.223 59.4148C134.949 59.1976 134.72 58.9518 134.537 58.6774L134.314 59.8779H132.479V47.5291H134.537V52.5029C134.812 52.0799 135.183 51.7311 135.652 51.4567C136.121 51.1709 136.704 51.0279 137.402 51.0279C138.213 51.0279 138.928 51.228 139.546 51.6282C140.174 52.017 140.666 52.5544 141.021 53.2404C141.386 53.9151 141.569 54.6926 141.569 55.573C141.569 56.4306 141.392 57.2024 141.038 57.8884C140.683 58.5744 140.192 59.1118 139.563 59.5006C138.945 59.8894 138.231 60.0837 137.419 60.0837ZM136.99 58.3C137.47 58.3 137.899 58.1857 138.276 57.957C138.654 57.7169 138.945 57.3967 139.151 56.9965C139.368 56.5849 139.477 56.1047 139.477 55.5558C139.477 55.0184 139.368 54.5439 139.151 54.1323C138.945 53.7207 138.654 53.4005 138.276 53.1718C137.899 52.9432 137.47 52.8288 136.99 52.8288C136.498 52.8288 136.064 52.9432 135.687 53.1718C135.321 53.4005 135.029 53.7207 134.812 54.1323C134.606 54.5439 134.503 55.0184 134.503 55.5558C134.503 56.1047 134.606 56.5849 134.812 56.9965C135.029 57.3967 135.321 57.7169 135.687 57.957C136.064 58.1857 136.498 58.3 136.99 58.3ZM147.598 60.0837C146.774 60.0837 146.031 59.8951 145.368 59.5178C144.716 59.129 144.202 58.5973 143.824 57.9227C143.459 57.2367 143.276 56.4534 143.276 55.573C143.276 54.6697 143.464 53.8807 143.842 53.2061C144.219 52.5201 144.733 51.9884 145.385 51.6111C146.048 51.2223 146.792 51.0279 147.615 51.0279C148.438 51.0279 149.176 51.2223 149.827 51.6111C150.491 51.9884 151.005 52.5144 151.371 53.189C151.748 53.8636 151.937 54.6526 151.937 55.5558C151.937 56.4591 151.748 57.2481 151.371 57.9227C150.994 58.5973 150.473 59.129 149.81 59.5178C149.158 59.8951 148.421 60.0837 147.598 60.0837ZM147.598 58.3172C148.009 58.3172 148.381 58.2143 148.713 58.0085C149.056 57.8026 149.33 57.4939 149.536 57.0823C149.742 56.6707 149.845 56.1619 149.845 55.5558C149.845 54.9498 149.742 54.4467 149.536 54.0465C149.341 53.6349 149.073 53.3262 148.73 53.1204C148.398 52.9146 148.026 52.8117 147.615 52.8117C147.215 52.8117 146.843 52.9146 146.5 53.1204C146.157 53.3262 145.883 53.6349 145.677 54.0465C145.471 54.4467 145.368 54.9498 145.368 55.5558C145.368 56.1619 145.471 56.6707 145.677 57.0823C145.883 57.4939 146.151 57.8026 146.483 58.0085C146.826 58.2143 147.198 58.3172 147.598 58.3172ZM156.833 60.0837C156.124 60.0837 155.535 59.9637 155.066 59.7236C154.598 59.4835 154.249 59.1633 154.02 58.7631C153.792 58.3629 153.677 57.9284 153.677 57.4596C153.677 56.9108 153.814 56.4363 154.089 56.0361C154.375 55.6359 154.792 55.3272 155.341 55.1099C155.89 54.8812 156.564 54.7669 157.365 54.7669H159.543C159.543 54.3095 159.48 53.9322 159.354 53.6349C159.228 53.3262 159.034 53.0975 158.771 52.9489C158.508 52.8002 158.171 52.7259 157.759 52.7259C157.29 52.7259 156.89 52.8345 156.559 53.0518C156.227 53.2576 156.021 53.5777 155.941 54.0122H153.917C153.986 53.3948 154.192 52.8688 154.535 52.4343C154.878 51.9884 155.329 51.6454 155.89 51.4053C156.461 51.1537 157.085 51.0279 157.759 51.0279C158.571 51.0279 159.263 51.1709 159.835 51.4567C160.406 51.7311 160.841 52.1313 161.138 52.6573C161.447 53.1718 161.601 53.795 161.601 54.5268V59.8779H159.852L159.646 58.4887C159.531 58.7174 159.383 58.9289 159.2 59.1233C159.028 59.3177 158.828 59.4892 158.6 59.6378C158.371 59.775 158.108 59.8836 157.811 59.9637C157.525 60.0437 157.199 60.0837 156.833 60.0837ZM157.296 58.4544C157.628 58.4544 157.919 58.3972 158.171 58.2829C158.434 58.1571 158.657 57.9856 158.84 57.7683C159.034 57.5397 159.183 57.2881 159.286 57.0137C159.389 56.7393 159.457 56.4477 159.491 56.139V56.1047H157.588C157.188 56.1047 156.856 56.1561 156.593 56.259C156.33 56.3505 156.141 56.4877 156.027 56.6707C155.913 56.8536 155.855 57.0651 155.855 57.3053C155.855 57.5454 155.913 57.7512 156.027 57.9227C156.141 58.0942 156.307 58.2257 156.524 58.3172C156.742 58.4086 156.999 58.4544 157.296 58.4544ZM163.8 59.8779V51.2338H165.635L165.824 52.846C166.03 52.4686 166.287 52.1485 166.596 51.8855C166.905 51.6111 167.265 51.3996 167.676 51.2509C168.099 51.1023 168.562 51.0279 169.066 51.0279V53.2061H168.345C168.002 53.2061 167.676 53.2519 167.368 53.3433C167.059 53.4234 166.79 53.5606 166.561 53.755C166.344 53.9379 166.173 54.1952 166.047 54.5268C165.921 54.8469 165.858 55.2528 165.858 55.7445V59.8779H163.8ZM174.275 60.0837C173.474 60.0837 172.76 59.8894 172.131 59.5006C171.502 59.1118 171.01 58.5744 170.656 57.8884C170.313 57.2024 170.141 56.4248 170.141 55.5558C170.141 54.6869 170.318 53.9151 170.673 53.2404C171.027 52.5544 171.519 52.017 172.148 51.6282C172.788 51.228 173.509 51.0279 174.309 51.0279C174.961 51.0279 175.527 51.1537 176.007 51.4053C176.499 51.6454 176.887 51.9884 177.173 52.4343V47.5291H179.231V59.8779H177.379L177.173 58.6259C176.99 58.8774 176.767 59.1176 176.504 59.3462C176.241 59.5635 175.927 59.7407 175.561 59.8779C175.195 60.0151 174.766 60.0837 174.275 60.0837ZM174.703 58.3C175.195 58.3 175.63 58.1857 176.007 57.957C176.384 57.7169 176.676 57.391 176.882 56.9794C177.087 56.5678 177.19 56.0932 177.19 55.5558C177.19 55.0184 177.087 54.5439 176.882 54.1323C176.676 53.7207 176.384 53.4005 176.007 53.1718C175.63 52.9432 175.195 52.8288 174.703 52.8288C174.235 52.8288 173.812 52.9432 173.434 53.1718C173.057 53.4005 172.76 53.7207 172.542 54.1323C172.337 54.5439 172.234 55.0184 172.234 55.5558C172.234 56.0932 172.337 56.5678 172.542 56.9794C172.76 57.391 173.057 57.7169 173.434 57.957C173.812 58.1857 174.235 58.3 174.703 58.3ZM185.708 59.8779V47.5291H187.766V59.8779H185.708ZM194.093 60.0837C193.27 60.0837 192.527 59.8951 191.864 59.5178C191.212 59.129 190.697 58.5973 190.32 57.9227C189.954 57.2367 189.771 56.4534 189.771 55.573C189.771 54.6697 189.96 53.8807 190.337 53.2061C190.715 52.5201 191.229 51.9884 191.881 51.6111C192.544 51.2223 193.287 51.0279 194.111 51.0279C194.934 51.0279 195.671 51.2223 196.323 51.6111C196.986 51.9884 197.501 52.5144 197.867 53.189C198.244 53.8636 198.433 54.6526 198.433 55.5558C198.433 56.4591 198.244 57.2481 197.867 57.9227C197.489 58.5973 196.969 59.129 196.306 59.5178C195.654 59.8951 194.917 60.0837 194.093 60.0837ZM194.093 58.3172C194.505 58.3172 194.877 58.2143 195.208 58.0085C195.551 57.8026 195.826 57.4939 196.031 57.0823C196.237 56.6707 196.34 56.1619 196.34 55.5558C196.34 54.9498 196.237 54.4467 196.031 54.0465C195.837 53.6349 195.568 53.3262 195.225 53.1204C194.894 52.9146 194.522 52.8117 194.111 52.8117C193.71 52.8117 193.339 52.9146 192.996 53.1204C192.653 53.3262 192.378 53.6349 192.172 54.0465C191.967 54.4467 191.864 54.9498 191.864 55.5558C191.864 56.1619 191.967 56.6707 192.172 57.0823C192.378 57.4939 192.647 57.8026 192.979 58.0085C193.322 58.2143 193.693 58.3172 194.093 58.3172ZM203.329 60.0837C202.62 60.0837 202.031 59.9637 201.562 59.7236C201.093 59.4835 200.745 59.1633 200.516 58.7631C200.287 58.3629 200.173 57.9284 200.173 57.4596C200.173 56.9108 200.31 56.4363 200.585 56.0361C200.87 55.6359 201.288 55.3272 201.837 55.1099C202.385 54.8812 203.06 54.7669 203.86 54.7669H206.039C206.039 54.3095 205.976 53.9322 205.85 53.6349C205.724 53.3262 205.53 53.0975 205.267 52.9489C205.004 52.8002 204.666 52.7259 204.255 52.7259C203.786 52.7259 203.386 52.8345 203.054 53.0518C202.723 53.2576 202.517 53.5777 202.437 54.0122H200.413C200.482 53.3948 200.687 52.8688 201.03 52.4343C201.373 51.9884 201.825 51.6454 202.385 51.4053C202.957 51.1537 203.58 51.0279 204.255 51.0279C205.067 51.0279 205.758 51.1709 206.33 51.4567C206.902 51.7311 207.336 52.1313 207.634 52.6573C207.942 53.1718 208.097 53.795 208.097 54.5268V59.8779H206.347L206.141 58.4887C206.027 58.7174 205.879 58.9289 205.696 59.1233C205.524 59.3177 205.324 59.4892 205.095 59.6378C204.867 59.775 204.604 59.8836 204.306 59.9637C204.02 60.0437 203.695 60.0837 203.329 60.0837ZM203.792 58.4544C204.123 58.4544 204.415 58.3972 204.666 58.2829C204.929 58.1571 205.152 57.9856 205.335 57.7683C205.53 57.5397 205.678 57.2881 205.781 57.0137C205.884 56.7393 205.953 56.4477 205.987 56.139V56.1047H204.083C203.683 56.1047 203.352 56.1561 203.089 56.259C202.826 56.3505 202.637 56.4877 202.523 56.6707C202.408 56.8536 202.351 57.0651 202.351 57.3053C202.351 57.5454 202.408 57.7512 202.523 57.9227C202.637 58.0942 202.803 58.2257 203.02 58.3172C203.237 58.4086 203.494 58.4544 203.792 58.4544ZM214.138 60.0837C213.337 60.0837 212.623 59.8894 211.994 59.5006C211.365 59.1118 210.873 58.5744 210.519 57.8884C210.176 57.2024 210.004 56.4248 210.004 55.5558C210.004 54.6869 210.181 53.9151 210.536 53.2404C210.89 52.5544 211.382 52.017 212.011 51.6282C212.651 51.228 213.372 51.0279 214.172 51.0279C214.824 51.0279 215.39 51.1537 215.87 51.4053C216.362 51.6454 216.75 51.9884 217.036 52.4343V47.5291H219.094V59.8779H217.242L217.036 58.6259C216.853 58.8774 216.63 59.1176 216.367 59.3462C216.104 59.5635 215.79 59.7407 215.424 59.8779C215.058 60.0151 214.629 60.0837 214.138 60.0837ZM214.566 58.3C215.058 58.3 215.493 58.1857 215.87 57.957C216.247 57.7169 216.539 57.391 216.745 56.9794C216.95 56.5678 217.053 56.0932 217.053 55.5558C217.053 55.0184 216.95 54.5439 216.745 54.1323C216.539 53.7207 216.247 53.4005 215.87 53.1718C215.493 52.9432 215.058 52.8288 214.566 52.8288C214.098 52.8288 213.675 52.9432 213.297 53.1718C212.92 53.4005 212.623 53.7207 212.405 54.1323C212.2 54.5439 212.097 55.0184 212.097 55.5558C212.097 56.0932 212.2 56.5678 212.405 56.9794C212.623 57.391 212.92 57.7169 213.297 57.957C213.675 58.1857 214.098 58.3 214.566 58.3ZM221.47 59.8779V51.2338H223.528V59.8779H221.47ZM222.499 49.8617C222.121 49.8617 221.807 49.7473 221.555 49.5186C221.315 49.2785 221.195 48.987 221.195 48.6439C221.195 48.2895 221.315 48.0036 221.555 47.7864C221.807 47.5577 222.121 47.4434 222.499 47.4434C222.876 47.4434 223.185 47.5577 223.425 47.7864C223.676 48.0036 223.802 48.2895 223.802 48.6439C223.802 48.987 223.676 49.2785 223.425 49.5186C223.185 49.7473 222.876 49.8617 222.499 49.8617ZM225.906 59.8779V51.2338H227.724L227.878 52.6745C228.141 52.1714 228.519 51.7712 229.01 51.4739C229.502 51.1766 230.085 51.0279 230.76 51.0279C231.457 51.0279 232.052 51.1766 232.544 51.4739C233.035 51.7597 233.413 52.1828 233.675 52.7431C233.95 53.3033 234.087 54.0008 234.087 54.8355V59.8779H232.029V55.0242C232.029 54.3038 231.869 53.7493 231.549 53.3605C231.229 52.9717 230.754 52.7774 230.125 52.7774C229.714 52.7774 229.342 52.8745 229.01 53.0689C228.69 53.2633 228.433 53.5492 228.239 53.9265C228.056 54.2924 227.964 54.7383 227.964 55.2643V59.8779H225.906ZM239.893 63.857C239.081 63.857 238.367 63.7541 237.749 63.5483C237.143 63.3539 236.669 63.0509 236.326 62.6393C235.994 62.2391 235.828 61.736 235.828 61.13C235.828 60.7755 235.914 60.4268 236.085 60.0837C236.268 59.7522 236.537 59.4434 236.892 59.1576C237.257 58.8603 237.721 58.603 238.281 58.3858L239.19 59.3805C238.641 59.5749 238.258 59.8093 238.041 60.0837C237.823 60.3582 237.715 60.6383 237.715 60.9241C237.715 61.2214 237.806 61.4673 237.989 61.6616C238.184 61.8675 238.441 62.0218 238.761 62.1247C239.093 62.2276 239.464 62.2791 239.876 62.2791C240.276 62.2791 240.625 62.2219 240.922 62.1076C241.219 62.0047 241.448 61.856 241.608 61.6616C241.78 61.4673 241.865 61.2329 241.865 60.9585C241.865 60.6154 241.745 60.3353 241.505 60.118C241.265 59.9122 240.791 59.7865 240.082 59.7407C239.476 59.695 238.944 59.6321 238.487 59.5521C238.029 59.4606 237.635 59.3577 237.303 59.2433C236.983 59.129 236.709 59.0032 236.48 58.866C236.251 58.7174 236.063 58.5687 235.914 58.4201V58.0256L237.715 56.139L239.241 56.6364L237.217 58.6087L237.749 57.614C237.863 57.694 237.978 57.7683 238.092 57.8369C238.218 57.9055 238.372 57.9684 238.555 58.0256C238.75 58.0713 239.001 58.1171 239.31 58.1628C239.619 58.2086 240.019 58.2543 240.51 58.3C241.277 58.3572 241.9 58.4944 242.38 58.7117C242.86 58.9289 243.215 59.2205 243.443 59.5864C243.672 59.9523 243.786 60.3925 243.786 60.907C243.786 61.4101 243.643 61.8846 243.358 62.3305C243.083 62.7765 242.66 63.1424 242.088 63.4282C241.517 63.7141 240.785 63.857 239.893 63.857ZM239.893 57.2881C239.173 57.2881 238.55 57.1509 238.024 56.8765C237.509 56.5906 237.115 56.2133 236.84 55.7445C236.566 55.2643 236.429 54.7383 236.429 54.1666C236.429 53.5835 236.566 53.0575 236.84 52.5887C237.115 52.1199 237.509 51.7426 238.024 51.4567C238.55 51.1709 239.173 51.0279 239.893 51.0279C240.613 51.0279 241.231 51.1709 241.745 51.4567C242.26 51.7426 242.654 52.1199 242.929 52.5887C243.203 53.0575 243.34 53.5835 243.34 54.1666C243.34 54.7383 243.203 55.2643 242.929 55.7445C242.654 56.2133 242.26 56.5906 241.745 56.8765C241.231 57.1509 240.613 57.2881 239.893 57.2881ZM239.893 55.6931C240.385 55.6931 240.779 55.5616 241.076 55.2986C241.374 55.0356 241.522 54.6583 241.522 54.1666C241.522 53.6749 241.374 53.3033 241.076 53.0518C240.779 52.7888 240.385 52.6573 239.893 52.6573C239.401 52.6573 239.001 52.7888 238.692 53.0518C238.384 53.3033 238.229 53.6749 238.229 54.1666C238.229 54.6583 238.384 55.0356 238.692 55.2986C239.001 55.5616 239.401 55.6931 239.893 55.6931ZM241.317 52.7431L240.922 51.2338H244.472V52.5201L241.317 52.7431ZM254.525 60.0837C253.667 60.0837 252.912 59.9008 252.261 59.5349C251.609 59.1576 251.1 58.6316 250.734 57.957C250.368 57.2824 250.185 56.5049 250.185 55.6244C250.185 54.7097 250.363 53.9093 250.717 53.2233C251.083 52.5372 251.592 51.9998 252.244 51.6111C252.907 51.2223 253.673 51.0279 254.542 51.0279C255.388 51.0279 256.125 51.2166 256.754 51.5939C257.383 51.9713 257.869 52.4801 258.212 53.1204C258.555 53.7493 258.727 54.4582 258.727 55.2471C258.727 55.3615 258.727 55.4872 258.727 55.6244C258.727 55.7617 258.715 55.9046 258.692 56.0532H251.66V54.7326H256.651C256.629 54.1037 256.417 53.612 256.017 53.2576C255.617 52.8917 255.119 52.7088 254.525 52.7088C254.102 52.7088 253.713 52.8059 253.358 53.0003C253.004 53.1947 252.724 53.4863 252.518 53.875C252.312 54.2524 252.209 54.7326 252.209 55.3157V55.8131C252.209 56.3505 252.306 56.8136 252.501 57.2024C252.707 57.5911 252.981 57.8884 253.324 58.0942C253.679 58.2886 254.073 58.3858 254.508 58.3858C254.988 58.3858 255.382 58.2829 255.691 58.0771C256.011 57.8712 256.246 57.5968 256.394 57.2538H258.487C258.327 57.7912 258.064 58.2772 257.698 58.7117C257.332 59.1347 256.88 59.472 256.343 59.7236C255.805 59.9637 255.199 60.0837 254.525 60.0837ZM260.627 59.8779V51.2338H262.462L262.651 52.846C262.857 52.4686 263.114 52.1485 263.423 51.8855C263.731 51.6111 264.092 51.3996 264.503 51.2509C264.926 51.1023 265.389 51.0279 265.892 51.0279V53.2061H265.172C264.829 53.2061 264.503 53.2519 264.194 53.3433C263.886 53.4234 263.617 53.5606 263.388 53.755C263.171 53.9379 263 54.1952 262.874 54.5268C262.748 54.8469 262.685 55.2528 262.685 55.7445V59.8779H260.627ZM267.444 59.8779V51.2338H269.279L269.468 52.846C269.674 52.4686 269.931 52.1485 270.24 51.8855C270.548 51.6111 270.908 51.3996 271.32 51.2509C271.743 51.1023 272.206 51.0279 272.709 51.0279V53.2061H271.989C271.646 53.2061 271.32 53.2519 271.011 53.3433C270.703 53.4234 270.434 53.5606 270.205 53.755C269.988 53.9379 269.817 54.1952 269.691 54.5268C269.565 54.8469 269.502 55.2528 269.502 55.7445V59.8779H267.444ZM278.107 60.0837C277.284 60.0837 276.541 59.8951 275.877 59.5178C275.226 59.129 274.711 58.5973 274.334 57.9227C273.968 57.2367 273.785 56.4534 273.785 55.573C273.785 54.6697 273.974 53.8807 274.351 53.2061C274.728 52.5201 275.243 51.9884 275.895 51.6111C276.558 51.2223 277.301 51.0279 278.124 51.0279C278.948 51.0279 279.685 51.2223 280.337 51.6111C281 51.9884 281.514 52.5144 281.88 53.189C282.258 53.8636 282.446 54.6526 282.446 55.5558C282.446 56.4591 282.258 57.2481 281.88 57.9227C281.503 58.5973 280.983 59.129 280.32 59.5178C279.668 59.8951 278.93 60.0837 278.107 60.0837ZM278.107 58.3172C278.519 58.3172 278.89 58.2143 279.222 58.0085C279.565 57.8026 279.839 57.4939 280.045 57.0823C280.251 56.6707 280.354 56.1619 280.354 55.5558C280.354 54.9498 280.251 54.4467 280.045 54.0465C279.851 53.6349 279.582 53.3262 279.239 53.1204C278.908 52.9146 278.536 52.8117 278.124 52.8117C277.724 52.8117 277.352 52.9146 277.009 53.1204C276.666 53.3262 276.392 53.6349 276.186 54.0465C275.98 54.4467 275.877 54.9498 275.877 55.5558C275.877 56.1619 275.98 56.6707 276.186 57.0823C276.392 57.4939 276.661 57.8026 276.992 58.0085C277.335 58.2143 277.707 58.3172 278.107 58.3172ZM284.461 59.8779V51.2338H286.296L286.485 52.846C286.691 52.4686 286.948 52.1485 287.257 51.8855C287.565 51.6111 287.926 51.3996 288.337 51.2509C288.76 51.1023 289.223 51.0279 289.726 51.0279V53.2061H289.006C288.663 53.2061 288.337 53.2519 288.029 53.3433C287.72 53.4234 287.451 53.5606 287.222 53.755C287.005 53.9379 286.834 54.1952 286.708 54.5268C286.582 54.8469 286.519 55.2528 286.519 55.7445V59.8779H284.461Z" fill="black"/>
<path d="M50.6053 86.3813V76.0148H56.4618V77.26H51.9373V86.3813H50.6053ZM51.322 81.8496V80.6189H56.1433V81.8496H51.322ZM61.3036 86.6202C60.1743 86.6202 59.2549 86.2486 58.5455 85.5054C57.836 84.7574 57.4813 83.7945 57.4813 82.617C57.4813 81.4828 57.8264 80.5345 58.5165 79.772C59.2115 79.0046 60.1116 78.6209 61.2167 78.6209C62.3026 78.6209 63.1713 78.9491 63.8229 79.6055C64.4744 80.2618 64.8001 81.0847 64.8001 82.074V82.921H58.2414V81.8641H63.4609C63.4319 81.2753 63.2196 80.783 62.8238 80.3873C62.4281 79.9915 61.8924 79.7937 61.2167 79.7937C60.5073 79.7937 59.9258 80.047 59.4721 80.5538C59.0233 81.0605 58.7989 81.7458 58.7989 82.6097C58.7989 83.5026 59.0426 84.1975 59.53 84.6946C60.0175 85.1917 60.6304 85.4403 61.3688 85.4403C61.7066 85.4403 61.9986 85.3968 62.2447 85.3099C62.4908 85.2231 62.7177 85.1024 62.9252 84.948C63.1327 84.7887 63.3644 84.5354 63.6202 84.1879L64.6264 84.8032C64.3417 85.2906 64.0424 85.6526 63.7287 85.8891C63.415 86.1256 63.0676 86.3065 62.6863 86.432C62.305 86.5575 61.8441 86.6202 61.3036 86.6202ZM70.3441 86.6202C69.7746 86.6202 69.2582 86.4948 68.7949 86.2438C68.3365 85.9928 67.9842 85.6767 67.738 85.2955H67.405L67.6946 84.9335V86.3813H66.4277V75.8773H67.7453V80.0109H67.7887C68.0203 79.6151 68.3654 79.2845 68.8239 79.0191C69.2824 78.7536 69.806 78.6209 70.3948 78.6209C71.4083 78.6209 72.2577 78.9877 72.943 79.7213C73.6331 80.45 73.9782 81.4128 73.9782 82.6097C73.9782 83.7873 73.6307 84.7501 72.9358 85.4982C72.2456 86.2462 71.3817 86.6202 70.3441 86.6202ZM70.1631 85.462C70.8774 85.462 71.4686 85.1989 71.9368 84.6729C72.4097 84.142 72.6462 83.4543 72.6462 82.6097C72.6462 81.7652 72.4073 81.0823 71.9295 80.561C71.4566 80.0398 70.8678 79.7792 70.1631 79.7792C69.4778 79.7792 68.8915 80.0398 68.404 80.561C67.9214 81.0823 67.6801 81.7676 67.6801 82.617C67.6801 83.4664 67.9166 84.1541 68.3895 84.6801C68.8673 85.2014 69.4585 85.462 70.1631 85.462ZM81.0078 86.3813V77.8608L79.0822 79.2652L78.3872 78.259L81.4784 76.0148H82.3398V86.3813H81.0078ZM88.4532 86.6202C87.2129 86.6202 86.2211 86.1183 85.4779 85.1145C84.7395 84.1058 84.3703 82.7979 84.3703 81.1908C84.3703 79.5886 84.7395 78.2855 85.4779 77.2817C86.2211 76.2778 87.2129 75.7759 88.4532 75.7759C89.7032 75.7759 90.6998 76.2778 91.443 77.2817C92.1862 78.2855 92.5578 79.5886 92.5578 81.1908C92.5578 82.7979 92.1862 84.1058 91.443 85.1145C90.6998 86.1183 89.7032 86.6202 88.4532 86.6202ZM88.4604 85.3679C89.3436 85.3679 90.0193 84.9866 90.4874 84.2241C90.9556 83.4615 91.1896 82.4505 91.1896 81.1908C91.1896 79.9312 90.9556 78.9226 90.4874 78.1649C90.0193 77.4072 89.3436 77.0283 88.4604 77.0283C87.5773 77.0283 86.9016 77.4072 86.4335 78.1649C85.9702 78.9226 85.7385 79.9312 85.7385 81.1908C85.7385 82.4505 85.9702 83.4615 86.4335 84.2241C86.9016 84.9866 87.5773 85.3679 88.4604 85.3679ZM93.6948 87.6482L94.578 86.3741C94.3946 86.3258 94.2378 86.2221 94.1075 86.0628C93.9772 85.9036 93.912 85.7129 93.912 85.4909C93.912 85.2255 94.0061 84.9987 94.1943 84.8104C94.3826 84.6174 94.6166 84.5209 94.8965 84.5209C95.1716 84.5209 95.4033 84.6174 95.5915 84.8104C95.7846 84.9987 95.8811 85.2255 95.8811 85.4909C95.8811 85.6309 95.8497 85.7781 95.787 85.9325C95.7242 86.0821 95.6108 86.28 95.4467 86.5261L94.3898 88.1188C94.3898 88.1188 94.1581 87.9619 93.6948 87.6482ZM100.947 86.3813V85.129L104.494 81.3646C104.967 80.8627 105.324 80.409 105.565 80.0036C105.812 79.5934 105.935 79.1759 105.935 78.7512C105.935 78.2348 105.773 77.8198 105.45 77.5061C105.131 77.1876 104.699 77.0283 104.154 77.0283C103.835 77.0283 103.57 77.0742 103.357 77.1658C103.145 77.2575 102.95 77.3975 102.771 77.5857C102.593 77.7739 102.436 77.9959 102.301 78.2517C102.17 78.5075 102.105 78.6354 102.105 78.6354L100.918 78.1576C100.918 78.1576 101 77.9742 101.164 77.6074C101.328 77.2358 101.548 76.9173 101.823 76.6519C102.098 76.3864 102.424 76.1741 102.8 76.0148C103.181 75.8556 103.642 75.7759 104.183 75.7759C105.105 75.7759 105.857 76.0558 106.441 76.6157C107.03 77.1707 107.325 77.8777 107.325 78.7368C107.325 79.2966 107.189 79.8371 106.919 80.3583C106.649 80.8796 106.207 81.4515 105.594 82.074L102.67 85.0855L102.691 85.129H107.477V86.3813H100.947ZM112.999 86.6202C111.758 86.6202 110.767 86.1183 110.023 85.1145C109.285 84.1058 108.916 82.7979 108.916 81.1908C108.916 79.5886 109.285 78.2855 110.023 77.2817C110.767 76.2778 111.758 75.7759 112.999 75.7759C114.249 75.7759 115.245 76.2778 115.988 77.2817C116.732 78.2855 117.103 79.5886 117.103 81.1908C117.103 82.7979 116.732 84.1058 115.988 85.1145C115.245 86.1183 114.249 86.6202 112.999 86.6202ZM113.006 85.3679C113.889 85.3679 114.565 84.9866 115.033 84.2241C115.501 83.4615 115.735 82.4505 115.735 81.1908C115.735 79.9312 115.501 78.9226 115.033 78.1649C114.565 77.4072 113.889 77.0283 113.006 77.0283C112.123 77.0283 111.447 77.4072 110.979 78.1649C110.516 78.9226 110.284 79.9312 110.284 81.1908C110.284 82.4505 110.516 83.4615 110.979 84.2241C111.447 84.9866 112.123 85.3679 113.006 85.3679ZM118.493 86.3813V85.129L122.041 81.3646C122.514 80.8627 122.871 80.409 123.112 80.0036C123.358 79.5934 123.481 79.1759 123.481 78.7512C123.481 78.2348 123.32 77.8198 122.996 77.5061C122.678 77.1876 122.246 77.0283 121.7 77.0283C121.382 77.0283 121.116 77.0742 120.904 77.1658C120.692 77.2575 120.496 77.3975 120.318 77.5857C120.139 77.7739 119.982 77.9959 119.847 78.2517C119.717 78.5075 119.652 78.6354 119.652 78.6354L118.464 78.1576C118.464 78.1576 118.546 77.9742 118.711 77.6074C118.875 77.2358 119.094 76.9173 119.369 76.6519C119.644 76.3864 119.97 76.1741 120.347 76.0148C120.728 75.8556 121.189 75.7759 121.729 75.7759C122.651 75.7759 123.404 76.0558 123.988 76.6157C124.577 77.1707 124.871 77.8777 124.871 78.7368C124.871 79.2966 124.736 79.8371 124.466 80.3583C124.195 80.8796 123.754 81.4515 123.141 82.074L120.216 85.0855L120.238 85.129H125.023V86.3813H118.493ZM129.814 86.6202C129.235 86.6202 128.726 86.5213 128.287 86.3234C127.847 86.1256 127.476 85.8529 127.172 85.5054C126.868 85.1531 126.646 84.7887 126.506 84.4123C126.366 84.0358 126.296 83.8476 126.296 83.8476L127.505 83.4133C127.505 83.4133 127.56 83.5484 127.671 83.8187C127.782 84.0889 127.934 84.3495 128.127 84.6005C128.32 84.8515 128.552 85.0421 128.822 85.1724C129.097 85.3027 129.43 85.3679 129.821 85.3679C130.453 85.3679 130.972 85.1627 131.378 84.7525C131.783 84.3423 131.986 83.8042 131.986 83.1382C131.986 82.4867 131.783 81.9606 131.378 81.56C130.977 81.1595 130.463 80.9592 129.836 80.9592C129.488 80.9592 129.167 81.0219 128.873 81.1474C128.579 81.2681 128.272 81.5263 127.954 81.922L126.636 81.3935L127.317 76.0148H132.681V77.2672H128.373L127.968 80.4307L128.019 80.4452C128.289 80.2184 128.595 80.0422 128.938 79.9167C129.281 79.7864 129.669 79.7213 130.104 79.7213C131.006 79.7213 131.766 80.0446 132.384 80.6913C133.007 81.338 133.318 82.1585 133.318 83.1527C133.318 84.142 132.987 84.9673 132.326 85.6285C131.665 86.2897 130.828 86.6202 129.814 86.6202Z" fill="black" fill-opacity="0.56"/>
<circle cx="148.788" cy="81.8813" r="2.41307" fill="#A3A3A3"/>
<path d="M166.741 86.3813V76.594H168.073V86.3813H166.741ZM163.693 77.26V76.0148H171.114V77.26H163.693ZM174.681 86.6202C173.551 86.6202 172.632 86.2486 171.923 85.5054C171.213 84.7574 170.858 83.7945 170.858 82.617C170.858 81.4828 171.203 80.5345 171.894 79.772C172.589 79.0046 173.489 78.6209 174.594 78.6209C175.68 78.6209 176.548 78.9491 177.2 79.6055C177.851 80.2618 178.177 81.0847 178.177 82.074V82.921H171.619V81.8641H176.838C176.809 81.2753 176.597 80.783 176.201 80.3873C175.805 79.9915 175.269 79.7937 174.594 79.7937C173.884 79.7937 173.303 80.047 172.849 80.5538C172.4 81.0605 172.176 81.7458 172.176 82.6097C172.176 83.5026 172.42 84.1975 172.907 84.6946C173.395 85.1917 174.007 85.4403 174.746 85.4403C175.084 85.4403 175.376 85.3968 175.622 85.3099C175.868 85.2231 176.095 85.1024 176.302 84.948C176.51 84.7887 176.741 84.5354 176.997 84.1879L178.003 84.8032C177.719 85.2906 177.42 85.6526 177.106 85.8891C176.792 86.1256 176.445 86.3065 176.063 86.432C175.682 86.5575 175.221 86.6202 174.681 86.6202ZM183.214 86.6202C182.076 86.6202 181.146 86.2414 180.427 85.4837C179.713 84.7212 179.356 83.7583 179.356 82.5952C179.356 81.437 179.716 80.4838 180.435 79.7358C181.154 78.9877 182.083 78.6137 183.222 78.6137C183.646 78.6137 184.04 78.6692 184.402 78.7802C184.768 78.8912 185.104 79.0673 185.408 79.3087C185.717 79.5451 186.021 79.895 186.32 80.3583L185.299 81.0171C185.077 80.6938 184.867 80.45 184.67 80.2859C184.477 80.1219 184.255 80.0036 184.004 79.9312C183.753 79.854 183.477 79.8154 183.178 79.8154C182.478 79.8154 181.885 80.0712 181.397 80.5827C180.915 81.0895 180.674 81.7603 180.674 82.5952C180.674 83.4253 180.915 84.1058 181.397 84.6367C181.88 85.1627 182.474 85.4258 183.178 85.4258C183.487 85.4258 183.772 85.3848 184.033 85.3027C184.298 85.2158 184.527 85.0976 184.72 84.948C184.913 84.7936 185.138 84.5281 185.393 84.1517L186.436 84.8104C186.113 85.3124 185.796 85.6816 185.488 85.918C185.184 86.1497 184.838 86.3234 184.452 86.4393C184.066 86.5599 183.654 86.6202 183.214 86.6202ZM187.85 86.3813V75.8773H189.167V79.924H189.211C189.433 79.5475 189.761 79.2363 190.195 78.9901C190.63 78.744 191.127 78.6209 191.687 78.6209C192.57 78.6209 193.25 78.8719 193.728 79.3738C194.211 79.8709 194.452 80.5586 194.452 81.437V86.3813H193.135V81.6831C193.135 81.0557 192.98 80.5827 192.671 80.2642C192.362 79.9457 191.916 79.7864 191.332 79.7864C190.719 79.7864 190.205 80.0157 189.79 80.4742C189.375 80.9326 189.167 81.4683 189.167 82.0813V86.3813H187.85ZM197.868 86.3813L195.479 78.8598H196.811L198.324 83.9997L198.549 84.7887H198.592L198.824 84.0358L200.438 78.8598H201.727L203.348 83.9997L203.587 84.7742H203.63L203.848 84.0141L205.368 78.8598H206.656L204.26 86.3813H202.972L201.285 81.1402L201.075 80.4162H201.032L200.822 81.1402L199.164 86.3813H197.868ZM207.929 86.3813V78.8598H209.247V86.3813H207.929ZM208.588 77.3251C208.347 77.3251 208.139 77.2382 207.965 77.0645C207.792 76.8908 207.705 76.6832 207.705 76.4419C207.705 76.1958 207.792 75.9907 207.965 75.8266C208.139 75.6625 208.347 75.5805 208.588 75.5805C208.839 75.5805 209.046 75.6625 209.21 75.8266C209.375 75.9907 209.457 76.1958 209.457 76.4419C209.457 76.6832 209.375 76.8908 209.21 77.0645C209.046 77.2382 208.839 77.3251 208.588 77.3251ZM213.94 86.6202C213.443 86.6202 213.006 86.5551 212.63 86.4248C212.258 86.2945 211.928 86.1038 211.638 85.8529C211.353 85.6019 211.138 85.3365 210.994 85.0566C210.849 84.7767 210.776 84.6367 210.776 84.6367L211.87 84.0938C211.87 84.0938 211.932 84.1999 212.058 84.4123C212.183 84.6246 212.338 84.8153 212.521 84.9842C212.705 85.1483 212.914 85.2738 213.151 85.3606C213.387 85.4427 213.67 85.4837 213.998 85.4837C214.481 85.4837 214.867 85.3872 215.156 85.1941C215.451 84.9962 215.598 84.7212 215.598 84.3689C215.598 84.0552 215.472 83.809 215.221 83.6305C214.975 83.4471 214.5 83.2733 213.795 83.1092C212.801 82.8727 212.099 82.5711 211.689 82.2043C211.278 81.8327 211.073 81.3477 211.073 80.7493C211.073 80.1315 211.341 79.6223 211.877 79.2218C212.413 78.8164 213.074 78.6137 213.86 78.6137C214.28 78.6137 214.652 78.6619 214.975 78.7585C215.303 78.855 215.603 79.0022 215.873 79.2001C216.143 79.3979 216.346 79.6055 216.481 79.8226C216.616 80.035 216.684 80.1412 216.684 80.1412L215.634 80.7058C215.634 80.7058 215.576 80.631 215.46 80.4814C215.349 80.327 215.217 80.1942 215.062 80.0832C214.908 79.9722 214.731 79.8926 214.534 79.8444C214.336 79.7913 214.107 79.7647 213.846 79.7647C213.402 79.7647 213.042 79.8588 212.767 80.047C212.492 80.2304 212.355 80.45 212.355 80.7058C212.355 80.9568 212.451 81.1764 212.644 81.3646C212.842 81.548 213.38 81.7507 214.259 81.9727C215.224 82.2092 215.904 82.5156 216.3 82.8921C216.696 83.2637 216.894 83.7246 216.894 84.2747C216.894 84.9842 216.616 85.5537 216.061 85.9832C215.506 86.4079 214.799 86.6202 213.94 86.6202ZM221.778 86.6202C220.649 86.6202 219.729 86.2486 219.02 85.5054C218.31 84.7574 217.956 83.7945 217.956 82.617C217.956 81.4828 218.301 80.5345 218.991 79.772C219.686 79.0046 220.586 78.6209 221.691 78.6209C222.777 78.6209 223.646 78.9491 224.297 79.6055C224.949 80.2618 225.274 81.0847 225.274 82.074V82.921H218.716V81.8641H223.935C223.906 81.2753 223.694 80.783 223.298 80.3873C222.902 79.9915 222.367 79.7937 221.691 79.7937C220.982 79.7937 220.4 80.047 219.946 80.5538C219.498 81.0605 219.273 81.7458 219.273 82.6097C219.273 83.5026 219.517 84.1975 220.004 84.6946C220.492 85.1917 221.105 85.4403 221.843 85.4403C222.181 85.4403 222.473 85.3968 222.719 85.3099C222.965 85.2231 223.192 85.1024 223.399 84.948C223.607 84.7887 223.839 84.5354 224.094 84.1879L225.101 84.8032C224.816 85.2906 224.517 85.6526 224.203 85.8891C223.889 86.1256 223.542 86.3065 223.161 86.432C222.779 86.5575 222.318 86.6202 221.778 86.6202ZM230.676 86.3813V76.0148H232.008V85.1362H236.612V86.3813H230.676ZM240.673 86.6202C240.056 86.6202 239.559 86.4344 239.182 86.0628C238.811 85.6864 238.625 85.1724 238.625 84.5209V76.8256H239.935V84.282C239.935 84.6632 240.015 84.948 240.174 85.1362C240.333 85.3244 240.575 85.4185 240.898 85.4185C240.99 85.4185 241.088 85.4065 241.195 85.3823C241.306 85.3582 241.438 85.3172 241.593 85.2593C241.752 85.1965 241.832 85.1652 241.832 85.1652L241.998 86.3017C241.998 86.3017 241.921 86.3331 241.767 86.3958C241.612 86.4634 241.446 86.5165 241.267 86.5551C241.093 86.5985 240.895 86.6202 240.673 86.6202ZM237.3 80.0398V78.8598H241.853V80.0398H237.3ZM246.693 86.6202C245.661 86.6202 244.797 86.2486 244.102 85.5054C243.412 84.7622 243.067 83.8018 243.067 82.6242C243.067 81.437 243.409 80.4766 244.095 79.743C244.785 79.0046 245.634 78.6354 246.643 78.6354C247.227 78.6354 247.75 78.7681 248.214 79.0336C248.677 79.2942 249.024 79.6223 249.256 80.0181H249.3V75.8773H250.617V86.3813H249.343V85.0131L249.531 85.3027H249.3C249.049 85.6888 248.694 86.0049 248.235 86.251C247.777 86.4972 247.263 86.6202 246.693 86.6202ZM246.874 85.4764C247.579 85.4764 248.168 85.2158 248.641 84.6946C249.119 84.1686 249.357 83.4808 249.357 82.6314C249.357 81.782 249.114 81.0967 248.626 80.5755C248.144 80.0495 247.56 79.7864 246.874 79.7864C246.17 79.7864 245.579 80.0495 245.101 80.5755C244.623 81.0967 244.384 81.7796 244.384 82.6242C244.384 83.4688 244.621 84.1565 245.094 84.6874C245.567 85.2134 246.16 85.4764 246.874 85.4764ZM253.532 86.4682C253.252 86.4682 253.013 86.3717 252.815 86.1787C252.622 85.9808 252.526 85.7395 252.526 85.4547C252.526 85.1845 252.622 84.9528 252.815 84.7598C253.013 84.5619 253.252 84.463 253.532 84.463C253.817 84.463 254.056 84.5619 254.249 84.7598C254.447 84.9528 254.546 85.1845 254.546 85.4547C254.546 85.7395 254.447 85.9808 254.249 86.1787C254.056 86.3717 253.817 86.4682 253.532 86.4682Z" fill="black" fill-opacity="0.56"/>
<g filter="url(#filter1_i_33_440)">
<g clip-path="url(#clip1_33_440)">
<mask id="path-7-inside-1_33_440" fill="white">
<path d="M32.1584 104.245H417.158V160.835H32.1584V104.245Z"/>
</mask>
<path d="M32.1584 104.245H417.158V160.835H32.1584V104.245Z" fill="white"/>
<g filter="url(#filter2_f_33_440)">
<ellipse cx="9.65099" cy="151.946" rx="136.137" ry="41.2699" fill="url(#paint0_radial_33_440)"/>
<ellipse cx="9.65099" cy="151.946" rx="136.137" ry="41.2699" fill="url(#paint1_radial_33_440)"/>
</g>
<path d="M54.6693 138.436V133.076V138.436Z" fill="#CF202D"/>
<path d="M54.6693 138.436V133.076V138.436Z" fill="#1B4B16"/>
<path d="M54.6693 138.436V133.076" stroke="#CF202D" stroke-width="1.60792" stroke-linecap="round" stroke-linejoin="round"/>
<path d="M54.6693 138.436V133.076" stroke="#1B4B16" stroke-width="1.60792" stroke-linecap="round" stroke-linejoin="round"/>
<path d="M60.029 138.436V127.716V138.436Z" fill="#CF202D"/>
<path d="M60.029 138.436V127.716" stroke="#1B4B16" stroke-opacity="0.2" stroke-width="1.60792" stroke-linecap="round" stroke-linejoin="round"/>
<path d="M65.3887 138.436V122.356V138.436Z" fill="#CF202D"/>
<path d="M65.3887 138.436V122.356" stroke="#1B4B16" stroke-opacity="0.2" stroke-width="1.60792" stroke-linecap="round" stroke-linejoin="round"/>
<path d="M83.8562 135.576C83.0858 135.576 82.4105 135.441 81.8302 135.171C81.2499 134.891 80.7997 134.501 80.4795 134C80.1594 133.5 79.9993 132.915 79.9993 132.244H81.5751C81.5851 132.625 81.6751 132.975 81.8452 133.295C82.0253 133.605 82.2804 133.855 82.6106 134.045C82.9507 134.225 83.3659 134.315 83.8562 134.315C84.2764 134.315 84.6365 134.245 84.9367 134.105C85.2468 133.965 85.4819 133.775 85.642 133.535C85.8021 133.285 85.8821 133 85.8821 132.68C85.8821 132.31 85.7971 132.004 85.627 131.764C85.4569 131.524 85.2268 131.329 84.9367 131.179C84.6565 131.019 84.3264 130.879 83.9462 130.759C83.576 130.639 83.1858 130.509 82.7756 130.369C81.9452 130.098 81.3249 129.748 80.9147 129.318C80.5145 128.888 80.3145 128.328 80.3145 127.637C80.3145 127.047 80.4545 126.537 80.7347 126.107C81.0148 125.666 81.405 125.326 81.9052 125.086C82.4155 124.836 83.0158 124.711 83.7061 124.711C84.3864 124.711 84.9817 124.836 85.492 125.086C86.0022 125.336 86.4024 125.681 86.6925 126.122C86.9827 126.562 87.1277 127.077 87.1277 127.667H85.537C85.537 127.397 85.4669 127.132 85.3269 126.872C85.1868 126.612 84.9767 126.402 84.6966 126.242C84.4164 126.071 84.0713 125.986 83.6611 125.986C83.3209 125.976 83.0158 126.031 82.7456 126.152C82.4755 126.272 82.2654 126.447 82.1153 126.677C81.9652 126.907 81.8902 127.182 81.8902 127.502C81.8902 127.822 81.9552 128.082 82.0853 128.283C82.2254 128.473 82.4255 128.638 82.6856 128.778C82.9457 128.918 83.2459 129.048 83.586 129.168C83.9362 129.278 84.3214 129.403 84.7416 129.543C85.2618 129.713 85.7221 129.923 86.1223 130.173C86.5325 130.414 86.8526 130.729 87.0827 131.119C87.3228 131.499 87.4429 131.989 87.4429 132.59C87.4429 133.11 87.3078 133.595 87.0377 134.045C86.7676 134.496 86.3674 134.866 85.8371 135.156C85.3069 135.436 84.6465 135.576 83.8562 135.576ZM92.424 135.396C91.9438 135.396 91.5286 135.321 91.1784 135.171C90.8282 135.021 90.5581 134.771 90.368 134.421C90.1779 134.07 90.0829 133.595 90.0829 132.995V129.108H88.7772V127.832H90.0829L90.263 125.941H91.5836V127.832H93.7296V129.108H91.5836V133.01C91.5836 133.44 91.6736 133.735 91.8537 133.895C92.0338 134.045 92.344 134.12 92.7842 134.12H93.6546V135.396H92.424ZM98.0408 135.576C97.4205 135.576 96.9053 135.471 96.4951 135.261C96.0849 135.051 95.7797 134.771 95.5796 134.421C95.3795 134.06 95.2795 133.675 95.2795 133.265C95.2795 132.765 95.4095 132.34 95.6697 131.989C95.9298 131.629 96.3 131.354 96.7802 131.164C97.2604 130.974 97.8357 130.879 98.506 130.879H100.472C100.472 130.439 100.407 130.073 100.277 129.783C100.147 129.493 99.9517 129.278 99.6916 129.138C99.4415 128.988 99.1213 128.913 98.7312 128.913C98.2809 128.913 97.8957 129.023 97.5756 129.243C97.2554 129.453 97.0553 129.768 96.9753 130.188H95.4746C95.5346 129.658 95.7147 129.208 96.0148 128.838C96.325 128.458 96.7202 128.168 97.2004 127.967C97.6806 127.757 98.1909 127.652 98.7312 127.652C99.4415 127.652 100.037 127.777 100.517 128.027C100.997 128.278 101.357 128.633 101.598 129.093C101.848 129.543 101.973 130.083 101.973 130.714V135.396H100.667L100.547 134.12C100.437 134.32 100.307 134.511 100.157 134.691C100.007 134.871 99.8267 135.026 99.6166 135.156C99.4165 135.286 99.1814 135.386 98.9112 135.456C98.6511 135.536 98.361 135.576 98.0408 135.576ZM98.326 134.36C98.6461 134.36 98.9363 134.295 99.1964 134.165C99.4565 134.035 99.6766 133.86 99.8567 133.64C100.047 133.41 100.187 133.155 100.277 132.875C100.377 132.585 100.432 132.289 100.442 131.989V131.944H98.6561C98.2259 131.944 97.8757 131.999 97.6056 132.109C97.3455 132.209 97.1554 132.35 97.0353 132.53C96.9153 132.71 96.8552 132.92 96.8552 133.16C96.8552 133.41 96.9103 133.625 97.0203 133.805C97.1404 133.975 97.3105 134.11 97.5306 134.21C97.7507 134.31 98.0158 134.36 98.326 134.36ZM104.038 135.396V127.832H105.389L105.479 129.123C105.719 128.673 106.059 128.318 106.5 128.057C106.94 127.787 107.445 127.652 108.015 127.652C108.616 127.652 109.131 127.772 109.561 128.012C109.991 128.253 110.326 128.618 110.566 129.108C110.807 129.588 110.927 130.193 110.927 130.924V135.396H109.426V131.074C109.426 130.374 109.271 129.843 108.961 129.483C108.651 129.123 108.2 128.943 107.61 128.943C107.22 128.943 106.87 129.038 106.56 129.228C106.249 129.408 105.999 129.678 105.809 130.038C105.629 130.399 105.539 130.839 105.539 131.359V135.396H104.038ZM116.358 135.576C115.638 135.576 115.002 135.406 114.452 135.066C113.902 134.716 113.472 134.245 113.161 133.655C112.861 133.055 112.711 132.375 112.711 131.614C112.711 130.844 112.861 130.163 113.161 129.573C113.472 128.983 113.902 128.518 114.452 128.178C115.012 127.827 115.653 127.652 116.373 127.652C116.963 127.652 117.484 127.772 117.934 128.012C118.384 128.243 118.734 128.573 118.984 129.003V124.591H120.485V135.396H119.134L118.984 134.225C118.834 134.456 118.639 134.676 118.399 134.886C118.159 135.086 117.869 135.251 117.529 135.381C117.188 135.511 116.798 135.576 116.358 135.576ZM116.598 134.27C117.068 134.27 117.484 134.16 117.844 133.94C118.204 133.72 118.479 133.41 118.669 133.01C118.869 132.61 118.969 132.144 118.969 131.614C118.969 131.084 118.869 130.624 118.669 130.234C118.479 129.833 118.204 129.523 117.844 129.303C117.484 129.073 117.068 128.958 116.598 128.958C116.148 128.958 115.743 129.073 115.383 129.303C115.022 129.523 114.742 129.833 114.542 130.234C114.342 130.624 114.242 131.084 114.242 131.614C114.242 132.144 114.342 132.61 114.542 133.01C114.742 133.41 115.022 133.72 115.383 133.94C115.743 134.16 116.148 134.27 116.598 134.27ZM125.193 135.576C124.573 135.576 124.058 135.471 123.648 135.261C123.237 135.051 122.932 134.771 122.732 134.421C122.532 134.06 122.432 133.675 122.432 133.265C122.432 132.765 122.562 132.34 122.822 131.989C123.082 131.629 123.453 131.354 123.933 131.164C124.413 130.974 124.988 130.879 125.659 130.879H127.625C127.625 130.439 127.56 130.073 127.429 129.783C127.299 129.493 127.104 129.278 126.844 129.138C126.594 128.988 126.274 128.913 125.884 128.913C125.433 128.913 125.048 129.023 124.728 129.243C124.408 129.453 124.208 129.768 124.128 130.188H122.627C122.687 129.658 122.867 129.208 123.167 128.838C123.478 128.458 123.873 128.168 124.353 127.967C124.833 127.757 125.343 127.652 125.884 127.652C126.594 127.652 127.189 127.777 127.67 128.027C128.15 128.278 128.51 128.633 128.75 129.093C129 129.543 129.125 130.083 129.125 130.714V135.396H127.82L127.7 134.12C127.59 134.32 127.459 134.511 127.309 134.691C127.159 134.871 126.979 135.026 126.769 135.156C126.569 135.286 126.334 135.386 126.064 135.456C125.804 135.536 125.514 135.576 125.193 135.576ZM125.479 134.36C125.799 134.36 126.089 134.295 126.349 134.165C126.609 134.035 126.829 133.86 127.009 133.64C127.199 133.41 127.339 133.155 127.429 132.875C127.53 132.585 127.585 132.289 127.595 131.989V131.944H125.809C125.378 131.944 125.028 131.999 124.758 132.109C124.498 132.209 124.308 132.35 124.188 132.53C124.068 132.71 124.008 132.92 124.008 133.16C124.008 133.41 124.063 133.625 124.173 133.805C124.293 133.975 124.463 134.11 124.683 134.21C124.903 134.31 125.168 134.36 125.479 134.36ZM131.191 135.396V127.832H132.542L132.677 129.258C132.847 128.918 133.067 128.633 133.337 128.403C133.607 128.163 133.922 127.977 134.282 127.847C134.653 127.717 135.073 127.652 135.543 127.652V129.243H135.003C134.693 129.243 134.397 129.283 134.117 129.363C133.837 129.433 133.587 129.558 133.367 129.738C133.157 129.918 132.992 130.163 132.872 130.474C132.752 130.784 132.692 131.169 132.692 131.629V135.396H131.191ZM140.213 135.576C139.493 135.576 138.857 135.406 138.307 135.066C137.757 134.716 137.327 134.245 137.017 133.655C136.716 133.055 136.566 132.375 136.566 131.614C136.566 130.844 136.716 130.163 137.017 129.573C137.327 128.983 137.757 128.518 138.307 128.178C138.867 127.827 139.508 127.652 140.228 127.652C140.818 127.652 141.339 127.772 141.789 128.012C142.239 128.243 142.589 128.573 142.839 129.003V124.591H144.34V135.396H142.989L142.839 134.225C142.689 134.456 142.494 134.676 142.254 134.886C142.014 135.086 141.724 135.251 141.384 135.381C141.043 135.511 140.653 135.576 140.213 135.576ZM140.453 134.27C140.923 134.27 141.339 134.16 141.699 133.94C142.059 133.72 142.334 133.41 142.524 133.01C142.724 132.61 142.824 132.144 142.824 131.614C142.824 131.084 142.724 130.624 142.524 130.234C142.334 129.833 142.059 129.523 141.699 129.303C141.339 129.073 140.923 128.958 140.453 128.958C140.003 128.958 139.598 129.073 139.238 129.303C138.877 129.523 138.597 129.833 138.397 130.234C138.197 130.624 138.097 131.084 138.097 131.614C138.097 132.144 138.197 132.61 138.397 133.01C138.597 133.41 138.877 133.72 139.238 133.94C139.598 134.16 140.003 134.27 140.453 134.27Z" fill="#CF202D"/>
<path d="M83.8562 135.576C83.0858 135.576 82.4105 135.441 81.8302 135.171C81.2499 134.891 80.7997 134.501 80.4795 134C80.1594 133.5 79.9993 132.915 79.9993 132.244H81.5751C81.5851 132.625 81.6751 132.975 81.8452 133.295C82.0253 133.605 82.2804 133.855 82.6106 134.045C82.9507 134.225 83.3659 134.315 83.8562 134.315C84.2764 134.315 84.6365 134.245 84.9367 134.105C85.2468 133.965 85.4819 133.775 85.642 133.535C85.8021 133.285 85.8821 133 85.8821 132.68C85.8821 132.31 85.7971 132.004 85.627 131.764C85.4569 131.524 85.2268 131.329 84.9367 131.179C84.6565 131.019 84.3264 130.879 83.9462 130.759C83.576 130.639 83.1858 130.509 82.7756 130.369C81.9452 130.098 81.3249 129.748 80.9147 129.318C80.5145 128.888 80.3145 128.328 80.3145 127.637C80.3145 127.047 80.4545 126.537 80.7347 126.107C81.0148 125.666 81.405 125.326 81.9052 125.086C82.4155 124.836 83.0158 124.711 83.7061 124.711C84.3864 124.711 84.9817 124.836 85.492 125.086C86.0022 125.336 86.4024 125.681 86.6925 126.122C86.9827 126.562 87.1277 127.077 87.1277 127.667H85.537C85.537 127.397 85.4669 127.132 85.3269 126.872C85.1868 126.612 84.9767 126.402 84.6966 126.242C84.4164 126.071 84.0713 125.986 83.6611 125.986C83.3209 125.976 83.0158 126.031 82.7456 126.152C82.4755 126.272 82.2654 126.447 82.1153 126.677C81.9652 126.907 81.8902 127.182 81.8902 127.502C81.8902 127.822 81.9552 128.082 82.0853 128.283C82.2254 128.473 82.4255 128.638 82.6856 128.778C82.9457 128.918 83.2459 129.048 83.586 129.168C83.9362 129.278 84.3214 129.403 84.7416 129.543C85.2618 129.713 85.7221 129.923 86.1223 130.173C86.5325 130.414 86.8526 130.729 87.0827 131.119C87.3228 131.499 87.4429 131.989 87.4429 132.59C87.4429 133.11 87.3078 133.595 87.0377 134.045C86.7676 134.496 86.3674 134.866 85.8371 135.156C85.3069 135.436 84.6465 135.576 83.8562 135.576ZM92.424 135.396C91.9438 135.396 91.5286 135.321 91.1784 135.171C90.8282 135.021 90.5581 134.771 90.368 134.421C90.1779 134.07 90.0829 133.595 90.0829 132.995V129.108H88.7772V127.832H90.0829L90.263 125.941H91.5836V127.832H93.7296V129.108H91.5836V133.01C91.5836 133.44 91.6736 133.735 91.8537 133.895C92.0338 134.045 92.344 134.12 92.7842 134.12H93.6546V135.396H92.424ZM98.0408 135.576C97.4205 135.576 96.9053 135.471 96.4951 135.261C96.0849 135.051 95.7797 134.771 95.5796 134.421C95.3795 134.06 95.2795 133.675 95.2795 133.265C95.2795 132.765 95.4095 132.34 95.6697 131.989C95.9298 131.629 96.3 131.354 96.7802 131.164C97.2604 130.974 97.8357 130.879 98.506 130.879H100.472C100.472 130.439 100.407 130.073 100.277 129.783C100.147 129.493 99.9517 129.278 99.6916 129.138C99.4415 128.988 99.1213 128.913 98.7312 128.913C98.2809 128.913 97.8957 129.023 97.5756 129.243C97.2554 129.453 97.0553 129.768 96.9753 130.188H95.4746C95.5346 129.658 95.7147 129.208 96.0148 128.838C96.325 128.458 96.7202 128.168 97.2004 127.967C97.6806 127.757 98.1909 127.652 98.7312 127.652C99.4415 127.652 100.037 127.777 100.517 128.027C100.997 128.278 101.357 128.633 101.598 129.093C101.848 129.543 101.973 130.083 101.973 130.714V135.396H100.667L100.547 134.12C100.437 134.32 100.307 134.511 100.157 134.691C100.007 134.871 99.8267 135.026 99.6166 135.156C99.4165 135.286 99.1814 135.386 98.9112 135.456C98.6511 135.536 98.361 135.576 98.0408 135.576ZM98.326 134.36C98.6461 134.36 98.9363 134.295 99.1964 134.165C99.4565 134.035 99.6766 133.86 99.8567 133.64C100.047 133.41 100.187 133.155 100.277 132.875C100.377 132.585 100.432 132.289 100.442 131.989V131.944H98.6561C98.2259 131.944 97.8757 131.999 97.6056 132.109C97.3455 132.209 97.1554 132.35 97.0353 132.53C96.9153 132.71 96.8552 132.92 96.8552 133.16C96.8552 133.41 96.9103 133.625 97.0203 133.805C97.1404 133.975 97.3105 134.11 97.5306 134.21C97.7507 134.31 98.0158 134.36 98.326 134.36ZM104.038 135.396V127.832H105.389L105.479 129.123C105.719 128.673 106.059 128.318 106.5 128.057C106.94 127.787 107.445 127.652 108.015 127.652C108.616 127.652 109.131 127.772 109.561 128.012C109.991 128.253 110.326 128.618 110.566 129.108C110.807 129.588 110.927 130.193 110.927 130.924V135.396H109.426V131.074C109.426 130.374 109.271 129.843 108.961 129.483C108.651 129.123 108.2 128.943 107.61 128.943C107.22 128.943 106.87 129.038 106.56 129.228C106.249 129.408 105.999 129.678 105.809 130.038C105.629 130.399 105.539 130.839 105.539 131.359V135.396H104.038ZM116.358 135.576C115.638 135.576 115.002 135.406 114.452 135.066C113.902 134.716 113.472 134.245 113.161 133.655C112.861 133.055 112.711 132.375 112.711 131.614C112.711 130.844 112.861 130.163 113.161 129.573C113.472 128.983 113.902 128.518 114.452 128.178C115.012 127.827 115.653 127.652 116.373 127.652C116.963 127.652 117.484 127.772 117.934 128.012C118.384 128.243 118.734 128.573 118.984 129.003V124.591H120.485V135.396H119.134L118.984 134.225C118.834 134.456 118.639 134.676 118.399 134.886C118.159 135.086 117.869 135.251 117.529 135.381C117.188 135.511 116.798 135.576 116.358 135.576ZM116.598 134.27C117.068 134.27 117.484 134.16 117.844 133.94C118.204 133.72 118.479 133.41 118.669 133.01C118.869 132.61 118.969 132.144 118.969 131.614C118.969 131.084 118.869 130.624 118.669 130.234C118.479 129.833 118.204 129.523 117.844 129.303C117.484 129.073 117.068 128.958 116.598 128.958C116.148 128.958 115.743 129.073 115.383 129.303C115.022 129.523 114.742 129.833 114.542 130.234C114.342 130.624 114.242 131.084 114.242 131.614C114.242 132.144 114.342 132.61 114.542 133.01C114.742 133.41 115.022 133.72 115.383 133.94C115.743 134.16 116.148 134.27 116.598 134.27ZM125.193 135.576C124.573 135.576 124.058 135.471 123.648 135.261C123.237 135.051 122.932 134.771 122.732 134.421C122.532 134.06 122.432 133.675 122.432 133.265C122.432 132.765 122.562 132.34 122.822 131.989C123.082 131.629 123.453 131.354 123.933 131.164C124.413 130.974 124.988 130.879 125.659 130.879H127.625C127.625 130.439 127.56 130.073 127.429 129.783C127.299 129.493 127.104 129.278 126.844 129.138C126.594 128.988 126.274 128.913 125.884 128.913C125.433 128.913 125.048 129.023 124.728 129.243C124.408 129.453 124.208 129.768 124.128 130.188H122.627C122.687 129.658 122.867 129.208 123.167 128.838C123.478 128.458 123.873 128.168 124.353 127.967C124.833 127.757 125.343 127.652 125.884 127.652C126.594 127.652 127.189 127.777 127.67 128.027C128.15 128.278 128.51 128.633 128.75 129.093C129 129.543 129.125 130.083 129.125 130.714V135.396H127.82L127.7 134.12C127.59 134.32 127.459 134.511 127.309 134.691C127.159 134.871 126.979 135.026 126.769 135.156C126.569 135.286 126.334 135.386 126.064 135.456C125.804 135.536 125.514 135.576 125.193 135.576ZM125.479 134.36C125.799 134.36 126.089 134.295 126.349 134.165C126.609 134.035 126.829 133.86 127.009 133.64C127.199 133.41 127.339 133.155 127.429 132.875C127.53 132.585 127.585 132.289 127.595 131.989V131.944H125.809C125.378 131.944 125.028 131.999 124.758 132.109C124.498 132.209 124.308 132.35 124.188 132.53C124.068 132.71 124.008 132.92 124.008 133.16C124.008 133.41 124.063 133.625 124.173 133.805C124.293 133.975 124.463 134.11 124.683 134.21C124.903 134.31 125.168 134.36 125.479 134.36ZM131.191 135.396V127.832H132.542L132.677 129.258C132.847 128.918 133.067 128.633 133.337 128.403C133.607 128.163 133.922 127.977 134.282 127.847C134.653 127.717 135.073 127.652 135.543 127.652V129.243H135.003C134.693 129.243 134.397 129.283 134.117 129.363C133.837 129.433 133.587 129.558 133.367 129.738C133.157 129.918 132.992 130.163 132.872 130.474C132.752 130.784 132.692 131.169 132.692 131.629V135.396H131.191ZM140.213 135.576C139.493 135.576 138.857 135.406 138.307 135.066C137.757 134.716 137.327 134.245 137.017 133.655C136.716 133.055 136.566 132.375 136.566 131.614C136.566 130.844 136.716 130.163 137.017 129.573C137.327 128.983 137.757 128.518 138.307 128.178C138.867 127.827 139.508 127.652 140.228 127.652C140.818 127.652 141.339 127.772 141.789 128.012C142.239 128.243 142.589 128.573 142.839 129.003V124.591H144.34V135.396H142.989L142.839 134.225C142.689 134.456 142.494 134.676 142.254 134.886C142.014 135.086 141.724 135.251 141.384 135.381C141.043 135.511 140.653 135.576 140.213 135.576ZM140.453 134.27C140.923 134.27 141.339 134.16 141.699 133.94C142.059 133.72 142.334 133.41 142.524 133.01C142.724 132.61 142.824 132.144 142.824 131.614C142.824 131.084 142.724 130.624 142.524 130.234C142.334 129.833 142.059 129.523 141.699 129.303C141.339 129.073 140.923 128.958 140.453 128.958C140.003 128.958 139.598 129.073 139.238 129.303C138.877 129.523 138.597 129.833 138.397 130.234C138.197 130.624 138.097 131.084 138.097 131.614C138.097 132.144 138.197 132.61 138.397 133.01C138.597 133.41 138.877 133.72 139.238 133.94C139.598 134.16 140.003 134.27 140.453 134.27Z" fill="#1B4B16"/>
<path d="M303.532 126.108V130.396L306.391 131.825" stroke="#696969" stroke-width="0.937953" stroke-linecap="round" stroke-linejoin="round"/>
<path d="M303.532 137.543C307.479 137.543 310.678 134.344 310.678 130.397C310.678 126.45 307.479 123.25 303.532 123.25C299.585 123.25 296.385 126.45 296.385 130.397C296.385 134.344 299.585 137.543 303.532 137.543Z" stroke="#696969" stroke-width="0.937953" stroke-linecap="round" stroke-linejoin="round"/>
<path d="M317.413 135.396V125.641H318.806V135.396H317.413ZM320.912 135.396V128.373H322.166L322.25 129.571C322.473 129.153 322.788 128.823 323.197 128.582C323.606 128.331 324.075 128.205 324.605 128.205C325.162 128.205 325.641 128.317 326.04 128.54C326.44 128.763 326.751 129.102 326.974 129.557C327.197 130.003 327.308 130.565 327.308 131.243V135.396H325.915V131.383C325.915 130.732 325.771 130.24 325.483 129.905C325.195 129.571 324.777 129.404 324.228 129.404C323.866 129.404 323.541 129.492 323.253 129.669C322.965 129.836 322.733 130.087 322.556 130.421C322.389 130.756 322.305 131.164 322.305 131.647V135.396H320.912ZM333.005 135.396V125.641H336.335C337.115 125.641 337.756 125.771 338.258 126.031C338.76 126.292 339.131 126.64 339.373 127.077C339.615 127.513 339.735 128.01 339.735 128.568C339.735 129.097 339.615 129.585 339.373 130.031C339.141 130.468 338.774 130.821 338.272 131.09C337.77 131.35 337.125 131.48 336.335 131.48H334.398V135.396H333.005ZM334.398 130.324H336.279C337.013 130.324 337.534 130.166 337.84 129.85C338.156 129.525 338.314 129.097 338.314 128.568C338.314 128.001 338.156 127.564 337.84 127.258C337.534 126.951 337.013 126.798 336.279 126.798H334.398V130.324ZM341.307 135.396V128.373H342.562L342.687 129.696C342.845 129.381 343.049 129.116 343.3 128.902C343.551 128.679 343.844 128.507 344.178 128.387C344.522 128.266 344.912 128.205 345.349 128.205V129.683H344.847C344.559 129.683 344.285 129.72 344.025 129.794C343.765 129.859 343.532 129.975 343.328 130.142C343.133 130.31 342.98 130.537 342.868 130.825C342.757 131.113 342.701 131.471 342.701 131.898V135.396H341.307ZM349.769 135.563C349.109 135.563 348.515 135.41 347.985 135.103C347.465 134.797 347.051 134.369 346.745 133.821C346.448 133.264 346.299 132.623 346.299 131.898C346.299 131.155 346.452 130.509 346.759 129.961C347.065 129.404 347.483 128.972 348.013 128.665C348.542 128.359 349.137 128.205 349.797 128.205C350.466 128.205 351.06 128.359 351.58 128.665C352.101 128.972 352.509 129.399 352.807 129.947C353.113 130.495 353.267 131.141 353.267 131.884C353.267 132.628 353.113 133.273 352.807 133.821C352.509 134.369 352.096 134.797 351.566 135.103C351.037 135.41 350.438 135.563 349.769 135.563ZM349.769 134.365C350.15 134.365 350.493 134.272 350.8 134.086C351.116 133.9 351.367 133.626 351.553 133.264C351.748 132.892 351.845 132.432 351.845 131.884C351.845 131.336 351.752 130.881 351.566 130.519C351.381 130.147 351.13 129.868 350.814 129.683C350.507 129.497 350.168 129.404 349.797 129.404C349.425 129.404 349.081 129.497 348.765 129.683C348.45 129.868 348.194 130.147 347.999 130.519C347.813 130.881 347.72 131.336 347.72 131.884C347.72 132.432 347.813 132.892 347.999 133.264C348.194 133.626 348.445 133.9 348.752 134.086C349.067 134.272 349.406 134.365 349.769 134.365ZM357.548 138.629C356.907 138.629 356.34 138.545 355.848 138.378C355.356 138.22 354.975 137.974 354.705 137.64C354.436 137.305 354.301 136.896 354.301 136.413C354.301 136.162 354.357 135.907 354.468 135.647C354.58 135.396 354.761 135.154 355.012 134.922C355.263 134.69 355.602 134.481 356.029 134.295L356.81 134.922C356.336 135.099 356.015 135.308 355.848 135.549C355.69 135.8 355.611 136.042 355.611 136.274C355.611 136.553 355.695 136.785 355.862 136.971C356.029 137.156 356.257 137.296 356.545 137.389C356.842 137.482 357.176 137.528 357.548 137.528C357.91 137.528 358.226 137.477 358.496 137.375C358.765 137.273 358.974 137.129 359.123 136.943C359.271 136.757 359.346 136.539 359.346 136.288C359.346 135.991 359.234 135.74 359.011 135.535C358.788 135.34 358.361 135.224 357.729 135.187C357.2 135.15 356.749 135.099 356.378 135.034C356.015 134.969 355.704 134.89 355.444 134.797C355.193 134.704 354.979 134.602 354.803 134.49C354.636 134.379 354.492 134.263 354.371 134.142V133.821L355.764 132.386L356.893 132.776L355.374 134.184L355.667 133.557C355.769 133.622 355.867 133.687 355.959 133.752C356.052 133.807 356.178 133.858 356.336 133.905C356.494 133.951 356.707 133.993 356.977 134.03C357.246 134.067 357.599 134.105 358.036 134.142C358.668 134.188 359.174 134.3 359.555 134.476C359.945 134.653 360.228 134.89 360.405 135.187C360.581 135.484 360.67 135.837 360.67 136.246C360.67 136.646 360.558 137.026 360.335 137.389C360.121 137.751 359.782 138.048 359.318 138.281C358.863 138.513 358.273 138.629 357.548 138.629ZM357.548 133.236C356.953 133.236 356.447 133.125 356.029 132.902C355.62 132.679 355.304 132.377 355.082 131.996C354.868 131.615 354.761 131.192 354.761 130.728C354.761 130.254 354.868 129.831 355.082 129.46C355.304 129.079 355.625 128.777 356.043 128.554C356.461 128.322 356.963 128.205 357.548 128.205C358.133 128.205 358.63 128.322 359.039 128.554C359.457 128.777 359.773 129.079 359.987 129.46C360.21 129.831 360.321 130.254 360.321 130.728C360.321 131.192 360.21 131.615 359.987 131.996C359.773 132.377 359.457 132.679 359.039 132.902C358.63 133.125 358.133 133.236 357.548 133.236ZM357.548 132.121C358.003 132.121 358.366 132.005 358.635 131.773C358.904 131.531 359.039 131.183 359.039 130.728C359.039 130.272 358.904 129.929 358.635 129.696C358.366 129.455 358.003 129.334 357.548 129.334C357.093 129.334 356.726 129.455 356.447 129.696C356.168 129.929 356.029 130.272 356.029 130.728C356.029 131.183 356.168 131.531 356.447 131.773C356.726 132.005 357.093 132.121 357.548 132.121ZM358.691 129.473L358.356 128.373H361.241V129.334L358.691 129.473ZM362.778 135.396V128.373H364.032L364.158 129.696C364.316 129.381 364.52 129.116 364.771 128.902C365.022 128.679 365.314 128.507 365.649 128.387C365.993 128.266 366.383 128.205 366.819 128.205V129.683H366.318C366.03 129.683 365.756 129.72 365.496 129.794C365.235 129.859 365.003 129.975 364.799 130.142C364.604 130.31 364.45 130.537 364.339 130.825C364.227 131.113 364.172 131.471 364.172 131.898V135.396H362.778ZM371.212 135.563C370.543 135.563 369.948 135.41 369.428 135.103C368.908 134.797 368.499 134.369 368.202 133.821C367.914 133.273 367.77 132.637 367.77 131.912C367.77 131.169 367.914 130.523 368.202 129.975C368.499 129.418 368.908 128.986 369.428 128.679C369.948 128.363 370.552 128.205 371.239 128.205C371.927 128.205 372.517 128.359 373.009 128.665C373.502 128.972 373.883 129.381 374.152 129.892C374.421 130.393 374.556 130.951 374.556 131.564C374.556 131.657 374.551 131.759 374.542 131.87C374.542 131.973 374.538 132.089 374.528 132.219H368.787V131.229H373.163C373.135 130.644 372.94 130.189 372.577 129.864C372.215 129.529 371.764 129.362 371.226 129.362C370.845 129.362 370.496 129.45 370.18 129.627C369.865 129.794 369.609 130.045 369.414 130.379C369.228 130.704 369.135 131.118 369.135 131.62V132.01C369.135 132.53 369.228 132.971 369.414 133.334C369.609 133.687 369.865 133.956 370.18 134.142C370.496 134.318 370.84 134.407 371.212 134.407C371.658 134.407 372.025 134.309 372.313 134.114C372.601 133.919 372.814 133.654 372.954 133.32H374.347C374.226 133.747 374.022 134.133 373.734 134.476C373.446 134.811 373.088 135.075 372.661 135.271C372.243 135.466 371.76 135.563 371.212 135.563ZM378.961 135.563C378.366 135.563 377.846 135.466 377.4 135.271C376.954 135.075 376.601 134.801 376.341 134.448C376.081 134.095 375.923 133.682 375.867 133.208H377.289C377.335 133.431 377.424 133.636 377.554 133.821C377.693 134.007 377.879 134.156 378.111 134.267C378.353 134.379 378.636 134.434 378.961 134.434C379.268 134.434 379.518 134.393 379.714 134.309C379.918 134.216 380.067 134.095 380.16 133.947C380.252 133.789 380.299 133.622 380.299 133.445C380.299 133.185 380.234 132.99 380.104 132.86C379.983 132.72 379.797 132.614 379.546 132.539C379.305 132.456 379.012 132.381 378.668 132.316C378.343 132.261 378.027 132.186 377.721 132.093C377.424 131.991 377.154 131.866 376.913 131.717C376.68 131.568 376.495 131.383 376.355 131.16C376.216 130.927 376.146 130.644 376.146 130.31C376.146 129.91 376.253 129.552 376.467 129.237C376.68 128.911 376.982 128.661 377.372 128.484C377.772 128.298 378.241 128.205 378.78 128.205C379.56 128.205 380.187 128.391 380.661 128.763C381.135 129.134 381.414 129.659 381.497 130.337H380.146C380.108 130.022 379.969 129.78 379.728 129.613C379.486 129.436 379.165 129.348 378.766 129.348C378.366 129.348 378.06 129.427 377.846 129.585C377.633 129.743 377.526 129.952 377.526 130.212C377.526 130.379 377.586 130.528 377.707 130.658C377.828 130.788 378.004 130.9 378.236 130.992C378.478 131.076 378.771 131.155 379.114 131.229C379.607 131.322 380.048 131.438 380.438 131.578C380.828 131.717 381.14 131.921 381.372 132.191C381.604 132.46 381.72 132.846 381.72 133.348C381.73 133.784 381.618 134.17 381.386 134.504C381.163 134.839 380.842 135.099 380.424 135.285C380.016 135.47 379.528 135.563 378.961 135.563ZM386.218 135.563C385.623 135.563 385.103 135.466 384.657 135.271C384.211 135.075 383.858 134.801 383.598 134.448C383.338 134.095 383.18 133.682 383.124 133.208H384.546C384.592 133.431 384.68 133.636 384.81 133.821C384.95 134.007 385.135 134.156 385.368 134.267C385.609 134.379 385.893 134.434 386.218 134.434C386.524 134.434 386.775 134.393 386.97 134.309C387.175 134.216 387.323 134.095 387.416 133.947C387.509 133.789 387.556 133.622 387.556 133.445C387.556 133.185 387.491 132.99 387.36 132.86C387.24 132.72 387.054 132.614 386.803 132.539C386.562 132.456 386.269 132.381 385.925 132.316C385.6 132.261 385.284 132.186 384.978 132.093C384.68 131.991 384.411 131.866 384.169 131.717C383.937 131.568 383.751 131.383 383.612 131.16C383.473 130.927 383.403 130.644 383.403 130.31C383.403 129.91 383.51 129.552 383.723 129.237C383.937 128.911 384.239 128.661 384.629 128.484C385.029 128.298 385.498 128.205 386.037 128.205C386.817 128.205 387.444 128.391 387.918 128.763C388.392 129.134 388.67 129.659 388.754 130.337H387.402C387.365 130.022 387.226 129.78 386.984 129.613C386.743 129.436 386.422 129.348 386.023 129.348C385.623 129.348 385.317 129.427 385.103 129.585C384.889 129.743 384.782 129.952 384.782 130.212C384.782 130.379 384.843 130.528 384.964 130.658C385.084 130.788 385.261 130.9 385.493 130.992C385.735 131.076 386.027 131.155 386.371 131.229C386.863 131.322 387.305 131.438 387.695 131.578C388.085 131.717 388.396 131.921 388.629 132.191C388.861 132.46 388.977 132.846 388.977 133.348C388.986 133.784 388.875 134.17 388.643 134.504C388.42 134.839 388.099 135.099 387.681 135.285C387.272 135.47 386.784 135.563 386.218 135.563Z" fill="#696969"/>
</g>
<path d="M32.1584 104.245V104.781H417.158V104.245V103.709H32.1584V104.245Z" fill="black" fill-opacity="0.14" mask="url(#path-7-inside-1_33_440)"/>
</g>
</g>
<rect x="32.4264" y="28.1386" width="384.464" height="132.428" rx="16.8831" stroke="black" stroke-opacity="0.14" stroke-width="0.535973" shape-rendering="crispEdges"/>
</g>
<defs>
<filter id="filter0_d_33_440" x="1.14441e-05" y="1.43051e-05" width="449.317" height="197.281" filterUnits="userSpaceOnUse" color-interpolation-filters="sRGB">
<feFlood flood-opacity="0" result="BackgroundImageFix"/>
<feColorMatrix in="SourceAlpha" type="matrix" values="0 0 0 0 0 0 0 0 0 0 0 0 0 0 0 0 0 0 127 0" result="hardAlpha"/>
<feOffset dy="4.28778"/>
<feGaussianBlur stdDeviation="16.0792"/>
<feComposite in2="hardAlpha" operator="out"/>
<feColorMatrix type="matrix" values="0 0 0 0 0 0 0 0 0 0 0 0 0 0 0 0 0 0 0.04 0"/>
<feBlend mode="normal" in2="BackgroundImageFix" result="effect1_dropShadow_33_440"/>
<feBlend mode="normal" in="SourceGraphic" in2="effect1_dropShadow_33_440" result="shape"/>
</filter>
<filter id="filter1_i_33_440" x="32.1584" y="104.245" width="385" height="60.8779" filterUnits="userSpaceOnUse" color-interpolation-filters="sRGB">
<feFlood flood-opacity="0" result="BackgroundImageFix"/>
<feBlend mode="normal" in="SourceGraphic" in2="BackgroundImageFix" result="shape"/>
<feColorMatrix in="SourceAlpha" type="matrix" values="0 0 0 0 0 0 0 0 0 0 0 0 0 0 0 0 0 0 127 0" result="hardAlpha"/>
<feMorphology radius="15.0072" operator="dilate" in="SourceAlpha" result="effect1_innerShadow_33_440"/>
<feOffset dy="4.28778"/>
<feGaussianBlur stdDeviation="16.0792"/>
<feComposite in2="hardAlpha" operator="arithmetic" k2="-1" k3="1"/>
<feColorMatrix type="matrix" values="0 0 0 0 0 0 0 0 0 0 0 0 0 0 0 0 0 0 0.15 0"/>
<feBlend mode="normal" in2="shape" result="effect1_innerShadow_33_440"/>
</filter>
<filter id="filter2_f_33_440" x="-161.003" y="76.1596" width="341.308" height="151.573" filterUnits="userSpaceOnUse" color-interpolation-filters="sRGB">
<feFlood flood-opacity="0" result="BackgroundImageFix"/>
<feBlend mode="normal" in="SourceGraphic" in2="BackgroundImageFix" result="shape"/>
<feGaussianBlur stdDeviation="17.2583" result="effect1_foregroundBlur_33_440"/>
</filter>
<radialGradient id="paint0_radial_33_440" cx="0" cy="0" r="1" gradientTransform="matrix(79.324 103.397 -113.541 59.7127 -51.9859 114.226)" gradientUnits="userSpaceOnUse">
<stop stop-color="#FFCACF"/>
<stop offset="1" stop-color="white"/>
</radialGradient>
<radialGradient id="paint1_radial_33_440" cx="0" cy="0" r="1" gradientTransform="matrix(79.324 103.397 -113.541 59.7127 -51.9859 114.226)" gradientUnits="userSpaceOnUse">
<stop stop-color="#CCFFCB"/>
<stop offset="1" stop-color="white"/>
</radialGradient>
<clipPath id="clip0_33_440">
<rect x="32.1584" y="27.8706" width="385" height="132.964" rx="17.1511" fill="white"/>
</clipPath>
<clipPath id="clip1_33_440">
<path d="M32.1584 104.245H417.158V160.835H32.1584V104.245Z" fill="white"/>
</clipPath>
</defs>
</svg>
