<svg width="414" height="163" viewBox="0 0 414 163" fill="none" xmlns="http://www.w3.org/2000/svg">
<g filter="url(#filter0_dd_33_461)">
<g clip-path="url(#clip0_33_461)">
<rect x="14.4784" y="9.65234" width="385" height="133.283" rx="16.8915" fill="white"/>
<rect width="385" height="77.7829" transform="translate(14.4784 9.65234)" fill="white"/>
<path d="M32.9721 45.5437L29.2753 31.7217H31.505L33.8601 41.2484L34.0918 42.2137H34.1497L34.4393 41.2484L37.3736 31.7217H39.3523L42.1514 41.2484L42.441 42.2137H42.4989L42.7306 41.2484L45.0664 31.7217H47.3057L43.6089 45.5437H41.5047L38.6573 36.0555L38.3484 34.9648H38.2905L37.972 36.0555L35.057 45.5437H32.9721ZM52.3151 45.8622C50.8415 45.8622 49.6382 45.37 48.7052 44.3854C47.7721 43.3945 47.3056 42.13 47.3056 40.5921C47.3056 39.0863 47.7657 37.838 48.6859 36.847C49.606 35.8496 50.7836 35.3509 52.2186 35.3509C53.6407 35.3509 54.7925 35.7885 55.6741 36.6636C56.5621 37.5323 57.0061 38.623 57.0061 39.9357V41.0071H48.4253V39.5979H54.9309C54.8923 38.8836 54.6284 38.2916 54.1394 37.8219C53.6568 37.3521 53.0165 37.1173 52.2186 37.1173C51.3628 37.1173 50.671 37.4294 50.1434 38.0535C49.6157 38.6713 49.3519 39.5078 49.3519 40.5631C49.3519 41.6506 49.6479 42.5161 50.2399 43.1596C50.8319 43.7966 51.5815 44.1152 52.4889 44.1152C52.9136 44.1152 53.2803 44.0573 53.5892 43.9414C53.8981 43.8256 54.1748 43.6679 54.4193 43.4685C54.6703 43.2625 54.9534 42.9312 55.2687 42.4743L56.7745 43.3816C56.3884 44.0508 55.983 44.5495 55.5583 44.8777C55.1336 45.2059 54.667 45.4504 54.1587 45.6113C53.6503 45.7786 53.0358 45.8622 52.3151 45.8622ZM64.2513 45.8622C63.5564 45.8622 62.9097 45.7046 62.3112 45.3893C61.7128 45.074 61.2527 44.6653 60.931 44.1634H60.3904L60.8731 43.6036V45.5437H58.8654V31.7217H60.9696V37.0111L61.0275 37.0208C61.3428 36.5188 61.79 36.1167 62.3692 35.8142C62.9483 35.5053 63.5821 35.3509 64.2706 35.3509C65.6091 35.3509 66.7223 35.8335 67.6103 36.7988C68.4983 37.764 68.9423 39.022 68.9423 40.5728C68.9423 42.1107 68.4983 43.3784 67.6103 44.3758C66.7223 45.3667 65.6027 45.8622 64.2513 45.8622ZM63.8942 44.0283C64.7372 44.0283 65.445 43.7066 66.0177 43.0631C66.5904 42.4196 66.8768 41.5927 66.8768 40.5824C66.8768 39.5786 66.5872 38.7614 66.0081 38.1308C65.4289 37.5001 64.7243 37.1848 63.8942 37.1848C63.0577 37.1848 62.3466 37.5001 61.7611 38.1308C61.1819 38.7549 60.8924 39.5689 60.8924 40.5728C60.8924 41.5895 61.1787 42.4196 61.7514 43.0631C62.3305 43.7066 63.0448 44.0283 63.8942 44.0283ZM79.2185 45.8622C77.8737 45.8622 76.7572 45.3732 75.8692 44.3951C74.9876 43.417 74.5468 42.1558 74.5468 40.6114C74.5468 39.0735 74.9941 37.8155 75.8885 36.8374C76.7894 35.8593 77.9155 35.3702 79.2668 35.3702C79.9553 35.3702 80.5859 35.5247 81.1586 35.8335C81.7378 36.136 82.1721 36.5349 82.4617 37.0304H82.5196V31.7217H84.6045V45.5437H82.6065V43.7966L82.8285 44.1827H82.5486C82.2333 44.6911 81.7764 45.0997 81.1779 45.4086C80.5795 45.711 79.9264 45.8622 79.2185 45.8622ZM79.595 44.0476C80.4379 44.0476 81.149 43.7259 81.7281 43.0824C82.3073 42.4325 82.5968 41.6056 82.5968 40.6017C82.5968 39.5979 82.304 38.7807 81.7185 38.1501C81.1393 37.513 80.4315 37.1945 79.595 37.1945C78.7649 37.1945 78.057 37.5098 77.4715 38.1404C76.8923 38.771 76.6028 39.5947 76.6028 40.6114C76.6028 41.6088 76.8891 42.4325 77.4618 43.0824C78.041 43.7259 78.752 44.0476 79.595 44.0476ZM90.0621 45.8622C88.9746 45.8622 88.093 45.5566 87.4174 44.9453C86.7417 44.334 86.4039 43.5425 86.4039 42.5708C86.4039 41.5734 86.7932 40.7787 87.5718 40.1867C88.3504 39.5883 89.3543 39.289 90.5833 39.289C91.111 39.289 91.6225 39.3469 92.118 39.4628C92.6135 39.5722 93.0157 39.7137 93.3246 39.8875V39.289C93.3246 38.6198 93.0897 38.0825 92.6199 37.6771C92.1502 37.2653 91.5389 37.0594 90.786 37.0594C90.3678 37.0594 90.0138 37.1076 89.7243 37.2041C89.4347 37.2942 89.1805 37.4133 88.9617 37.5613C88.743 37.7093 88.5403 37.8798 88.3536 38.0728C88.167 38.2595 88.0737 38.3528 88.0737 38.3528L86.7514 37.2041C86.7514 37.2041 86.8897 37.069 87.1664 36.7988C87.4496 36.5285 87.7616 36.284 88.1027 36.0652C88.4502 35.8464 88.8427 35.6727 89.2803 35.544C89.7243 35.4153 90.2616 35.3509 90.8922 35.3509C92.2821 35.3509 93.3696 35.7016 94.1547 36.403C94.9397 37.1044 95.3322 38.0728 95.3322 39.3083V45.5437H93.3246V43.2561L93.9327 44.1924H93.2667C92.9642 44.6814 92.5266 45.0836 91.9539 45.3989C91.3812 45.7078 90.7506 45.8622 90.0621 45.8622ZM90.4771 44.2406C91.2751 44.2406 91.9475 43.9575 92.4945 43.3912C93.0479 42.825 93.3246 42.1204 93.3246 41.2774V41.2677C93.0286 41.0811 92.6714 40.9331 92.2532 40.8237C91.8413 40.7144 91.4102 40.6597 90.9598 40.6597C90.194 40.6597 89.5827 40.8141 89.1258 41.123C88.669 41.4318 88.4405 41.8951 88.4405 42.5129C88.4405 43.0341 88.6303 43.4524 89.01 43.7677C89.3961 44.083 89.8851 44.2406 90.4771 44.2406ZM101.215 45.8622C100.566 45.8622 99.9896 45.785 99.4877 45.6306C98.9922 45.4761 98.545 45.2445 98.146 44.9356C97.7535 44.6267 97.4446 44.2889 97.2194 43.9221C97.0006 43.5489 96.8912 43.3623 96.8912 43.3623L98.4645 42.426C98.4645 42.426 98.5514 42.5612 98.7252 42.8314C98.9053 43.1017 99.1209 43.3398 99.3719 43.5457C99.6292 43.7452 99.9124 43.8964 100.221 43.9993C100.537 44.1023 100.91 44.1538 101.341 44.1538C101.926 44.1538 102.393 44.0444 102.74 43.8256C103.088 43.6004 103.262 43.2722 103.262 42.8411C103.262 42.4936 103.117 42.2169 102.827 42.011C102.544 41.8051 101.907 41.5895 100.916 41.3643C99.6292 41.0747 98.6994 40.679 98.1267 40.177C97.5604 39.6751 97.2773 39.0316 97.2773 38.2466C97.2773 37.3972 97.6473 36.7022 98.3873 36.1617C99.1338 35.6212 100.051 35.3509 101.138 35.3509C101.711 35.3509 102.222 35.4153 102.673 35.544C103.13 35.6662 103.542 35.856 103.908 36.1134C104.282 36.3708 104.568 36.6443 104.767 36.9339C104.967 37.217 105.067 37.3586 105.067 37.3586L103.551 38.2949C103.551 38.2949 103.474 38.1983 103.32 38.0053C103.165 37.8058 102.975 37.6321 102.75 37.4841C102.531 37.3361 102.284 37.2299 102.007 37.1655C101.73 37.0948 101.431 37.0594 101.109 37.0594C100.582 37.0594 100.147 37.172 99.8062 37.3972C99.4716 37.6224 99.3043 37.883 99.3043 38.179C99.3043 38.5008 99.4362 38.7742 99.7 38.9995C99.9639 39.2183 100.63 39.4499 101.698 39.6944C103.011 39.9969 103.941 40.399 104.488 40.901C105.035 41.4029 105.308 42.011 105.308 42.7252C105.308 43.6647 104.928 44.424 104.169 45.0032C103.41 45.5759 102.425 45.8622 101.215 45.8622ZM107.014 45.5437V31.7217H109.098V37.1173H109.156C109.446 36.5961 109.874 36.1714 110.44 35.8432C111.006 35.515 111.627 35.3509 112.303 35.3509C113.448 35.3509 114.336 35.692 114.967 36.3741C115.604 37.0561 115.923 37.9828 115.923 39.1539V45.5437H113.828V39.5496C113.828 38.7839 113.638 38.1951 113.259 37.7833C112.879 37.365 112.342 37.1559 111.647 37.1559C110.952 37.1559 110.356 37.4455 109.861 38.0246C109.366 38.6037 109.118 39.2762 109.118 40.0419V45.5437H107.014ZM123.617 45.8622C122.922 45.8622 122.275 45.7046 121.676 45.3893C121.078 45.074 120.618 44.6653 120.296 44.1634H119.756L120.238 43.6036V45.5437H118.231V31.7217H120.335V37.0111L120.393 37.0208C120.708 36.5188 121.155 36.1167 121.734 35.8142C122.313 35.5053 122.947 35.3509 123.636 35.3509C124.974 35.3509 126.088 35.8335 126.976 36.7988C127.864 37.764 128.308 39.022 128.308 40.5728C128.308 42.1107 127.864 43.3784 126.976 44.3758C126.088 45.3667 124.968 45.8622 123.617 45.8622ZM123.259 44.0283C124.102 44.0283 124.81 43.7066 125.383 43.0631C125.956 42.4196 126.242 41.5927 126.242 40.5824C126.242 39.5786 125.952 38.7614 125.373 38.1308C124.794 37.5001 124.089 37.1848 123.259 37.1848C122.423 37.1848 121.712 37.5001 121.126 38.1308C120.547 38.7549 120.258 39.5689 120.258 40.5728C120.258 41.5895 120.544 42.4196 121.117 43.0631C121.696 43.7066 122.41 44.0283 123.259 44.0283ZM134.778 45.8622C133.279 45.8622 132.04 45.3635 131.062 44.3661C130.084 43.3687 129.595 42.1139 129.595 40.6017C129.595 39.0702 130.084 37.8122 131.062 36.8277C132.047 35.8432 133.285 35.3509 134.778 35.3509C136.271 35.3509 137.51 35.8464 138.494 36.8374C139.479 37.8283 139.971 39.0831 139.971 40.6017C139.971 42.1139 139.482 43.3687 138.504 44.3661C137.526 45.3635 136.284 45.8622 134.778 45.8622ZM134.778 44.0283C135.66 44.0283 136.4 43.7098 136.998 43.0727C137.597 42.4292 137.896 41.6056 137.896 40.6017C137.896 39.5786 137.593 38.7549 136.989 38.1308C136.39 37.5001 135.653 37.1848 134.778 37.1848C133.897 37.1848 133.153 37.5001 132.548 38.1308C131.95 38.7614 131.651 39.585 131.651 40.6017C131.651 41.6056 131.947 42.4292 132.539 43.0727C133.137 43.7098 133.884 44.0283 134.778 44.0283ZM144.865 45.8622C143.778 45.8622 142.896 45.5566 142.22 44.9453C141.545 44.334 141.207 43.5425 141.207 42.5708C141.207 41.5734 141.596 40.7787 142.375 40.1867C143.153 39.5883 144.157 39.289 145.386 39.289C145.914 39.289 146.426 39.3469 146.921 39.4628C147.417 39.5722 147.819 39.7137 148.128 39.8875V39.289C148.128 38.6198 147.893 38.0825 147.423 37.6771C146.953 37.2653 146.342 37.0594 145.589 37.0594C145.171 37.0594 144.817 37.1076 144.527 37.2041C144.238 37.2942 143.984 37.4133 143.765 37.5613C143.546 37.7093 143.343 37.8798 143.157 38.0728C142.97 38.2595 142.877 38.3528 142.877 38.3528L141.554 37.2041C141.554 37.2041 141.693 37.069 141.969 36.7988C142.253 36.5285 142.565 36.284 142.906 36.0652C143.253 35.8464 143.646 35.6727 144.083 35.544C144.527 35.4153 145.065 35.3509 145.695 35.3509C147.085 35.3509 148.173 35.7016 148.958 36.403C149.743 37.1044 150.135 38.0728 150.135 39.3083V45.5437H148.128V43.2561L148.736 44.1924H148.07C147.767 44.6814 147.33 45.0836 146.757 45.3989C146.184 45.7078 145.554 45.8622 144.865 45.8622ZM145.28 44.2406C146.078 44.2406 146.75 43.9575 147.297 43.3912C147.851 42.825 148.128 42.1204 148.128 41.2774V41.2677C147.832 41.0811 147.474 40.9331 147.056 40.8237C146.644 40.7144 146.213 40.6597 145.763 40.6597C144.997 40.6597 144.386 40.8141 143.929 41.123C143.472 41.4318 143.244 41.8951 143.244 42.5129C143.244 43.0341 143.433 43.4524 143.813 43.7677C144.199 44.083 144.688 44.2406 145.28 44.2406ZM152.447 45.5437V35.6694H154.455V37.4841L154.175 37.2331H154.513C154.693 36.699 155.053 36.2518 155.594 35.8914C156.134 35.5311 156.701 35.3509 157.293 35.3509C157.46 35.3509 157.634 35.367 157.814 35.3992C158 35.4249 158.164 35.4603 158.306 35.5053C158.454 35.5504 158.528 35.5729 158.528 35.5729V37.6578C158.528 37.6578 158.428 37.6256 158.229 37.5613C158.029 37.4969 157.82 37.4487 157.601 37.4165C157.389 37.3779 157.206 37.3586 157.051 37.3586C156.35 37.3586 155.758 37.6288 155.275 38.1694C154.793 38.7035 154.551 39.3695 154.551 40.1674V45.5437H152.447ZM163.732 45.8622C162.388 45.8622 161.271 45.3732 160.383 44.3951C159.501 43.417 159.061 42.1558 159.061 40.6114C159.061 39.0735 159.508 37.8155 160.402 36.8374C161.303 35.8593 162.429 35.3702 163.781 35.3702C164.469 35.3702 165.1 35.5247 165.673 35.8335C166.252 36.136 166.686 36.5349 166.976 37.0304H167.033V31.7217H169.118V45.5437H167.12V43.7966L167.342 44.1827H167.062C166.747 44.6911 166.29 45.0997 165.692 45.4086C165.093 45.711 164.44 45.8622 163.732 45.8622ZM164.109 44.0476C164.952 44.0476 165.663 43.7259 166.242 43.0824C166.821 42.4325 167.111 41.6056 167.111 40.6017C167.111 39.5979 166.818 38.7807 166.232 38.1501C165.653 37.513 164.945 37.1945 164.109 37.1945C163.279 37.1945 162.571 37.5098 161.985 38.1404C161.406 38.771 161.117 39.5947 161.117 40.6114C161.117 41.6088 161.403 42.4325 161.976 43.0824C162.555 43.7259 163.266 44.0476 164.109 44.0476ZM175.824 45.5437V31.7217H177.928V45.5437H175.824ZM184.962 45.8622C183.463 45.8622 182.224 45.3635 181.246 44.3661C180.268 43.3687 179.779 42.1139 179.779 40.6017C179.779 39.0702 180.268 37.8122 181.246 36.8277C182.231 35.8432 183.47 35.3509 184.962 35.3509C186.455 35.3509 187.694 35.8464 188.679 36.8374C189.663 37.8283 190.155 39.0831 190.155 40.6017C190.155 42.1139 189.666 43.3687 188.688 44.3661C187.71 45.3635 186.468 45.8622 184.962 45.8622ZM184.962 44.0283C185.844 44.0283 186.584 43.7098 187.182 43.0727C187.781 42.4292 188.08 41.6056 188.08 40.6017C188.08 39.5786 187.778 38.7549 187.173 38.1308C186.574 37.5001 185.838 37.1848 184.962 37.1848C184.081 37.1848 183.338 37.5001 182.733 38.1308C182.134 38.7614 181.835 39.585 181.835 40.6017C181.835 41.6056 182.131 42.4292 182.723 43.0727C183.322 43.7098 184.068 44.0283 184.962 44.0283ZM195.049 45.8622C193.962 45.8622 193.08 45.5566 192.405 44.9453C191.729 44.334 191.391 43.5425 191.391 42.5708C191.391 41.5734 191.78 40.7787 192.559 40.1867C193.338 39.5883 194.341 39.289 195.571 39.289C196.098 39.289 196.61 39.3469 197.105 39.4628C197.601 39.5722 198.003 39.7137 198.312 39.8875V39.289C198.312 38.6198 198.077 38.0825 197.607 37.6771C197.137 37.2653 196.526 37.0594 195.773 37.0594C195.355 37.0594 195.001 37.1076 194.711 37.2041C194.422 37.2942 194.168 37.4133 193.949 37.5613C193.73 37.7093 193.527 37.8798 193.341 38.0728C193.154 38.2595 193.061 38.3528 193.061 38.3528L191.739 37.2041C191.739 37.2041 191.877 37.069 192.154 36.7988C192.437 36.5285 192.749 36.284 193.09 36.0652C193.437 35.8464 193.83 35.6727 194.267 35.544C194.711 35.4153 195.249 35.3509 195.879 35.3509C197.269 35.3509 198.357 35.7016 199.142 36.403C199.927 37.1044 200.319 38.0728 200.319 39.3083V45.5437H198.312V43.2561L198.92 44.1924H198.254C197.951 44.6814 197.514 45.0836 196.941 45.3989C196.368 45.7078 195.738 45.8622 195.049 45.8622ZM195.464 44.2406C196.262 44.2406 196.935 43.9575 197.482 43.3912C198.035 42.825 198.312 42.1204 198.312 41.2774V41.2677C198.016 41.0811 197.659 40.9331 197.24 40.8237C196.829 40.7144 196.397 40.6597 195.947 40.6597C195.181 40.6597 194.57 40.8141 194.113 41.123C193.656 41.4318 193.428 41.8951 193.428 42.5129C193.428 43.0341 193.618 43.4524 193.997 43.7677C194.383 44.083 194.872 44.2406 195.464 44.2406ZM206.753 45.8622C205.408 45.8622 204.292 45.3732 203.404 44.3951C202.522 43.417 202.081 42.1558 202.081 40.6114C202.081 39.0735 202.528 37.8155 203.423 36.8374C204.324 35.8593 205.45 35.3702 206.801 35.3702C207.49 35.3702 208.12 35.5247 208.693 35.8335C209.272 36.136 209.706 36.5349 209.996 37.0304H210.054V31.7217H212.139V45.5437H210.141V43.7966L210.363 44.1827H210.083C209.768 44.6911 209.311 45.0997 208.712 45.4086C208.114 45.711 207.461 45.8622 206.753 45.8622ZM207.129 44.0476C207.972 44.0476 208.683 43.7259 209.262 43.0824C209.842 42.4325 210.131 41.6056 210.131 40.6017C210.131 39.5979 209.838 38.7807 209.253 38.1501C208.674 37.513 207.966 37.1945 207.129 37.1945C206.299 37.1945 205.591 37.5098 205.006 38.1404C204.427 38.771 204.137 39.5947 204.137 40.6114C204.137 41.6088 204.423 42.4325 204.996 43.0824C205.575 43.7259 206.286 44.0476 207.129 44.0476ZM214.652 45.5437V35.6694H216.747V45.5437H214.652ZM215.705 33.7969C215.344 33.7969 215.035 33.6714 214.778 33.4205C214.527 33.1631 214.402 32.8542 214.402 32.4938C214.402 32.1206 214.527 31.815 214.778 31.5769C215.035 31.3324 215.344 31.2101 215.705 31.2101C216.078 31.2101 216.383 31.3324 216.622 31.5769C216.866 31.815 216.988 32.1206 216.988 32.4938C216.988 32.8542 216.866 33.1631 216.622 33.4205C216.383 33.6714 216.078 33.7969 215.705 33.7969ZM219.259 45.5437V35.6694H221.267V37.4358L220.987 37.1173H221.324C221.62 36.5961 222.068 36.1714 222.666 35.8432C223.271 35.515 223.898 35.3509 224.548 35.3509C225.687 35.3509 226.575 35.6887 227.212 36.3644C227.849 37.0401 228.168 37.9667 228.168 39.1442V45.5437H226.073V39.5496C226.073 38.7646 225.884 38.1726 225.504 37.7736C225.131 37.3682 224.577 37.1655 223.844 37.1655C223.136 37.1655 222.544 37.4422 222.068 37.9956C221.598 38.549 221.363 39.2118 221.363 39.984V45.5437H219.259ZM234.897 50.0224C234.253 50.0224 233.664 49.9387 233.13 49.7714C232.596 49.6041 232.114 49.3563 231.682 49.0282C231.251 48.7 230.92 48.3364 230.688 47.9375C230.457 47.5385 230.341 47.339 230.341 47.339L232.068 46.451C232.068 46.451 232.159 46.5958 232.339 46.8854C232.519 47.1814 232.734 47.4323 232.985 47.6382C233.243 47.8506 233.532 48.0115 233.854 48.1209C234.182 48.2302 234.523 48.2849 234.877 48.2849C235.836 48.2849 236.566 48.0082 237.068 47.4548C237.577 46.9015 237.831 46.1261 237.831 45.1287V44.0766H237.773C237.432 44.5785 236.978 44.9742 236.412 45.2638C235.852 45.5469 235.222 45.6885 234.52 45.6885C233.201 45.6885 232.104 45.2187 231.229 44.2793C230.36 43.3398 229.926 42.0818 229.926 40.5052C229.926 38.9609 230.37 37.7157 231.258 36.7698C232.146 35.8239 233.249 35.3509 234.568 35.3509C235.25 35.3509 235.881 35.4957 236.46 35.7853C237.046 36.0748 237.506 36.4738 237.841 36.9821H238.381L237.898 37.542V35.6694H239.906V45.0804C239.906 46.6569 239.459 47.8731 238.564 48.7289C237.676 49.5912 236.454 50.0224 234.897 50.0224ZM234.945 43.8739C235.801 43.8739 236.505 43.565 237.059 42.9472C237.612 42.3231 237.889 41.4962 237.889 40.4666C237.889 39.4628 237.612 38.6616 237.059 38.0632C236.505 37.4583 235.801 37.1559 234.945 37.1559C234.095 37.1559 233.388 37.4551 232.821 38.0535C232.262 38.652 231.982 39.466 231.982 40.4956C231.982 41.5702 232.258 42.4035 232.812 42.9955C233.372 43.5811 234.083 43.8739 234.945 43.8739ZM251.073 45.8622C249.599 45.8622 248.396 45.37 247.463 44.3854C246.53 43.3945 246.063 42.13 246.063 40.5921C246.063 39.0863 246.523 37.838 247.443 36.847C248.363 35.8496 249.541 35.3509 250.976 35.3509C252.398 35.3509 253.55 35.7885 254.432 36.6636C255.32 37.5323 255.764 38.623 255.764 39.9357V41.0071H247.183V39.5979H253.688C253.65 38.8836 253.386 38.2916 252.897 37.8219C252.414 37.3521 251.774 37.1173 250.976 37.1173C250.12 37.1173 249.428 37.4294 248.901 38.0535C248.373 38.6713 248.109 39.5078 248.109 40.5631C248.109 41.6506 248.405 42.5161 248.997 43.1596C249.589 43.7966 250.339 44.1152 251.246 44.1152C251.671 44.1152 252.038 44.0573 252.347 43.9414C252.656 43.8256 252.932 43.6679 253.177 43.4685C253.428 43.2625 253.711 42.9312 254.026 42.4743L255.532 43.3816C255.146 44.0508 254.74 44.5495 254.316 44.8777C253.891 45.2059 253.424 45.4504 252.916 45.6113C252.408 45.7786 251.793 45.8622 251.073 45.8622ZM257.623 45.5437V35.6694H259.631V37.4841L259.351 37.2331H259.688C259.869 36.699 260.229 36.2518 260.769 35.8914C261.31 35.5311 261.876 35.3509 262.468 35.3509C262.636 35.3509 262.809 35.367 262.989 35.3992C263.176 35.4249 263.34 35.4603 263.482 35.5053C263.63 35.5504 263.704 35.5729 263.704 35.5729V37.6578C263.704 37.6578 263.604 37.6256 263.405 37.5613C263.205 37.4969 262.996 37.4487 262.777 37.4165C262.565 37.3779 262.381 37.3586 262.227 37.3586C261.526 37.3586 260.934 37.6288 260.451 38.1694C259.968 38.7035 259.727 39.3695 259.727 40.1674V45.5437H257.623ZM265.239 45.5437V35.6694H267.247V37.4841L266.967 37.2331H267.305C267.485 36.699 267.845 36.2518 268.386 35.8914C268.926 35.5311 269.493 35.3509 270.085 35.3509C270.252 35.3509 270.426 35.367 270.606 35.3992C270.792 35.4249 270.956 35.4603 271.098 35.5053C271.246 35.5504 271.32 35.5729 271.32 35.5729V37.6578C271.32 37.6578 271.22 37.6256 271.021 37.5613C270.821 37.4969 270.612 37.4487 270.393 37.4165C270.181 37.3779 269.998 37.3586 269.843 37.3586C269.142 37.3586 268.55 37.6288 268.067 38.1694C267.585 38.7035 267.343 39.3695 267.343 40.1674V45.5437H265.239ZM277.036 45.8622C275.537 45.8622 274.298 45.3635 273.32 44.3661C272.342 43.3687 271.853 42.1139 271.853 40.6017C271.853 39.0702 272.342 37.8122 273.32 36.8277C274.304 35.8432 275.543 35.3509 277.036 35.3509C278.529 35.3509 279.768 35.8464 280.752 36.8374C281.737 37.8283 282.229 39.0831 282.229 40.6017C282.229 42.1139 281.74 43.3687 280.762 44.3661C279.784 45.3635 278.542 45.8622 277.036 45.8622ZM277.036 44.0283C277.918 44.0283 278.658 43.7098 279.256 43.0727C279.854 42.4292 280.154 41.6056 280.154 40.6017C280.154 39.5786 279.851 38.7549 279.246 38.1308C278.648 37.5001 277.911 37.1848 277.036 37.1848C276.154 37.1848 275.411 37.5001 274.806 38.1308C274.208 38.7614 273.909 39.585 273.909 40.6017C273.909 41.6056 274.205 42.4292 274.797 43.0727C275.395 43.7098 276.142 44.0283 277.036 44.0283ZM284.053 45.5437V35.6694H286.061V37.4841L285.781 37.2331H286.119C286.299 36.699 286.66 36.2518 287.2 35.8914C287.741 35.5311 288.307 35.3509 288.899 35.3509C289.066 35.3509 289.24 35.367 289.42 35.3992C289.607 35.4249 289.771 35.4603 289.912 35.5053C290.06 35.5504 290.134 35.5729 290.134 35.5729V37.6578C290.134 37.6578 290.035 37.6256 289.835 37.5613C289.636 37.4969 289.427 37.4487 289.208 37.4165C288.995 37.3779 288.812 37.3586 288.658 37.3586C287.956 37.3586 287.364 37.6288 286.882 38.1694C286.399 38.7035 286.158 39.3695 286.158 40.1674V45.5437H284.053Z" fill="black"/>
<path d="M30.2526 70.3699V60.0033H36.1091V61.2485H31.5846V70.3699H30.2526ZM30.9693 65.8381V64.6075H35.7906V65.8381H30.9693ZM40.9509 70.6088C39.8216 70.6088 38.9022 70.2372 38.1928 69.4939C37.4833 68.7459 37.1286 67.7831 37.1286 66.6055C37.1286 65.4713 37.4737 64.523 38.1638 63.7605C38.8588 62.9931 39.7588 62.6095 40.864 62.6095C41.9499 62.6095 42.8186 62.9376 43.4701 63.594C44.1217 64.2503 44.4474 65.0732 44.4474 66.0626V66.9095H37.8887V65.8526H43.1082C43.0792 65.2638 42.8669 64.7716 42.4711 64.3758C42.0754 63.9801 41.5397 63.7822 40.864 63.7822C40.1546 63.7822 39.573 64.0356 39.1194 64.5423C38.6705 65.0491 38.4461 65.7344 38.4461 66.5983C38.4461 67.4911 38.6899 68.186 39.1773 68.6831C39.6647 69.1802 40.2776 69.4288 41.016 69.4288C41.3539 69.4288 41.6459 69.3853 41.892 69.2985C42.1381 69.2116 42.365 69.0909 42.5725 68.9365C42.78 68.7772 43.0117 68.5239 43.2674 68.1764L44.2737 68.7917C43.9889 69.2792 43.6897 69.6411 43.376 69.8776C43.0623 70.1141 42.7148 70.2951 42.3336 70.4205C41.9523 70.546 41.4914 70.6088 40.9509 70.6088ZM49.9914 70.6088C49.4219 70.6088 48.9055 70.4833 48.4422 70.2323C47.9837 69.9814 47.6314 69.6653 47.3853 69.284H47.0523L47.3419 68.922V70.3699H46.075V59.8658H47.3925V63.9994H47.436C47.6676 63.6036 48.0127 63.273 48.4712 63.0076C48.9297 62.7422 49.4533 62.6095 50.0421 62.6095C51.0556 62.6095 51.905 62.9762 52.5903 63.7098C53.2804 64.4386 53.6255 65.4014 53.6255 66.5983C53.6255 67.7758 53.278 68.7386 52.583 69.4867C51.8929 70.2347 51.029 70.6088 49.9914 70.6088ZM49.8104 69.4505C50.5247 69.4505 51.1159 69.1875 51.584 68.6614C52.057 68.1305 52.2935 67.4428 52.2935 66.5983C52.2935 65.7537 52.0546 65.0708 51.5768 64.5496C51.1038 64.0283 50.515 63.7677 49.8104 63.7677C49.1251 63.7677 48.5387 64.0283 48.0513 64.5496C47.5687 65.0708 47.3274 65.7561 47.3274 66.6055C47.3274 67.4549 47.5639 68.1426 48.0368 68.6687C48.5146 69.1899 49.1058 69.4505 49.8104 69.4505ZM60.6551 70.3699V61.8493L58.7295 63.2537L58.0345 62.2475L61.1256 60.0033H61.9871V70.3699H60.6551ZM68.1005 70.6088C66.8602 70.6088 65.8684 70.1068 65.1252 69.103C64.3868 68.0944 64.0176 66.7865 64.0176 65.1794C64.0176 63.5771 64.3868 62.274 65.1252 61.2702C65.8684 60.2664 66.8602 59.7644 68.1005 59.7644C69.3505 59.7644 70.3471 60.2664 71.0903 61.2702C71.8335 62.274 72.2051 63.5771 72.2051 65.1794C72.2051 66.7865 71.8335 68.0944 71.0903 69.103C70.3471 70.1068 69.3505 70.6088 68.1005 70.6088ZM68.1077 69.3564C68.9909 69.3564 69.6666 68.9751 70.1347 68.2126C70.6028 67.4501 70.8369 66.439 70.8369 65.1794C70.8369 63.9197 70.6028 62.9111 70.1347 62.1534C69.6666 61.3957 68.9909 61.0168 68.1077 61.0168C67.2245 61.0168 66.5489 61.3957 66.0807 62.1534C65.6174 62.9111 65.3858 63.9197 65.3858 65.1794C65.3858 66.439 65.6174 67.4501 66.0807 68.2126C66.5489 68.9751 67.2245 69.3564 68.1077 69.3564ZM73.3421 71.6367L74.2253 70.3626C74.0419 70.3144 73.8851 70.2106 73.7548 70.0513C73.6244 69.8921 73.5593 69.7015 73.5593 69.4795C73.5593 69.214 73.6534 68.9872 73.8416 68.799C74.0298 68.6059 74.2639 68.5094 74.5438 68.5094C74.8189 68.5094 75.0506 68.6059 75.2388 68.799C75.4318 68.9872 75.5284 69.214 75.5284 69.4795C75.5284 69.6194 75.497 69.7666 75.4342 69.921C75.3715 70.0707 75.2581 70.2685 75.094 70.5147L74.0371 72.1073C74.0371 72.1073 73.8054 71.9504 73.3421 71.6367ZM80.5941 70.3699V69.1175L84.1413 65.3531C84.6143 64.8512 84.9714 64.3975 85.2127 63.9921C85.4588 63.5819 85.5819 63.1645 85.5819 62.7398C85.5819 62.2234 85.4202 61.8083 85.0969 61.4946C84.7784 61.1761 84.3464 61.0168 83.8011 61.0168C83.4825 61.0168 83.2171 61.0627 83.0048 61.1544C82.7924 61.2461 82.5969 61.386 82.4184 61.5742C82.2398 61.7625 82.083 61.9845 81.9478 62.2403C81.8175 62.496 81.7524 62.6239 81.7524 62.6239L80.5651 62.1461C80.5651 62.1461 80.6472 61.9628 80.8113 61.596C80.9754 61.2244 81.195 60.9058 81.47 60.6404C81.7451 60.375 82.0709 60.1626 82.4473 60.0033C82.8286 59.8441 83.2895 59.7644 83.83 59.7644C84.7518 59.7644 85.5047 60.0444 86.0887 60.6042C86.6774 61.1592 86.9718 61.8662 86.9718 62.7253C86.9718 63.2851 86.8367 63.8256 86.5664 64.3469C86.2962 64.8681 85.8546 65.44 85.2417 66.0626L82.317 69.0741L82.3387 69.1175H87.1239V70.3699H80.5941ZM92.6459 70.6088C91.4056 70.6088 90.4138 70.1068 89.6706 69.103C88.9322 68.0944 88.563 66.7865 88.563 65.1794C88.563 63.5771 88.9322 62.274 89.6706 61.2702C90.4138 60.2664 91.4056 59.7644 92.6459 59.7644C93.8959 59.7644 94.8925 60.2664 95.6357 61.2702C96.3789 62.274 96.7505 63.5771 96.7505 65.1794C96.7505 66.7865 96.3789 68.0944 95.6357 69.103C94.8925 70.1068 93.8959 70.6088 92.6459 70.6088ZM92.6531 69.3564C93.5363 69.3564 94.212 68.9751 94.6801 68.2126C95.1482 67.4501 95.3823 66.439 95.3823 65.1794C95.3823 63.9197 95.1482 62.9111 94.6801 62.1534C94.212 61.3957 93.5363 61.0168 92.6531 61.0168C91.7699 61.0168 91.0943 61.3957 90.6262 62.1534C90.1628 62.9111 89.9312 63.9197 89.9312 65.1794C89.9312 66.439 90.1628 67.4501 90.6262 68.2126C91.0943 68.9751 91.7699 69.3564 92.6531 69.3564ZM98.1407 70.3699V69.1175L101.688 65.3531C102.161 64.8512 102.518 64.3975 102.759 63.9921C103.005 63.5819 103.128 63.1645 103.128 62.7398C103.128 62.2234 102.967 61.8083 102.643 61.4946C102.325 61.1761 101.893 61.0168 101.348 61.0168C101.029 61.0168 100.764 61.0627 100.551 61.1544C100.339 61.2461 100.144 61.386 99.9649 61.5742C99.7864 61.7625 99.6295 61.9845 99.4944 62.2403C99.3641 62.496 99.2989 62.6239 99.2989 62.6239L98.1117 62.1461C98.1117 62.1461 98.1938 61.9628 98.3578 61.596C98.5219 61.2244 98.7415 60.9058 99.0166 60.6404C99.2917 60.375 99.6175 60.1626 99.9939 60.0033C100.375 59.8441 100.836 59.7644 101.377 59.7644C102.298 59.7644 103.051 60.0444 103.635 60.6042C104.224 61.1592 104.518 61.8662 104.518 62.7253C104.518 63.2851 104.383 63.8256 104.113 64.3469C103.843 64.8681 103.401 65.44 102.788 66.0626L99.8636 69.0741L99.8853 69.1175H104.67V70.3699H98.1407ZM109.461 70.6088C108.882 70.6088 108.373 70.5098 107.934 70.312C107.495 70.1141 107.123 69.8414 106.819 69.4939C106.515 69.1416 106.293 68.7772 106.153 68.4008C106.013 68.0244 105.943 67.8362 105.943 67.8362L107.152 67.4018C107.152 67.4018 107.207 67.5369 107.319 67.8072C107.43 68.0775 107.582 68.3381 107.775 68.589C107.968 68.84 108.199 69.0306 108.47 69.1609C108.745 69.2912 109.078 69.3564 109.469 69.3564C110.101 69.3564 110.62 69.1513 111.025 68.7411C111.43 68.3308 111.633 67.7927 111.633 67.1267C111.633 66.4752 111.43 65.9491 111.025 65.5486C110.624 65.148 110.11 64.9477 109.483 64.9477C109.136 64.9477 108.815 65.0105 108.52 65.1359C108.226 65.2566 107.919 65.5148 107.601 65.9105L106.283 65.3821L106.964 60.0033H112.328V61.2557H108.021L107.615 64.4193L107.666 64.4337C107.936 64.2069 108.243 64.0307 108.585 63.9053C108.928 63.775 109.317 63.7098 109.751 63.7098C110.653 63.7098 111.413 64.0332 112.031 64.6799C112.654 65.3266 112.965 66.147 112.965 67.1412C112.965 68.1305 112.634 68.9558 111.973 69.617C111.312 70.2782 110.475 70.6088 109.461 70.6088Z" fill="black" fill-opacity="0.56"/>
<circle cx="128.435" cy="65.8699" r="2.41307" fill="#A3A3A3"/>
<path d="M146.388 70.3699V60.5825H147.72V70.3699H146.388ZM143.341 61.2485V60.0033H150.761V61.2485H143.341ZM154.328 70.6088C153.199 70.6088 152.279 70.2372 151.57 69.4939C150.86 68.7459 150.506 67.7831 150.506 66.6055C150.506 65.4713 150.851 64.523 151.541 63.7605C152.236 62.9931 153.136 62.6095 154.241 62.6095C155.327 62.6095 156.196 62.9376 156.847 63.594C157.499 64.2503 157.825 65.0732 157.825 66.0626V66.9095H151.266V65.8526H156.485C156.456 65.2638 156.244 64.7716 155.848 64.3758C155.452 63.9801 154.917 63.7822 154.241 63.7822C153.532 63.7822 152.95 64.0356 152.496 64.5423C152.048 65.0491 151.823 65.7344 151.823 66.5983C151.823 67.4911 152.067 68.186 152.554 68.6831C153.042 69.1802 153.655 69.4288 154.393 69.4288C154.731 69.4288 155.023 69.3853 155.269 69.2985C155.515 69.2116 155.742 69.0909 155.95 68.9365C156.157 68.7772 156.389 68.5239 156.645 68.1764L157.651 68.7917C157.366 69.2792 157.067 69.6411 156.753 69.8776C156.439 70.1141 156.092 70.2951 155.711 70.4205C155.329 70.546 154.869 70.6088 154.328 70.6088ZM162.862 70.6088C161.723 70.6088 160.794 70.2299 160.075 69.4722C159.36 68.7097 159.003 67.7469 159.003 66.5838C159.003 65.4255 159.363 64.4723 160.082 63.7243C160.801 62.9762 161.73 62.6022 162.869 62.6022C163.294 62.6022 163.687 62.6577 164.049 62.7687C164.416 62.8797 164.751 63.0559 165.055 63.2972C165.364 63.5337 165.668 63.8836 165.967 64.3469L164.947 65.0056C164.725 64.6823 164.515 64.4386 164.317 64.2745C164.124 64.1104 163.902 63.9921 163.651 63.9197C163.4 63.8425 163.125 63.8039 162.826 63.8039C162.126 63.8039 161.532 64.0597 161.045 64.5713C160.562 65.078 160.321 65.7489 160.321 66.5838C160.321 67.4139 160.562 68.0944 161.045 68.6252C161.527 69.1513 162.121 69.4143 162.826 69.4143C163.134 69.4143 163.419 69.3733 163.68 69.2912C163.945 69.2044 164.174 69.0861 164.368 68.9365C164.561 68.7821 164.785 68.5166 165.041 68.1402L166.083 68.799C165.76 69.3009 165.444 69.6701 165.135 69.9066C164.831 70.1382 164.486 70.312 164.1 70.4278C163.714 70.5484 163.301 70.6088 162.862 70.6088ZM167.497 70.3699V59.8658H168.815V63.9125H168.858C169.08 63.5361 169.408 63.2248 169.843 62.9787C170.277 62.7325 170.774 62.6095 171.334 62.6095C172.217 62.6095 172.898 62.8604 173.375 63.3623C173.858 63.8594 174.099 64.5471 174.099 65.4255V70.3699H172.782V65.6716C172.782 65.0442 172.627 64.5713 172.319 64.2528C172.01 63.9342 171.563 63.775 170.979 63.775C170.366 63.775 169.852 64.0042 169.437 64.4627C169.022 64.9212 168.815 65.4569 168.815 66.0698V70.3699H167.497ZM177.515 70.3699L175.126 62.8483H176.458L177.971 67.9882L178.196 68.7772H178.239L178.471 68.0244L180.085 62.8483H181.374L182.995 67.9882L183.234 68.7628H183.278L183.495 68.0027L185.015 62.8483H186.304L183.908 70.3699H182.619L180.932 65.1287L180.722 64.4048H180.679L180.469 65.1287L178.811 70.3699H177.515ZM187.576 70.3699V62.8483H188.894V70.3699H187.576ZM188.235 61.3136C187.994 61.3136 187.786 61.2268 187.613 61.053C187.439 60.8793 187.352 60.6718 187.352 60.4305C187.352 60.1843 187.439 59.9792 187.613 59.8151C187.786 59.651 187.994 59.569 188.235 59.569C188.486 59.569 188.694 59.651 188.858 59.8151C189.022 59.9792 189.104 60.1843 189.104 60.4305C189.104 60.6718 189.022 60.8793 188.858 61.053C188.694 61.2268 188.486 61.3136 188.235 61.3136ZM193.587 70.6088C193.09 70.6088 192.653 70.5436 192.277 70.4133C191.905 70.283 191.575 70.0924 191.285 69.8414C191 69.5905 190.786 69.325 190.641 69.0451C190.496 68.7652 190.424 68.6252 190.424 68.6252L191.517 68.0823C191.517 68.0823 191.58 68.1885 191.705 68.4008C191.831 68.6132 191.985 68.8038 192.168 68.9727C192.352 69.1368 192.562 69.2623 192.798 69.3491C193.035 69.4312 193.317 69.4722 193.645 69.4722C194.128 69.4722 194.514 69.3757 194.803 69.1826C195.098 68.9848 195.245 68.7097 195.245 68.3574C195.245 68.0437 195.12 67.7975 194.869 67.619C194.622 67.4356 194.147 67.2618 193.442 67.0978C192.448 66.8613 191.746 66.5596 191.336 66.1929C190.926 65.8212 190.721 65.3362 190.721 64.7378C190.721 64.12 190.988 63.6109 191.524 63.2103C192.06 62.8049 192.721 62.6022 193.508 62.6022C193.928 62.6022 194.299 62.6505 194.622 62.747C194.951 62.8435 195.25 62.9907 195.52 63.1886C195.79 63.3865 195.993 63.594 196.128 63.8112C196.263 64.0235 196.331 64.1297 196.331 64.1297L195.281 64.6943C195.281 64.6943 195.223 64.6195 195.108 64.4699C194.997 64.3155 194.864 64.1828 194.709 64.0718C194.555 63.9608 194.379 63.8811 194.181 63.8329C193.983 63.7798 193.754 63.7532 193.493 63.7532C193.049 63.7532 192.69 63.8474 192.415 64.0356C192.139 64.219 192.002 64.4386 192.002 64.6943C192.002 64.9453 192.098 65.1649 192.291 65.3531C192.489 65.5365 193.027 65.7392 193.906 65.9612C194.871 66.1977 195.552 66.5041 195.947 66.8806C196.343 67.2522 196.541 67.7131 196.541 68.2633C196.541 68.9727 196.263 69.5422 195.708 69.9717C195.153 70.3964 194.446 70.6088 193.587 70.6088ZM201.425 70.6088C200.296 70.6088 199.376 70.2372 198.667 69.4939C197.958 68.7459 197.603 67.7831 197.603 66.6055C197.603 65.4713 197.948 64.523 198.638 63.7605C199.333 62.9931 200.233 62.6095 201.338 62.6095C202.424 62.6095 203.293 62.9376 203.944 63.594C204.596 64.2503 204.922 65.0732 204.922 66.0626V66.9095H198.363V65.8526H203.582C203.554 65.2638 203.341 64.7716 202.945 64.3758C202.55 63.9801 202.014 63.7822 201.338 63.7822C200.629 63.7822 200.047 64.0356 199.594 64.5423C199.145 65.0491 198.92 65.7344 198.92 66.5983C198.92 67.4911 199.164 68.186 199.652 68.6831C200.139 69.1802 200.752 69.4288 201.49 69.4288C201.828 69.4288 202.12 69.3853 202.366 69.2985C202.612 69.2116 202.839 69.0909 203.047 68.9365C203.254 68.7772 203.486 68.5239 203.742 68.1764L204.748 68.7917C204.463 69.2792 204.164 69.6411 203.85 69.8776C203.537 70.1141 203.189 70.2951 202.808 70.4205C202.427 70.546 201.966 70.6088 201.425 70.6088ZM210.324 70.3699V60.0033H211.656V69.1247H216.26V70.3699H210.324ZM220.321 70.6088C219.703 70.6088 219.206 70.423 218.829 70.0513C218.458 69.6749 218.272 69.1609 218.272 68.5094V60.8141H219.582V68.2705C219.582 68.6518 219.662 68.9365 219.821 69.1247C219.98 69.313 220.222 69.4071 220.545 69.4071C220.637 69.4071 220.736 69.395 220.842 69.3709C220.953 69.3467 221.086 69.3057 221.24 69.2478C221.399 69.1851 221.479 69.1537 221.479 69.1537L221.646 70.2902C221.646 70.2902 221.568 70.3216 221.414 70.3844C221.259 70.4519 221.093 70.505 220.914 70.5436C220.741 70.587 220.543 70.6088 220.321 70.6088ZM216.947 64.0283V62.8483H221.501V64.0283H216.947ZM226.341 70.6088C225.308 70.6088 224.444 70.2372 223.749 69.4939C223.059 68.7507 222.714 67.7903 222.714 66.6127C222.714 65.4255 223.057 64.4651 223.742 63.7315C224.432 62.9931 225.281 62.6239 226.29 62.6239C226.874 62.6239 227.398 62.7566 227.861 63.0221C228.324 63.2827 228.672 63.6109 228.903 64.0066H228.947V59.8658H230.264V70.3699H228.99V69.0017L229.178 69.2912H228.947C228.696 69.6773 228.341 69.9934 227.883 70.2396C227.424 70.4857 226.91 70.6088 226.341 70.6088ZM226.522 69.465C227.226 69.465 227.815 69.2044 228.288 68.6831C228.766 68.1571 229.005 67.4694 229.005 66.62C229.005 65.7706 228.761 65.0853 228.274 64.564C227.791 64.038 227.207 63.775 226.522 63.775C225.817 63.775 225.226 64.038 224.748 64.564C224.27 65.0853 224.031 65.7682 224.031 66.6127C224.031 67.4573 224.268 68.145 224.741 68.6759C225.214 69.2019 225.807 69.465 226.522 69.465ZM233.179 70.4567C232.899 70.4567 232.661 70.3602 232.463 70.1672C232.27 69.9693 232.173 69.728 232.173 69.4433C232.173 69.173 232.27 68.9413 232.463 68.7483C232.661 68.5504 232.899 68.4515 233.179 68.4515C233.464 68.4515 233.703 68.5504 233.896 68.7483C234.094 68.9413 234.193 69.173 234.193 69.4433C234.193 69.728 234.094 69.9693 233.896 70.1672C233.703 70.3602 233.464 70.4567 233.179 70.4567Z" fill="black" fill-opacity="0.56"/>
<path d="M14.4784 87.4353H399.478" stroke="#EBEBEB" stroke-width="1.20653" stroke-linecap="round"/>
<rect width="385" height="55.5005" transform="translate(14.4784 87.4353)" fill="white"/>
<rect x="29.0774" y="99.7735" width="103.368" height="28.411" rx="14.2055" fill="#F2F2F2"/>
<rect x="29.0774" y="99.7735" width="103.368" height="28.411" rx="14.2055" stroke="#C3C3C3" stroke-width="0.241307"/>
<g clip-path="url(#clip1_33_461)">
<g clip-path="url(#clip2_33_461)">
<path d="M44.6417 106.941V109.756" stroke="#2D2E2D" stroke-width="1.40762" stroke-linecap="round" stroke-linejoin="round"/>
<path d="M47.5978 111.023L49.6388 108.982" stroke="#2D2E2D" stroke-width="1.40762" stroke-linecap="round" stroke-linejoin="round"/>
<path d="M48.8646 113.979H51.6799" stroke="#2D2E2D" stroke-width="1.40762" stroke-linecap="round" stroke-linejoin="round"/>
<path d="M47.5978 116.935L49.6388 118.976" stroke="#2D2E2D" stroke-width="1.40762" stroke-linecap="round" stroke-linejoin="round"/>
<path d="M44.6417 118.202V121.017" stroke="#2D2E2D" stroke-width="1.40762" stroke-linecap="round" stroke-linejoin="round"/>
<path d="M39.6448 118.976L41.6858 116.935" stroke="#2D2E2D" stroke-width="1.40762" stroke-linecap="round" stroke-linejoin="round"/>
<path d="M37.6036 113.979H40.4189" stroke="#2D2E2D" stroke-width="1.40762" stroke-linecap="round" stroke-linejoin="round"/>
<path d="M39.6448 108.982L41.6858 111.023" stroke="#2D2E2D" stroke-width="1.40762" stroke-linecap="round" stroke-linejoin="round"/>
</g>
<path d="M58.9706 118.479V108.344H60.4185V118.479H58.9706ZM62.6061 118.479V111.182H63.9091L63.996 112.427C64.2276 111.993 64.5558 111.65 64.9805 111.399C65.4052 111.138 65.8926 111.008 66.4428 111.008C67.022 111.008 67.5191 111.124 67.9341 111.356C68.3492 111.587 68.6725 111.94 68.9042 112.413C69.1358 112.876 69.2516 113.46 69.2516 114.164V118.479H67.8038V114.309C67.8038 113.634 67.6542 113.122 67.355 112.775C67.0557 112.427 66.6214 112.253 66.0519 112.253C65.6755 112.253 65.3376 112.345 65.0384 112.528C64.7392 112.702 64.4979 112.963 64.3145 113.31C64.1408 113.658 64.0539 114.082 64.0539 114.584V118.479H62.6061ZM75.17 118.479V108.344H78.6014C79.4025 108.344 80.0589 108.479 80.5705 108.75C81.082 109.02 81.4585 109.382 81.6998 109.835C81.9507 110.279 82.0762 110.786 82.0762 111.356C82.0762 111.896 81.9507 112.398 81.6998 112.861C81.4585 113.315 81.0772 113.682 80.556 113.962C80.0348 114.232 79.3688 114.367 78.558 114.367H76.6179V118.479H75.17ZM80.4981 118.479L78.3118 113.976H79.9045L82.1776 118.479H80.4981ZM76.6179 113.267H78.5001C79.2143 113.267 79.7404 113.093 80.0782 112.746C80.416 112.388 80.5849 111.935 80.5849 111.385C80.5849 110.825 80.4209 110.381 80.0927 110.053C79.7645 109.724 79.2336 109.56 78.5001 109.56H76.6179V113.267ZM86.8855 118.653C86.1906 118.653 85.5728 118.493 85.0323 118.175C84.4918 117.856 84.0671 117.412 83.7582 116.843C83.459 116.273 83.3094 115.612 83.3094 114.859C83.3094 114.087 83.459 113.416 83.7582 112.847C84.0671 112.268 84.4918 111.819 85.0323 111.5C85.5728 111.172 86.2002 111.008 86.9145 111.008C87.6288 111.008 88.2417 111.167 88.7532 111.486C89.2648 111.804 89.6606 112.229 89.9405 112.76C90.2204 113.281 90.3603 113.86 90.3603 114.497C90.3603 114.594 90.3555 114.7 90.3459 114.816C90.3459 114.922 90.341 115.043 90.3314 115.178H84.3663V114.15H88.9125C88.8835 113.542 88.6809 113.069 88.3044 112.731C87.928 112.384 87.4598 112.21 86.9 112.21C86.5043 112.21 86.1423 112.302 85.8141 112.485C85.486 112.659 85.2205 112.919 85.0178 113.267C84.8248 113.605 84.7283 114.034 84.7283 114.555V114.961C84.7283 115.501 84.8248 115.96 85.0178 116.336C85.2205 116.703 85.486 116.983 85.8141 117.176C86.1423 117.359 86.4994 117.451 86.8855 117.451C87.3488 117.451 87.7301 117.35 88.0293 117.147C88.3285 116.944 88.5505 116.669 88.6953 116.322H90.1432C90.0177 116.766 89.8053 117.166 89.5061 117.523C89.2069 117.871 88.8353 118.146 88.3913 118.349C87.9569 118.551 87.455 118.653 86.8855 118.653ZM93.9013 118.479L91.1649 111.182H92.6851L94.7556 117.089L96.8404 111.182H98.3317L95.6098 118.479H93.9013ZM99.8818 118.479V111.182H101.33V118.479H99.8818ZM100.62 109.806C100.34 109.806 100.109 109.72 99.9252 109.546C99.7515 109.372 99.6646 109.15 99.6646 108.88C99.6646 108.619 99.7515 108.407 99.9252 108.243C100.109 108.069 100.34 107.982 100.62 107.982C100.89 107.982 101.117 108.069 101.301 108.243C101.484 108.407 101.576 108.619 101.576 108.88C101.576 109.15 101.484 109.372 101.301 109.546C101.117 109.72 100.89 109.806 100.62 109.806ZM106.846 118.653C106.151 118.653 105.533 118.493 104.993 118.175C104.452 117.856 104.027 117.412 103.719 116.843C103.419 116.273 103.27 115.612 103.27 114.859C103.27 114.087 103.419 113.416 103.719 112.847C104.027 112.268 104.452 111.819 104.993 111.5C105.533 111.172 106.161 111.008 106.875 111.008C107.589 111.008 108.202 111.167 108.714 111.486C109.225 111.804 109.621 112.229 109.901 112.76C110.181 113.281 110.321 113.86 110.321 114.497C110.321 114.594 110.316 114.7 110.306 114.816C110.306 114.922 110.301 115.043 110.292 115.178H104.327V114.15H108.873C108.844 113.542 108.641 113.069 108.265 112.731C107.888 112.384 107.42 112.21 106.86 112.21C106.465 112.21 106.103 112.302 105.775 112.485C105.446 112.659 105.181 112.919 104.978 113.267C104.785 113.605 104.689 114.034 104.689 114.555V114.961C104.689 115.501 104.785 115.96 104.978 116.336C105.181 116.703 105.446 116.983 105.775 117.176C106.103 117.359 106.46 117.451 106.846 117.451C107.309 117.451 107.69 117.35 107.99 117.147C108.289 116.944 108.511 116.669 108.656 116.322H110.104C109.978 116.766 109.766 117.166 109.467 117.523C109.167 117.871 108.796 118.146 108.352 118.349C107.917 118.551 107.415 118.653 106.846 118.653ZM113.268 118.479L111.125 111.182H112.559L114.151 117.263L113.876 117.248L115.643 111.182H117.264L119.031 117.248L118.755 117.263L120.334 111.182H121.796L119.653 118.479H118.162L116.309 112.152H116.598L114.745 118.479H113.268Z" fill="#2D2E2D"/>
</g>
<path d="M234.183 121.218V116.392" stroke="#9F8218" stroke-width="1.44784" stroke-linecap="round" stroke-linejoin="round"/>
<path d="M239.01 121.218V111.566" stroke="#9F8218" stroke-width="1.44784" stroke-linecap="round" stroke-linejoin="round"/>
<path d="M243.836 121.218V106.74" stroke="#9F8218" stroke-opacity="0.2" stroke-width="1.44784" stroke-linecap="round" stroke-linejoin="round"/>
<path d="M257.918 118.653C257.185 118.653 256.533 118.523 255.964 118.262C255.394 118.001 254.95 117.63 254.632 117.147C254.313 116.665 254.149 116.09 254.139 115.424H255.978C255.978 115.762 256.055 116.066 256.21 116.336C256.374 116.597 256.596 116.805 256.876 116.959C257.165 117.113 257.513 117.191 257.918 117.191C258.266 117.191 258.565 117.138 258.816 117.031C259.077 116.916 259.274 116.756 259.41 116.554C259.554 116.341 259.627 116.095 259.627 115.815C259.627 115.497 259.55 115.236 259.395 115.033C259.25 114.821 259.048 114.642 258.787 114.498C258.526 114.353 258.227 114.227 257.889 114.121C257.552 114.005 257.194 113.885 256.818 113.759C256.017 113.489 255.414 113.146 255.008 112.731C254.603 112.307 254.4 111.742 254.4 111.037C254.4 110.449 254.54 109.942 254.82 109.517C255.1 109.092 255.491 108.764 255.993 108.533C256.504 108.291 257.093 108.171 257.759 108.171C258.435 108.171 259.023 108.291 259.525 108.533C260.037 108.774 260.438 109.112 260.727 109.546C261.026 109.971 261.181 110.482 261.19 111.081H259.337C259.328 110.83 259.26 110.598 259.134 110.386C259.009 110.164 258.826 109.985 258.584 109.85C258.353 109.705 258.068 109.633 257.73 109.633C257.441 109.623 257.18 109.672 256.948 109.778C256.726 109.874 256.548 110.019 256.413 110.212C256.287 110.395 256.224 110.627 256.224 110.907C256.224 111.177 256.282 111.404 256.398 111.588C256.524 111.761 256.702 111.911 256.934 112.036C257.165 112.152 257.436 112.263 257.745 112.369C258.053 112.476 258.391 112.591 258.758 112.717C259.26 112.881 259.714 113.084 260.119 113.325C260.534 113.557 260.862 113.861 261.104 114.237C261.345 114.614 261.466 115.101 261.466 115.699C261.466 116.221 261.33 116.708 261.06 117.162C260.79 117.606 260.394 117.968 259.873 118.248C259.352 118.518 258.7 118.653 257.918 118.653ZM266.412 118.479C265.92 118.479 265.491 118.402 265.124 118.248C264.767 118.093 264.487 117.837 264.284 117.48C264.081 117.123 263.98 116.64 263.98 116.032V112.644H262.735V111.182H263.98L264.183 109.257H265.718V111.182H267.701V112.644H265.718V116.032C265.718 116.399 265.795 116.655 265.949 116.8C266.113 116.935 266.384 117.002 266.76 117.002H267.658V118.479H266.412ZM271.913 118.653C271.314 118.653 270.817 118.552 270.422 118.349C270.026 118.146 269.731 117.876 269.538 117.538C269.345 117.2 269.249 116.834 269.249 116.438C269.249 115.974 269.365 115.574 269.596 115.236C269.838 114.898 270.19 114.638 270.653 114.454C271.116 114.261 271.686 114.165 272.362 114.165H274.2C274.2 113.779 274.147 113.46 274.041 113.209C273.935 112.949 273.771 112.755 273.549 112.63C273.327 112.504 273.042 112.442 272.695 112.442C272.299 112.442 271.961 112.533 271.681 112.717C271.401 112.891 271.227 113.161 271.16 113.528H269.451C269.509 113.006 269.683 112.562 269.973 112.196C270.262 111.819 270.644 111.53 271.116 111.327C271.599 111.115 272.125 111.008 272.695 111.008C273.38 111.008 273.964 111.129 274.447 111.37C274.929 111.602 275.296 111.94 275.547 112.384C275.807 112.818 275.938 113.344 275.938 113.962V118.479H274.461L274.287 117.306C274.191 117.5 274.065 117.678 273.911 117.842C273.766 118.006 273.597 118.151 273.404 118.277C273.211 118.392 272.989 118.484 272.738 118.552C272.497 118.619 272.222 118.653 271.913 118.653ZM272.304 117.278C272.584 117.278 272.83 117.229 273.042 117.133C273.264 117.027 273.452 116.882 273.607 116.698C273.771 116.505 273.896 116.293 273.983 116.061C274.07 115.83 274.128 115.584 274.157 115.323V115.294H272.55C272.212 115.294 271.932 115.337 271.71 115.424C271.488 115.502 271.329 115.617 271.232 115.772C271.136 115.926 271.088 116.105 271.088 116.307C271.088 116.51 271.136 116.684 271.232 116.829C271.329 116.973 271.469 117.084 271.652 117.162C271.836 117.239 272.053 117.278 272.304 117.278ZM277.939 118.479V111.182H279.474L279.604 112.398C279.826 111.974 280.145 111.636 280.56 111.385C280.975 111.134 281.467 111.008 282.036 111.008C282.625 111.008 283.127 111.134 283.542 111.385C283.957 111.626 284.276 111.983 284.498 112.456C284.729 112.929 284.845 113.518 284.845 114.223V118.479H283.108V114.382C283.108 113.774 282.973 113.306 282.702 112.977C282.432 112.649 282.032 112.485 281.501 112.485C281.153 112.485 280.839 112.567 280.56 112.731C280.289 112.895 280.072 113.137 279.908 113.455C279.754 113.764 279.676 114.141 279.676 114.585V118.479H277.939ZM290.065 118.653C289.389 118.653 288.786 118.489 288.255 118.161C287.724 117.833 287.309 117.379 287.01 116.8C286.72 116.221 286.576 115.564 286.576 114.831C286.576 114.097 286.725 113.446 287.024 112.876C287.324 112.297 287.739 111.843 288.27 111.515C288.81 111.177 289.418 111.008 290.094 111.008C290.644 111.008 291.122 111.115 291.527 111.327C291.942 111.53 292.27 111.819 292.512 112.196V108.055H294.249V118.479H292.685L292.512 117.422C292.357 117.635 292.169 117.837 291.947 118.03C291.725 118.214 291.46 118.363 291.151 118.479C290.842 118.595 290.48 118.653 290.065 118.653ZM290.427 117.147C290.842 117.147 291.209 117.051 291.527 116.858C291.846 116.655 292.092 116.38 292.266 116.032C292.439 115.685 292.526 115.284 292.526 114.831C292.526 114.377 292.439 113.976 292.266 113.629C292.092 113.282 291.846 113.011 291.527 112.818C291.209 112.625 290.842 112.529 290.427 112.529C290.031 112.529 289.674 112.625 289.355 112.818C289.037 113.011 288.786 113.282 288.603 113.629C288.429 113.976 288.342 114.377 288.342 114.831C288.342 115.284 288.429 115.685 288.603 116.032C288.786 116.38 289.037 116.655 289.355 116.858C289.674 117.051 290.031 117.147 290.427 117.147ZM298.759 118.653C298.16 118.653 297.663 118.552 297.268 118.349C296.872 118.146 296.578 117.876 296.384 117.538C296.191 117.2 296.095 116.834 296.095 116.438C296.095 115.974 296.211 115.574 296.442 115.236C296.684 114.898 297.036 114.638 297.499 114.454C297.963 114.261 298.532 114.165 299.208 114.165H301.047C301.047 113.779 300.993 113.46 300.887 113.209C300.781 112.949 300.617 112.755 300.395 112.63C300.173 112.504 299.888 112.442 299.541 112.442C299.145 112.442 298.807 112.533 298.527 112.717C298.247 112.891 298.074 113.161 298.006 113.528H296.298C296.356 113.006 296.529 112.562 296.819 112.196C297.108 111.819 297.49 111.53 297.963 111.327C298.445 111.115 298.971 111.008 299.541 111.008C300.226 111.008 300.81 111.129 301.293 111.37C301.775 111.602 302.142 111.94 302.393 112.384C302.654 112.818 302.784 113.344 302.784 113.962V118.479H301.307L301.133 117.306C301.037 117.5 300.911 117.678 300.757 117.842C300.612 118.006 300.443 118.151 300.25 118.277C300.057 118.392 299.835 118.484 299.584 118.552C299.343 118.619 299.068 118.653 298.759 118.653ZM299.15 117.278C299.43 117.278 299.676 117.229 299.888 117.133C300.11 117.027 300.298 116.882 300.453 116.698C300.617 116.505 300.742 116.293 300.829 116.061C300.916 115.83 300.974 115.584 301.003 115.323V115.294H299.396C299.058 115.294 298.778 115.337 298.556 115.424C298.334 115.502 298.175 115.617 298.078 115.772C297.982 115.926 297.934 116.105 297.934 116.307C297.934 116.51 297.982 116.684 298.078 116.829C298.175 116.973 298.315 117.084 298.498 117.162C298.682 117.239 298.899 117.278 299.15 117.278ZM304.785 118.479V111.182H306.334L306.494 112.543C306.667 112.225 306.884 111.954 307.145 111.732C307.406 111.501 307.71 111.322 308.057 111.197C308.414 111.071 308.805 111.008 309.23 111.008V112.847H308.622C308.332 112.847 308.057 112.886 307.797 112.963C307.536 113.031 307.309 113.146 307.116 113.31C306.933 113.465 306.788 113.682 306.682 113.962C306.576 114.232 306.523 114.575 306.523 114.99V118.479H304.785ZM313.772 118.653C313.096 118.653 312.493 118.489 311.962 118.161C311.431 117.833 311.016 117.379 310.717 116.8C310.428 116.221 310.283 115.564 310.283 114.831C310.283 114.097 310.432 113.446 310.732 112.876C311.031 112.297 311.446 111.843 311.977 111.515C312.517 111.177 313.125 111.008 313.801 111.008C314.351 111.008 314.829 111.115 315.234 111.327C315.649 111.53 315.978 111.819 316.219 112.196V108.055H317.956V118.479H316.393L316.219 117.422C316.065 117.635 315.876 117.837 315.654 118.03C315.432 118.214 315.167 118.363 314.858 118.479C314.549 118.595 314.187 118.653 313.772 118.653ZM314.134 117.147C314.549 117.147 314.916 117.051 315.234 116.858C315.553 116.655 315.799 116.38 315.973 116.032C316.147 115.685 316.233 115.284 316.233 114.831C316.233 114.377 316.147 113.976 315.973 113.629C315.799 113.282 315.553 113.011 315.234 112.818C314.916 112.625 314.549 112.529 314.134 112.529C313.738 112.529 313.381 112.625 313.063 112.818C312.744 113.011 312.493 113.282 312.31 113.629C312.136 113.976 312.049 114.377 312.049 114.831C312.049 115.284 312.136 115.685 312.31 116.032C312.493 116.38 312.744 116.655 313.063 116.858C313.381 117.051 313.738 117.147 314.134 117.147ZM323.771 118.479V108.344H327.42C328.231 108.344 328.901 108.484 329.432 108.764C329.963 109.035 330.359 109.401 330.62 109.865C330.88 110.328 331.01 110.859 331.01 111.457C331.01 112.017 330.885 112.533 330.634 113.006C330.383 113.47 329.992 113.846 329.461 114.136C328.93 114.416 328.25 114.556 327.42 114.556H325.509V118.479H323.771ZM325.509 113.137H327.318C328.004 113.137 328.496 112.987 328.795 112.688C329.094 112.379 329.244 111.969 329.244 111.457C329.244 110.926 329.094 110.511 328.795 110.212C328.496 109.913 328.004 109.763 327.318 109.763H325.509V113.137ZM332.596 118.479V111.182H334.145L334.305 112.543C334.478 112.225 334.695 111.954 334.956 111.732C335.217 111.501 335.521 111.322 335.868 111.197C336.225 111.071 336.616 111.008 337.041 111.008V112.847H336.433C336.143 112.847 335.868 112.886 335.608 112.963C335.347 113.031 335.12 113.146 334.927 113.31C334.744 113.465 334.599 113.682 334.493 113.962C334.387 114.232 334.333 114.575 334.333 114.99V118.479H332.596ZM338.568 118.479V111.182H340.305V118.479H338.568ZM339.437 110.024C339.118 110.024 338.853 109.927 338.64 109.734C338.438 109.532 338.336 109.285 338.336 108.996C338.336 108.697 338.438 108.455 338.64 108.272C338.853 108.079 339.118 107.982 339.437 107.982C339.755 107.982 340.016 108.079 340.218 108.272C340.431 108.455 340.537 108.697 340.537 108.996C340.537 109.285 340.431 109.532 340.218 109.734C340.016 109.927 339.755 110.024 339.437 110.024ZM345.86 118.653C345.165 118.653 344.538 118.494 343.978 118.175C343.428 117.847 342.993 117.398 342.675 116.829C342.366 116.25 342.212 115.588 342.212 114.845C342.212 114.083 342.371 113.417 342.689 112.847C343.008 112.268 343.442 111.819 343.992 111.501C344.552 111.172 345.18 111.008 345.875 111.008C346.57 111.008 347.192 111.172 347.742 111.501C348.302 111.819 348.737 112.263 349.045 112.833C349.364 113.402 349.523 114.068 349.523 114.831C349.523 115.593 349.364 116.259 349.045 116.829C348.727 117.398 348.288 117.847 347.728 118.175C347.178 118.494 346.555 118.653 345.86 118.653ZM345.86 117.162C346.208 117.162 346.521 117.075 346.801 116.901C347.091 116.727 347.323 116.467 347.496 116.119C347.67 115.772 347.757 115.342 347.757 114.831C347.757 114.319 347.67 113.894 347.496 113.557C347.332 113.209 347.105 112.949 346.816 112.775C346.536 112.601 346.222 112.514 345.875 112.514C345.537 112.514 345.223 112.601 344.934 112.775C344.644 112.949 344.412 113.209 344.239 113.557C344.065 113.894 343.978 114.319 343.978 114.831C343.978 115.342 344.065 115.772 344.239 116.119C344.412 116.467 344.639 116.727 344.919 116.901C345.209 117.075 345.522 117.162 345.86 117.162ZM351.369 118.479V111.182H352.918L353.077 112.543C353.251 112.225 353.468 111.954 353.729 111.732C353.989 111.501 354.293 111.322 354.641 111.197C354.998 111.071 355.389 111.008 355.814 111.008V112.847H355.206C354.916 112.847 354.641 112.886 354.38 112.963C354.12 113.031 353.893 113.146 353.7 113.31C353.516 113.465 353.372 113.682 353.265 113.962C353.159 114.232 353.106 114.575 353.106 114.99V118.479H351.369ZM357.341 118.479V111.182H359.078V118.479H357.341ZM358.209 110.024C357.891 110.024 357.625 109.927 357.413 109.734C357.21 109.532 357.109 109.285 357.109 108.996C357.109 108.697 357.21 108.455 357.413 108.272C357.625 108.079 357.891 107.982 358.209 107.982C358.528 107.982 358.788 108.079 358.991 108.272C359.203 108.455 359.31 108.697 359.31 108.996C359.31 109.285 359.203 109.532 358.991 109.734C358.788 109.927 358.528 110.024 358.209 110.024ZM364.401 118.479C363.909 118.479 363.479 118.402 363.113 118.248C362.756 118.093 362.476 117.837 362.273 117.48C362.07 117.123 361.969 116.64 361.969 116.032V112.644H360.724V111.182H361.969L362.172 109.257H363.706V111.182H365.69V112.644H363.706V116.032C363.706 116.399 363.784 116.655 363.938 116.8C364.102 116.935 364.372 117.002 364.749 117.002H365.646V118.479H364.401ZM368.352 121.664L370.133 117.668H369.699L366.789 111.182H368.685L370.857 116.134L372.913 111.182H374.752L370.191 121.664H368.352Z" fill="#9F8218"/>
</g>
</g>
<defs>
<filter id="filter0_dd_33_461" x="-9.53674e-07" y="8.10623e-05" width="413.957" height="162.24" filterUnits="userSpaceOnUse" color-interpolation-filters="sRGB">
<feFlood flood-opacity="0" result="BackgroundImageFix"/>
<feColorMatrix in="SourceAlpha" type="matrix" values="0 0 0 0 0 0 0 0 0 0 0 0 0 0 0 0 0 0 127 0" result="hardAlpha"/>
<feMorphology radius="0.603266" operator="dilate" in="SourceAlpha" result="effect1_dropShadow_33_461"/>
<feOffset/>
<feComposite in2="hardAlpha" operator="out"/>
<feColorMatrix type="matrix" values="0 0 0 0 0.870588 0 0 0 0 0.870588 0 0 0 0 0.870588 0 0 0 1 0"/>
<feBlend mode="normal" in2="BackgroundImageFix" result="effect1_dropShadow_33_461"/>
<feColorMatrix in="SourceAlpha" type="matrix" values="0 0 0 0 0 0 0 0 0 0 0 0 0 0 0 0 0 0 127 0" result="hardAlpha"/>
<feOffset dy="4.82613"/>
<feGaussianBlur stdDeviation="7.2392"/>
<feComposite in2="hardAlpha" operator="out"/>
<feColorMatrix type="matrix" values="0 0 0 0 0 0 0 0 0 0 0 0 0 0 0 0 0 0 0.05 0"/>
<feBlend mode="normal" in2="effect1_dropShadow_33_461" result="effect2_dropShadow_33_461"/>
<feBlend mode="normal" in="SourceGraphic" in2="effect2_dropShadow_33_461" result="shape"/>
</filter>
<clipPath id="clip0_33_461">
<rect x="14.4784" y="9.65234" width="385" height="133.283" rx="16.8915" fill="white"/>
</clipPath>
<clipPath id="clip1_33_461">
<rect x="36.196" y="104.479" width="86.7176" height="19" rx="9.5" fill="white"/>
</clipPath>
<clipPath id="clip2_33_461">
<rect width="16.8915" height="16.8915" fill="white" transform="translate(36.196 105.533)"/>
</clipPath>
</defs>
</svg>
