<svg width="444" height="192" viewBox="0 0 444 192" fill="none" xmlns="http://www.w3.org/2000/svg">
<g filter="url(#filter0_ddd_33_414)">
<g clip-path="url(#clip0_33_414)">
<path d="M29.3006 41.0211C29.3006 32.3904 36.2972 25.3938 44.9279 25.3938H398.673C407.304 25.3938 414.301 32.3904 414.301 41.0211V142.49C414.301 151.12 407.304 158.117 398.673 158.117H44.9279C36.2972 158.117 29.3006 151.12 29.3006 142.49V41.0211Z" fill="white"/>
<rect width="385" height="85.9224" transform="translate(29.3006 25.3938)" fill="white"/>
<path d="M46.7348 55.8203V44.4254H48.6882V49.1299L52.9857 44.4254H55.4112L51.1951 48.9508L55.5089 55.8203H53.1323L49.8114 50.4484L48.6882 51.6693V55.8203H46.7348ZM57.036 55.8203V44.4254H58.9894V54.2901H64.0683V55.8203H57.036ZM65.9701 55.8203V44.4254H68.2817L71.928 51.7833L75.5419 44.4254H77.8697V55.8203H75.9163V47.7787L72.6931 54.225H71.163L67.9235 47.795V55.8203H65.9701ZM84.1214 56.0157C83.3509 56.0157 82.6563 55.88 82.0377 55.6087C81.4192 55.3265 80.9254 54.9358 80.5564 54.4366C80.1983 53.9266 80.0192 53.3297 80.0192 52.646C80.0192 52.1902 80.1006 51.767 80.2634 51.3763C80.4262 50.9856 80.6595 50.6492 80.9634 50.367C81.2672 50.074 81.6199 49.857 82.0215 49.7159C81.4897 49.4771 81.0664 49.1461 80.7517 48.7229C80.4479 48.2888 80.2959 47.8059 80.2959 47.2741C80.2959 46.7206 80.4424 46.216 80.7355 45.7602C81.0285 45.3044 81.4571 44.9354 82.0215 44.6533C82.5966 44.3711 83.2966 44.23 84.1214 44.23C84.9462 44.23 85.6407 44.3711 86.205 44.6533C86.7693 44.9354 87.198 45.3044 87.491 45.7602C87.784 46.216 87.9305 46.7206 87.9305 47.2741C87.9305 47.795 87.7732 48.278 87.4585 48.7229C87.1546 49.157 86.7368 49.488 86.205 49.7159C86.6174 49.857 86.9701 50.074 87.2631 50.367C87.567 50.66 87.8003 51.0019 87.9631 51.3926C88.1367 51.7724 88.2236 52.1902 88.2236 52.646C88.2236 53.3297 88.0391 53.9266 87.6701 54.4366C87.3011 54.9358 86.8073 55.3265 86.1887 55.6087C85.581 55.88 84.8919 56.0157 84.1214 56.0157ZM84.1214 54.3715C84.8376 54.3715 85.3748 54.1979 85.7329 53.8506C86.1019 53.4925 86.2864 53.0421 86.2864 52.4995C86.2864 51.8918 86.0911 51.4251 85.7004 51.0996C85.3206 50.7631 84.7942 50.5949 84.1214 50.5949C83.4485 50.5949 82.9113 50.7631 82.5098 51.0996C82.1191 51.4251 81.9238 51.8918 81.9238 52.4995C81.9238 53.0421 82.1083 53.4925 82.4773 53.8506C82.8571 54.1979 83.4051 54.3715 84.1214 54.3715ZM84.1214 49.1136C84.7074 49.1136 85.1632 48.9616 85.4888 48.6578C85.8252 48.3431 85.9934 47.9524 85.9934 47.4857C85.9934 46.954 85.8252 46.547 85.4888 46.2648C85.1632 45.9718 84.7074 45.8253 84.1214 45.8253C83.5354 45.8253 83.0741 45.9718 82.7377 46.2648C82.4121 46.547 82.2494 46.954 82.2494 47.4857C82.2494 47.9632 82.4121 48.3539 82.7377 48.6578C83.0741 48.9616 83.5354 49.1136 84.1214 49.1136ZM90.356 55.8203V44.4254H92.3094L97.7953 52.6623V44.4254H99.7487V55.8203H97.7953L92.3094 47.5997V55.8203H90.356ZM103.408 55.8203V46.6555L101.389 47.1764V45.6625L104.189 44.4254H105.41V55.8203H103.408ZM107.423 55.8203V54.4041C108.15 53.8289 108.845 53.2537 109.507 52.6786C110.169 52.1034 110.765 51.5336 111.297 50.9693C111.829 50.405 112.247 49.8515 112.551 49.3089C112.854 48.7663 113.006 48.2454 113.006 47.7462C113.006 47.4206 112.947 47.1168 112.827 46.8346C112.708 46.5524 112.518 46.3245 112.258 46.1509C112.008 45.9773 111.672 45.8904 111.248 45.8904C110.836 45.8904 110.483 45.9827 110.19 46.1672C109.908 46.3517 109.696 46.6013 109.555 46.916C109.414 47.2199 109.344 47.5671 109.344 47.9578H107.455C107.477 47.133 107.656 46.4439 107.993 45.8904C108.329 45.337 108.785 44.9246 109.36 44.6533C109.935 44.3711 110.581 44.23 111.297 44.23C112.068 44.23 112.724 44.3711 113.267 44.6533C113.809 44.9354 114.227 45.3315 114.52 45.8416C114.813 46.3517 114.96 46.954 114.96 47.6485C114.96 48.1586 114.862 48.6632 114.667 49.1624C114.482 49.6508 114.222 50.1283 113.885 50.5949C113.549 51.0507 113.169 51.4957 112.746 51.9298C112.334 52.353 111.905 52.76 111.46 53.1506C111.015 53.5305 110.586 53.8832 110.174 54.2087H115.269V55.8203H107.423ZM117.095 55.8203V44.4254H121.181C122.081 44.4254 122.825 44.5827 123.411 44.8975C124.008 45.2013 124.447 45.6137 124.729 46.1346C125.022 46.6447 125.169 47.2253 125.169 47.8764C125.169 48.4841 125.028 49.0485 124.746 49.5694C124.463 50.0903 124.024 50.5081 123.427 50.8228C122.83 51.1375 122.065 51.2949 121.132 51.2949H119.048V55.8203H117.095ZM123.036 55.8203L120.643 50.7903H122.76L125.266 55.8203H123.036ZM119.048 49.8461H121.05C121.777 49.8461 122.309 49.6725 122.646 49.3252C122.993 48.9671 123.167 48.5004 123.167 47.9253C123.167 47.3609 122.998 46.9106 122.662 46.5741C122.326 46.2269 121.788 46.0532 121.05 46.0532H119.048V49.8461ZM131.969 55.8203V53.6553H126.32V52.0925L131.692 44.4254H133.906V51.946H135.452V53.6553H133.906V55.8203H131.969ZM128.42 51.946H132.083V46.5741L128.42 51.946ZM141.161 56.0157C140.347 56.0157 139.642 55.8746 139.045 55.5924C138.459 55.2994 137.998 54.9033 137.661 54.4041C137.325 53.894 137.124 53.3189 137.059 52.6786H138.964C139.061 53.1561 139.305 53.5576 139.696 53.8832C140.087 54.1979 140.575 54.3552 141.161 54.3552C141.606 54.3552 141.986 54.2522 142.301 54.046C142.615 53.8289 142.86 53.5413 143.033 53.1832C143.218 52.8142 143.31 52.4018 143.31 51.946C143.31 51.4794 143.218 51.0724 143.033 50.7252C142.86 50.3779 142.615 50.112 142.301 49.9275C141.986 49.7322 141.622 49.6345 141.21 49.6345C140.7 49.6345 140.26 49.7539 139.891 49.9926C139.533 50.2205 139.273 50.5081 139.11 50.8554H137.222L138.166 44.4254H144.449V46.1346H139.631L139.11 48.9508C139.36 48.6795 139.691 48.4624 140.103 48.2997C140.515 48.126 140.988 48.0392 141.519 48.0392C142.116 48.0392 142.642 48.1423 143.098 48.3485C143.554 48.5547 143.939 48.8368 144.254 49.195C144.569 49.5531 144.802 49.9709 144.954 50.4484C145.117 50.9151 145.198 51.4088 145.198 51.9298C145.198 52.5158 145.101 53.0584 144.905 53.5576C144.71 54.046 144.433 54.4746 144.075 54.8436C143.728 55.2126 143.304 55.5002 142.805 55.7064C142.317 55.9126 141.769 56.0157 141.161 56.0157ZM145.982 55.8203L149.53 50.0577L145.949 44.4254H148.195L150.784 48.5113L153.177 44.4254H155.391L151.842 50.1391L155.456 55.8203H153.209L150.588 51.6856L148.195 55.8203H145.982Z" fill="black"/>
<path d="M50.2062 77.219C49.376 77.219 48.6557 77.0359 48.0452 76.6696C47.4429 76.2952 46.979 75.7784 46.6534 75.1191C46.3279 74.4517 46.1651 73.6784 46.1651 72.7994C46.1651 71.9204 46.3279 71.1512 46.6534 70.4919C46.979 69.8245 47.4429 69.3077 48.0452 68.9414C48.6557 68.567 49.376 68.3798 50.2062 68.3798C51.1829 68.3798 51.9765 68.6118 52.5869 69.0757C53.1974 69.5396 53.588 70.1949 53.759 71.0413H52.6235C52.4933 70.5123 52.2288 70.089 51.83 69.7716C51.4312 69.446 50.8899 69.2833 50.2062 69.2833C49.5958 69.2833 49.0667 69.4257 48.619 69.7106C48.1714 69.9873 47.8255 70.3902 47.5813 70.9192C47.3371 71.4402 47.215 72.0669 47.215 72.7994C47.215 73.5319 47.3371 74.1627 47.5813 74.6918C47.8255 75.2127 48.1714 75.6156 48.619 75.9005C49.0667 76.1772 49.5958 76.3156 50.2062 76.3156C50.8899 76.3156 51.4312 76.1609 51.83 75.8516C52.2288 75.5342 52.4933 75.115 52.6235 74.5941H53.759C53.588 75.4162 53.1974 76.0592 52.5869 76.5231C51.9765 76.987 51.1829 77.219 50.2062 77.219ZM55.8564 79.7585L57.3581 76.3888H57.004L54.5867 70.9192H55.6977L57.7 75.6197L59.7999 70.9192H60.862L56.9308 79.7585H55.8564ZM65.1921 77.219C64.8421 77.219 64.5247 77.1702 64.2398 77.0725C63.9631 76.9667 63.7189 76.8283 63.5073 76.6574C63.2956 76.4865 63.1207 76.2871 62.9823 76.0592L62.8968 77.0725H61.969V68.2821H62.9945V71.9326C63.1898 71.6152 63.4706 71.3425 63.8369 71.1146C64.2032 70.8867 64.6549 70.7727 65.1921 70.7727C65.7863 70.7727 66.3072 70.9152 66.7548 71.2001C67.2025 71.4768 67.5484 71.8593 67.7926 72.3477C68.0449 72.8279 68.1711 73.3773 68.1711 73.9959C68.1711 74.6145 68.0449 75.1679 67.7926 75.6563C67.5484 76.1446 67.2025 76.5272 66.7548 76.8039C66.3072 77.0806 65.7863 77.219 65.1921 77.219ZM65.07 76.3278C65.4688 76.3278 65.8229 76.2301 66.1322 76.0348C66.4415 75.8394 66.6816 75.5708 66.8525 75.229C67.0316 74.879 67.1211 74.468 67.1211 73.9959C67.1211 73.5319 67.0316 73.125 66.8525 72.775C66.6816 72.425 66.4415 72.1523 66.1322 71.957C65.8229 71.7617 65.4688 71.664 65.07 71.664C64.663 71.664 64.3049 71.7617 63.9956 71.957C63.6863 72.1523 63.4462 72.425 63.2753 72.775C63.1044 73.125 63.0189 73.5319 63.0189 73.9959C63.0189 74.468 63.1044 74.879 63.2753 75.229C63.4462 75.5708 63.6863 75.8394 63.9956 76.0348C64.3049 76.2301 64.663 76.3278 65.07 76.3278ZM72.3096 77.219C71.7317 77.219 71.2189 77.0847 70.7712 76.8161C70.3317 76.5475 69.9858 76.1731 69.7335 75.6929C69.4812 75.2046 69.355 74.6389 69.355 73.9959C69.355 73.3447 69.4771 72.7791 69.7213 72.2988C69.9736 71.8186 70.3236 71.4442 70.7712 71.1756C71.227 70.907 71.748 70.7727 72.334 70.7727C72.9363 70.7727 73.445 70.907 73.8601 71.1756C74.2833 71.4442 74.6048 71.7983 74.8246 72.2378C75.0525 72.6692 75.1664 73.1453 75.1664 73.6662C75.1664 73.7476 75.1664 73.8331 75.1664 73.9226C75.1664 74.0122 75.1624 74.1139 75.1542 74.2278H70.1242V73.4343H74.1653C74.1409 72.8727 73.9537 72.4331 73.6037 72.1157C73.2619 71.7983 72.8305 71.6396 72.3096 71.6396C71.9596 71.6396 71.634 71.721 71.3329 71.8837C71.0398 72.0384 70.8038 72.2704 70.6247 72.5797C70.4457 72.8808 70.3561 73.2593 70.3561 73.7151V74.0569C70.3561 74.5616 70.4457 74.9848 70.6247 75.3266C70.8119 75.6685 71.0521 75.9249 71.3451 76.0958C71.6462 76.2667 71.9677 76.3522 72.3096 76.3522C72.7409 76.3522 73.095 76.2586 73.3717 76.0714C73.6566 75.876 73.8601 75.6156 73.9822 75.29H74.9955C74.8978 75.6563 74.7269 75.9859 74.4827 76.2789C74.2386 76.5719 73.9333 76.8039 73.5671 76.9748C73.209 77.1376 72.7898 77.219 72.3096 77.219ZM76.5504 77.0725V70.9192H77.4783L77.5516 72.0913C77.6899 71.8146 77.8649 71.5785 78.0765 71.3832C78.2963 71.1878 78.5567 71.0373 78.8579 70.9315C79.1672 70.8256 79.5172 70.7727 79.9079 70.7727V71.8471H79.5294C79.2689 71.8471 79.0207 71.8837 78.7846 71.957C78.5486 72.0221 78.337 72.132 78.1498 72.2866C77.9707 72.4413 77.8283 72.6529 77.7225 72.9215C77.6248 73.182 77.576 73.5075 77.576 73.8982V77.0725H76.5504ZM84.805 77.219C84.0074 77.219 83.3074 77.0359 82.7051 76.6696C82.1028 76.2952 81.6348 75.7784 81.3011 75.1191C80.9674 74.4598 80.8005 73.6907 80.8005 72.8116C80.8005 71.9407 80.9674 71.1716 81.3011 70.5041C81.6429 69.8367 82.1232 69.3158 82.7417 68.9414C83.3685 68.567 84.1051 68.3798 84.9515 68.3798C85.912 68.3798 86.7137 68.6118 87.3567 69.0757C87.9997 69.5315 88.4107 70.1704 88.5898 70.9925H87.4055C87.2916 70.4797 87.023 70.0728 86.5997 69.7716C86.1765 69.4705 85.6271 69.3199 84.9515 69.3199C84.3248 69.3199 83.7754 69.4623 83.3034 69.7472C82.8394 70.0239 82.4813 70.4228 82.229 70.9437C81.9767 71.4646 81.8505 72.0872 81.8505 72.8116C81.8505 73.536 81.9767 74.1627 82.229 74.6918C82.4813 75.2127 82.8313 75.6115 83.2789 75.8883C83.7347 76.165 84.2556 76.3034 84.8417 76.3034C85.7533 76.3034 86.441 76.0348 86.905 75.4976C87.3689 74.9604 87.6334 74.2319 87.6985 73.3122H85.2324V72.5064H88.7485V77.0725H87.8084L87.723 75.6685C87.5195 76.0022 87.2834 76.2871 87.0148 76.5231C86.7544 76.751 86.4451 76.926 86.087 77.0481C85.7288 77.162 85.3015 77.219 84.805 77.219ZM92.5554 77.219C92.0833 77.219 91.6682 77.1254 91.3101 76.9382C90.9601 76.751 90.6874 76.4621 90.4921 76.0714C90.3049 75.6807 90.2113 75.1923 90.2113 74.6063V70.9192H91.2368V74.4964C91.2368 75.1069 91.3711 75.5668 91.6397 75.876C91.9083 76.1853 92.2868 76.34 92.7751 76.34C93.117 76.34 93.4263 76.2586 93.703 76.0958C93.9797 75.9249 94.1954 75.6848 94.3501 75.3755C94.5129 75.058 94.5943 74.6714 94.5943 74.2156V70.9192H95.6198V77.0725H94.6919L94.6309 75.9981C94.4437 76.3807 94.1669 76.6818 93.8007 76.9016C93.4344 77.1132 93.0193 77.219 92.5554 77.219ZM99.322 77.219C98.8255 77.219 98.4104 77.1336 98.0767 76.9626C97.743 76.7836 97.4948 76.5516 97.332 76.2667C97.1692 75.9737 97.0878 75.6563 97.0878 75.3144C97.0878 74.8993 97.1936 74.5493 97.4052 74.2645C97.625 73.9715 97.9302 73.7517 98.3209 73.6052C98.7197 73.4505 99.1877 73.3732 99.7249 73.3732H101.349C101.349 72.9907 101.288 72.6733 101.166 72.4209C101.052 72.1605 100.881 71.9651 100.653 71.8349C100.433 71.7047 100.156 71.6396 99.8226 71.6396C99.4319 71.6396 99.0941 71.7372 98.8093 71.9326C98.5244 72.1279 98.3494 72.4169 98.2843 72.7994H97.2343C97.2832 72.3599 97.4297 71.9936 97.6738 71.7006C97.9262 71.3995 98.2436 71.1716 98.6261 71.0169C99.0087 70.8541 99.4075 70.7727 99.8226 70.7727C100.392 70.7727 100.864 70.8786 101.239 71.0902C101.621 71.2937 101.906 71.5826 102.093 71.957C102.281 72.3233 102.374 72.7587 102.374 73.2633V77.0725H101.459L101.398 75.9859C101.316 76.1568 101.21 76.3196 101.08 76.4743C100.958 76.6208 100.812 76.751 100.641 76.865C100.47 76.9708 100.274 77.0562 100.055 77.1213C99.8429 77.1865 99.5988 77.219 99.322 77.219ZM99.4808 76.3522C99.7656 76.3522 100.022 76.2952 100.25 76.1813C100.486 76.0592 100.685 75.8964 100.848 75.6929C101.011 75.4813 101.133 75.2493 101.214 74.997C101.304 74.7447 101.349 74.4802 101.349 74.2034V74.1668H99.8104C99.4116 74.1668 99.0901 74.2156 98.8459 74.3133C98.6017 74.4028 98.4267 74.5331 98.3209 74.704C98.2151 74.8668 98.1622 75.054 98.1622 75.2656C98.1622 75.4854 98.211 75.6766 98.3087 75.8394C98.4145 76.0022 98.5651 76.1284 98.7604 76.2179C98.9639 76.3074 99.204 76.3522 99.4808 76.3522ZM103.961 77.0725V70.9192H104.889L104.962 72.0913C105.1 71.8146 105.275 71.5785 105.487 71.3832C105.707 71.1878 105.967 71.0373 106.268 70.9315C106.577 70.8256 106.927 70.7727 107.318 70.7727V71.8471H106.94C106.679 71.8471 106.431 71.8837 106.195 71.957C105.959 72.0221 105.747 72.132 105.56 72.2866C105.381 72.4413 105.239 72.6529 105.133 72.9215C105.035 73.182 104.986 73.5075 104.986 73.8982V77.0725H103.961ZM110.963 77.219C110.369 77.219 109.848 77.0806 109.401 76.8039C108.953 76.519 108.607 76.1324 108.363 75.6441C108.119 75.1557 107.997 74.6023 107.997 73.9837C107.997 73.3651 108.119 72.8157 108.363 72.3355C108.607 71.8471 108.953 71.4646 109.401 71.1878C109.856 70.9111 110.381 70.7727 110.975 70.7727C111.48 70.7727 111.92 70.8745 112.294 71.078C112.677 71.2814 112.97 71.5663 113.173 71.9326V68.2821H114.199V77.0725H113.271L113.185 76.0592C113.055 76.2627 112.888 76.4539 112.685 76.633C112.481 76.8039 112.237 76.9464 111.952 77.0603C111.667 77.1661 111.338 77.219 110.963 77.219ZM111.085 76.3278C111.492 76.3278 111.85 76.2301 112.16 76.0348C112.469 75.8394 112.709 75.5708 112.88 75.229C113.051 74.879 113.136 74.468 113.136 73.9959C113.136 73.5319 113.051 73.125 112.88 72.775C112.709 72.425 112.469 72.1523 112.16 71.957C111.85 71.7617 111.492 71.664 111.085 71.664C110.687 71.664 110.332 71.7617 110.023 71.957C109.714 72.1523 109.474 72.425 109.303 72.775C109.132 73.125 109.046 73.5319 109.046 73.9959C109.046 74.468 109.132 74.879 109.303 75.229C109.474 75.5708 109.714 75.8394 110.023 76.0348C110.332 76.2301 110.687 76.3278 111.085 76.3278ZM121.934 77.219C121.307 77.219 120.762 77.1051 120.298 76.8772C119.834 76.6493 119.476 76.3318 119.224 75.9249C118.971 75.5179 118.845 75.0458 118.845 74.5087H119.919C119.919 74.8424 119.997 75.1516 120.151 75.4365C120.306 75.7133 120.53 75.9371 120.823 76.108C121.124 76.2708 121.494 76.3522 121.934 76.3522C122.316 76.3522 122.642 76.2911 122.911 76.1691C123.187 76.0388 123.395 75.8638 123.533 75.6441C123.68 75.4243 123.753 75.1761 123.753 74.8993C123.753 74.5656 123.68 74.297 123.533 74.0935C123.395 73.8819 123.204 73.711 122.959 73.5808C122.715 73.4505 122.43 73.3366 122.105 73.2389C121.787 73.1331 121.454 73.0232 121.104 72.9093C120.428 72.6814 119.932 72.3965 119.614 72.0547C119.297 71.7128 119.138 71.2692 119.138 70.7239C119.138 70.26 119.244 69.853 119.455 69.503C119.675 69.153 119.985 68.8804 120.383 68.685C120.79 68.4815 121.271 68.3798 121.824 68.3798C122.369 68.3798 122.841 68.4815 123.24 68.685C123.647 68.8885 123.965 69.1693 124.193 69.5274C124.42 69.8774 124.534 70.2844 124.534 70.7483H123.46C123.46 70.5123 123.399 70.2803 123.277 70.0524C123.155 69.8245 122.968 69.6373 122.715 69.4908C122.471 69.3362 122.162 69.2588 121.787 69.2588C121.478 69.2507 121.201 69.3036 120.957 69.4176C120.721 69.5234 120.534 69.678 120.396 69.8815C120.265 70.085 120.2 70.3332 120.2 70.6262C120.2 70.903 120.257 71.1268 120.371 71.2977C120.493 71.4686 120.664 71.6152 120.884 71.7372C121.112 71.8512 121.376 71.957 121.677 72.0547C121.979 72.1523 122.312 72.2622 122.679 72.3843C123.094 72.5227 123.46 72.6936 123.777 72.8971C124.103 73.0924 124.355 73.3447 124.534 73.654C124.722 73.9633 124.815 74.3581 124.815 74.8383C124.815 75.2453 124.705 75.6319 124.486 75.9981C124.274 76.3563 123.956 76.6493 123.533 76.8772C123.11 77.1051 122.577 77.219 121.934 77.219ZM128.979 77.219C128.41 77.219 127.897 77.0888 127.441 76.8283C126.985 76.5597 126.627 76.1853 126.367 75.7051C126.106 75.2168 125.976 74.6511 125.976 74.0081C125.976 73.3488 126.106 72.7791 126.367 72.2988C126.635 71.8105 126.997 71.4361 127.453 71.1756C127.917 70.907 128.434 70.7727 129.004 70.7727C129.59 70.7727 130.107 70.907 130.554 71.1756C131.01 71.4361 131.368 71.8105 131.629 72.2988C131.897 72.7791 132.032 73.3447 132.032 73.9959C132.032 74.647 131.897 75.2168 131.629 75.7051C131.36 76.1853 130.998 76.5597 130.542 76.8283C130.086 77.0888 129.565 77.219 128.979 77.219ZM128.992 76.34C129.342 76.34 129.667 76.2545 129.968 76.0836C130.269 75.9045 130.514 75.64 130.701 75.29C130.888 74.94 130.982 74.5087 130.982 73.9959C130.982 73.475 130.888 73.0436 130.701 72.7017C130.522 72.3518 130.282 72.0913 129.98 71.9204C129.687 71.7413 129.362 71.6518 129.004 71.6518C128.662 71.6518 128.336 71.7413 128.027 71.9204C127.726 72.0913 127.482 72.3518 127.295 72.7017C127.115 73.0436 127.026 73.475 127.026 73.9959C127.026 74.5087 127.115 74.94 127.295 75.29C127.482 75.64 127.722 75.9045 128.015 76.0836C128.316 76.2545 128.642 76.34 128.992 76.34ZM133.469 77.0725V68.2821H134.495V77.0725H133.469ZM138.422 77.219C137.95 77.219 137.535 77.1254 137.177 76.9382C136.827 76.751 136.554 76.4621 136.359 76.0714C136.172 75.6807 136.078 75.1923 136.078 74.6063V70.9192H137.103V74.4964C137.103 75.1069 137.238 75.5668 137.506 75.876C137.775 76.1853 138.153 76.34 138.642 76.34C138.984 76.34 139.293 76.2586 139.57 76.0958C139.846 75.9249 140.062 75.6848 140.217 75.3755C140.38 75.058 140.461 74.6714 140.461 74.2156V70.9192H141.486V77.0725H140.559L140.498 75.9981C140.31 76.3807 140.034 76.6818 139.667 76.9016C139.301 77.1132 138.886 77.219 138.422 77.219ZM145.604 77.0725C145.238 77.0725 144.92 77.0155 144.652 76.9016C144.383 76.7876 144.175 76.5964 144.029 76.3278C143.89 76.051 143.821 75.6807 143.821 75.2168V71.7861H142.747V70.9192H143.821L143.956 69.4298H144.847V70.9192H146.629V71.7861H144.847V75.2168C144.847 75.5993 144.924 75.8598 145.079 75.9981C145.233 76.1284 145.506 76.1935 145.897 76.1935H146.556V77.0725H145.604ZM148.065 77.0725V70.9192H149.091V77.0725H148.065ZM148.578 69.6129C148.374 69.6129 148.203 69.5478 148.065 69.4176C147.935 69.2792 147.87 69.1083 147.87 68.9048C147.87 68.7013 147.935 68.5385 148.065 68.4164C148.203 68.2862 148.374 68.2211 148.578 68.2211C148.773 68.2211 148.94 68.2862 149.078 68.4164C149.217 68.5385 149.286 68.7013 149.286 68.9048C149.286 69.1083 149.217 69.2792 149.078 69.4176C148.94 69.5478 148.773 69.6129 148.578 69.6129ZM153.647 77.219C153.078 77.219 152.565 77.0888 152.109 76.8283C151.653 76.5597 151.295 76.1853 151.035 75.7051C150.774 75.2168 150.644 74.6511 150.644 74.0081C150.644 73.3488 150.774 72.7791 151.035 72.2988C151.303 71.8105 151.666 71.4361 152.121 71.1756C152.585 70.907 153.102 70.7727 153.672 70.7727C154.258 70.7727 154.775 70.907 155.222 71.1756C155.678 71.4361 156.036 71.8105 156.297 72.2988C156.565 72.7791 156.7 73.3447 156.7 73.9959C156.7 74.647 156.565 75.2168 156.297 75.7051C156.028 76.1853 155.666 76.5597 155.21 76.8283C154.754 77.0888 154.233 77.219 153.647 77.219ZM153.66 76.34C154.01 76.34 154.335 76.2545 154.636 76.0836C154.938 75.9045 155.182 75.64 155.369 75.29C155.556 74.94 155.65 74.5087 155.65 73.9959C155.65 73.475 155.556 73.0436 155.369 72.7017C155.19 72.3518 154.95 72.0913 154.649 71.9204C154.356 71.7413 154.03 71.6518 153.672 71.6518C153.33 71.6518 153.004 71.7413 152.695 71.9204C152.394 72.0913 152.15 72.3518 151.963 72.7017C151.784 73.0436 151.694 73.475 151.694 73.9959C151.694 74.5087 151.784 74.94 151.963 75.29C152.15 75.64 152.39 75.9045 152.683 76.0836C152.984 76.2545 153.31 76.34 153.66 76.34ZM158.138 77.0725V70.9192H159.065L159.114 71.9936C159.31 71.6111 159.586 71.314 159.944 71.1024C160.311 70.8826 160.726 70.7727 161.19 70.7727C161.67 70.7727 162.085 70.8704 162.435 71.0658C162.785 71.253 163.058 71.5419 163.253 71.9326C163.448 72.3151 163.546 72.8035 163.546 73.3976V77.0725H162.521V73.5075C162.521 72.8889 162.382 72.425 162.105 72.1157C161.837 71.8064 161.454 71.6518 160.958 71.6518C160.616 71.6518 160.311 71.7372 160.042 71.9082C159.774 72.0709 159.558 72.3111 159.395 72.6285C159.24 72.9378 159.163 73.3244 159.163 73.7883V77.0725H158.138ZM167.468 77.219C166.955 77.219 166.507 77.1336 166.125 76.9626C165.75 76.7917 165.449 76.5557 165.221 76.2545C165.002 75.9452 164.867 75.583 164.818 75.1679H165.868C165.909 75.3795 165.995 75.5749 166.125 75.754C166.255 75.933 166.43 76.0795 166.65 76.1935C166.878 76.2993 167.154 76.3522 167.48 76.3522C167.765 76.3522 168.001 76.3115 168.188 76.2301C168.375 76.1406 168.514 76.0225 168.603 75.876C168.701 75.7295 168.75 75.5708 168.75 75.3999C168.75 75.1476 168.689 74.9563 168.567 74.8261C168.453 74.6959 168.282 74.5941 168.054 74.5209C167.826 74.4395 167.549 74.3703 167.224 74.3133C166.955 74.2645 166.69 74.1994 166.43 74.118C166.17 74.0366 165.938 73.9308 165.734 73.8005C165.531 73.6622 165.368 73.4953 165.246 73.3C165.132 73.1046 165.075 72.8645 165.075 72.5797C165.075 72.2297 165.164 71.9204 165.343 71.6518C165.522 71.375 165.779 71.1594 166.113 71.0047C166.454 70.8501 166.849 70.7727 167.297 70.7727C167.956 70.7727 168.489 70.9315 168.896 71.2489C169.303 71.5663 169.543 72.0262 169.617 72.6285H168.603C168.562 72.3192 168.428 72.0791 168.2 71.9082C167.981 71.7291 167.675 71.6396 167.285 71.6396C166.902 71.6396 166.609 71.7169 166.406 71.8715C166.21 72.0262 166.113 72.2297 166.113 72.482C166.113 72.6448 166.165 72.7913 166.271 72.9215C166.385 73.0436 166.548 73.1494 166.76 73.2389C166.979 73.3285 167.248 73.4017 167.565 73.4587C167.972 73.5319 168.343 73.6296 168.676 73.7517C169.01 73.8738 169.279 74.0569 169.482 74.3011C169.694 74.5371 169.8 74.8749 169.8 75.3144C169.8 75.697 169.702 76.0307 169.507 76.3156C169.319 76.6004 169.051 76.8243 168.701 76.987C168.351 77.1417 167.94 77.219 167.468 77.219Z" fill="black" fill-opacity="0.6"/>
<path d="M49.2173 97.2886C48.5906 97.2886 48.0452 97.1746 47.5813 96.9467C47.1174 96.7188 46.7592 96.4014 46.5069 95.9945C46.2546 95.5875 46.1284 95.1154 46.1284 94.5782H47.2028C47.2028 94.9119 47.2801 95.2212 47.4348 95.5061C47.5894 95.7828 47.8133 96.0067 48.1063 96.1776C48.4074 96.3404 48.7778 96.4218 49.2173 96.4218C49.5998 96.4218 49.9254 96.3607 50.194 96.2386C50.4707 96.1084 50.6783 95.9334 50.8166 95.7137C50.9631 95.4939 51.0364 95.2456 51.0364 94.9689C51.0364 94.6352 50.9631 94.3666 50.8166 94.1631C50.6783 93.9515 50.487 93.7806 50.2428 93.6504C49.9986 93.5201 49.7138 93.4062 49.3882 93.3085C49.0708 93.2027 48.7371 93.0928 48.3871 92.9789C47.7115 92.751 47.215 92.4661 46.8976 92.1243C46.5802 91.7824 46.4215 91.3388 46.4215 90.7935C46.4215 90.3295 46.5273 89.9226 46.7389 89.5726C46.9586 89.2226 47.2679 88.9499 47.6668 88.7546C48.0737 88.5511 48.5539 88.4494 49.1074 88.4494C49.6527 88.4494 50.1248 88.5511 50.5236 88.7546C50.9306 88.9581 51.248 89.2389 51.4759 89.597C51.7038 89.947 51.8178 90.354 51.8178 90.8179H50.7434C50.7434 90.5819 50.6823 90.3499 50.5603 90.122C50.4382 89.8941 50.251 89.7069 49.9986 89.5604C49.7545 89.4057 49.4452 89.3284 49.0708 89.3284C48.7615 89.3203 48.4847 89.3732 48.2406 89.4871C48.0045 89.5929 47.8173 89.7476 47.679 89.9511C47.5487 90.1546 47.4836 90.4028 47.4836 90.6958C47.4836 90.9725 47.5406 91.1964 47.6545 91.3673C47.7766 91.5382 47.9476 91.6847 48.1673 91.8068C48.3952 91.9208 48.6597 92.0266 48.9609 92.1243C49.262 92.2219 49.5958 92.3318 49.962 92.4539C50.3771 92.5923 50.7434 92.7632 51.0608 92.9667C51.3864 93.162 51.6387 93.4143 51.8178 93.7236C52.005 94.0329 52.0986 94.4277 52.0986 94.9079C52.0986 95.3148 51.9887 95.7014 51.7689 96.0677C51.5573 96.4258 51.2399 96.7188 50.8166 96.9467C50.3934 97.1746 49.8603 97.2886 49.2173 97.2886ZM56.2627 97.2886C55.693 97.2886 55.1802 97.1584 54.7244 96.8979C54.2686 96.6293 53.9105 96.2549 53.65 95.7747C53.3896 95.2863 53.2594 94.7207 53.2594 94.0777C53.2594 93.4184 53.3896 92.8486 53.65 92.3684C53.9186 91.8801 54.2808 91.5057 54.7366 91.2452C55.2006 90.9766 55.7174 90.8423 56.2872 90.8423C56.8732 90.8423 57.39 90.9766 57.8377 91.2452C58.2935 91.5057 58.6516 91.8801 58.9121 92.3684C59.1807 92.8486 59.315 93.4143 59.315 94.0655C59.315 94.7166 59.1807 95.2863 58.9121 95.7747C58.6435 96.2549 58.2813 96.6293 57.8255 96.8979C57.3697 97.1584 56.8488 97.2886 56.2627 97.2886ZM56.275 96.4096C56.6249 96.4096 56.9505 96.3241 57.2517 96.1532C57.5528 95.9741 57.797 95.7096 57.9842 95.3596C58.1714 95.0096 58.265 94.5782 58.265 94.0655C58.265 93.5445 58.1714 93.1132 57.9842 92.7713C57.8051 92.4213 57.565 92.1609 57.2639 91.99C56.9709 91.8109 56.6453 91.7214 56.2872 91.7214C55.9453 91.7214 55.6197 91.8109 55.3105 91.99C55.0093 92.1609 54.7651 92.4213 54.5779 92.7713C54.3989 93.1132 54.3093 93.5445 54.3093 94.0655C54.3093 94.5782 54.3989 95.0096 54.5779 95.3596C54.7651 95.7096 55.0052 95.9741 55.2982 96.1532C55.5994 96.3241 55.925 96.4096 56.275 96.4096ZM61.0947 97.1421V90.0365C61.0947 89.6459 61.1598 89.3284 61.29 89.0842C61.4203 88.8319 61.6115 88.6488 61.8638 88.5348C62.1243 88.4128 62.4417 88.3517 62.8161 88.3517H63.512V89.2308H62.9748C62.6737 89.2308 62.4539 89.2918 62.3156 89.4139C62.1853 89.536 62.1202 89.7517 62.1202 90.061V97.1421H61.0947ZM60.1546 91.8557V90.9888H63.6708V91.8557H60.1546ZM67.3193 97.1421C66.953 97.1421 66.6356 97.0851 66.367 96.9712C66.0984 96.8572 65.8909 96.6659 65.7443 96.3973C65.606 96.1206 65.5368 95.7503 65.5368 95.2863V91.8557H64.4624V90.9888H65.5368L65.6711 89.4993H66.5623V90.9888H68.3448V91.8557H66.5623V95.2863C66.5623 95.6689 66.6397 95.9293 66.7943 96.0677C66.949 96.1979 67.2216 96.2631 67.6123 96.2631H68.2716V97.1421H67.3193ZM70.9282 97.1421L69.1213 90.9888H70.1469L71.5509 96.1776H71.3678L72.8939 90.9888H74.0537L75.6042 96.1654L75.4089 96.1776L76.8007 90.9888H77.8385L76.0438 97.1421H74.9938L73.3822 91.7214H73.5898L71.9782 97.1421H70.9282ZM80.7822 97.2886C80.2857 97.2886 79.8706 97.2031 79.5369 97.0322C79.2032 96.8531 78.955 96.6212 78.7922 96.3363C78.6294 96.0433 78.548 95.7259 78.548 95.384C78.548 94.9689 78.6538 94.6189 78.8654 94.3341C79.0852 94.041 79.3904 93.8213 79.7811 93.6748C80.1799 93.5201 80.6479 93.4428 81.1851 93.4428H82.8089C82.8089 93.0603 82.7479 92.7428 82.6258 92.4905C82.5118 92.2301 82.3409 92.0347 82.113 91.9045C81.8932 91.7743 81.6165 91.7091 81.2828 91.7091C80.8921 91.7091 80.5543 91.8068 80.2695 92.0022C79.9846 92.1975 79.8096 92.4864 79.7445 92.869H78.6945C78.7433 92.4295 78.8899 92.0632 79.134 91.7702C79.3863 91.469 79.7038 91.2411 80.0863 91.0865C80.4689 90.9237 80.8677 90.8423 81.2828 90.8423C81.8525 90.8423 82.3246 90.9481 82.699 91.1598C83.0816 91.3632 83.3664 91.6522 83.5536 92.0266C83.7408 92.3928 83.8344 92.8283 83.8344 93.3329V97.1421H82.9188L82.8577 96.0555C82.7763 96.2264 82.6705 96.3892 82.5403 96.5439C82.4182 96.6904 82.2717 96.8206 82.1008 96.9345C81.9299 97.0403 81.7345 97.1258 81.5148 97.1909C81.3031 97.256 81.059 97.2886 80.7822 97.2886ZM80.9409 96.4218C81.2258 96.4218 81.4822 96.3648 81.7101 96.2508C81.9461 96.1288 82.1455 95.966 82.3083 95.7625C82.4711 95.5509 82.5932 95.3189 82.6746 95.0666C82.7641 94.8143 82.8089 94.5497 82.8089 94.273V94.2364H81.2706C80.8718 94.2364 80.5503 94.2852 80.3061 94.3829C80.0619 94.4724 79.8869 94.6026 79.7811 94.7736C79.6753 94.9364 79.6224 95.1236 79.6224 95.3352C79.6224 95.5549 79.6712 95.7462 79.7689 95.909C79.8747 96.0718 80.0253 96.1979 80.2206 96.2875C80.4241 96.377 80.6642 96.4218 80.9409 96.4218ZM85.4209 97.1421V90.9888H86.3488L86.422 92.1609C86.5604 91.8841 86.7354 91.6481 86.947 91.4528C87.1668 91.2574 87.4272 91.1068 87.7284 91.001C88.0377 90.8952 88.3877 90.8423 88.7784 90.8423V91.9167H88.3999C88.1394 91.9167 87.8912 91.9533 87.6551 92.0266C87.4191 92.0917 87.2075 92.2016 87.0203 92.3562C86.8412 92.5109 86.6988 92.7225 86.593 92.9911C86.4953 93.2515 86.4465 93.5771 86.4465 93.9678V97.1421H85.4209ZM92.4113 97.2886C91.8334 97.2886 91.3206 97.1543 90.8729 96.8857C90.4334 96.6171 90.0875 96.2427 89.8352 95.7625C89.5829 95.2741 89.4567 94.7085 89.4567 94.0655C89.4567 93.4143 89.5788 92.8486 89.823 92.3684C90.0753 91.8882 90.4253 91.5138 90.8729 91.2452C91.3287 90.9766 91.8496 90.8423 92.4357 90.8423C93.038 90.8423 93.5467 90.9766 93.9618 91.2452C94.385 91.5138 94.7065 91.8679 94.9263 92.3074C95.1542 92.7388 95.2681 93.2149 95.2681 93.7358C95.2681 93.8172 95.2681 93.9027 95.2681 93.9922C95.2681 94.0817 95.2641 94.1835 95.2559 94.2974H90.2259V93.5039H94.267C94.2426 92.9422 94.0554 92.5027 93.7054 92.1853C93.3635 91.8679 92.9322 91.7091 92.4113 91.7091C92.0613 91.7091 91.7357 91.7905 91.4345 91.9533C91.1415 92.108 90.9055 92.3399 90.7264 92.6492C90.5474 92.9504 90.4578 93.3289 90.4578 93.7847V94.1265C90.4578 94.6311 90.5474 95.0544 90.7264 95.3962C90.9136 95.7381 91.1537 95.9945 91.4468 96.1654C91.7479 96.3363 92.0694 96.4218 92.4113 96.4218C92.8426 96.4218 93.1967 96.3282 93.4734 96.141C93.7583 95.9456 93.9618 95.6852 94.0839 95.3596H95.0972C94.9995 95.7259 94.8286 96.0555 94.5844 96.3485C94.3403 96.6415 94.035 96.8735 93.6688 97.0444C93.3106 97.2072 92.8915 97.2886 92.4113 97.2886ZM99.9561 97.1421V88.5959H100.982V96.3241H104.962V97.1421H99.9561ZM106.431 97.1421V90.9888H107.457V97.1421H106.431ZM106.944 89.6825C106.74 89.6825 106.569 89.6174 106.431 89.4871C106.301 89.3488 106.236 89.1778 106.236 88.9744C106.236 88.7709 106.301 88.6081 106.431 88.486C106.569 88.3558 106.74 88.2907 106.944 88.2907C107.139 88.2907 107.306 88.3558 107.444 88.486C107.583 88.6081 107.652 88.7709 107.652 88.9744C107.652 89.1778 107.583 89.3488 107.444 89.4871C107.306 89.6174 107.139 89.6825 106.944 89.6825ZM112.038 97.2886C111.46 97.2886 110.939 97.1543 110.475 96.8857C110.019 96.6171 109.661 96.2427 109.401 95.7625C109.14 95.2741 109.01 94.7125 109.01 94.0777C109.01 93.4265 109.14 92.8609 109.401 92.3806C109.661 91.9004 110.019 91.526 110.475 91.2574C110.939 90.9807 111.46 90.8423 112.038 90.8423C112.77 90.8423 113.381 91.0336 113.869 91.4161C114.357 91.7905 114.667 92.2952 114.797 92.93H113.747C113.666 92.5475 113.466 92.2504 113.149 92.0388C112.831 91.8272 112.457 91.7214 112.026 91.7214C111.676 91.7214 111.35 91.8109 111.049 91.99C110.748 92.1609 110.508 92.4213 110.329 92.7713C110.149 93.1213 110.06 93.5527 110.06 94.0655C110.06 94.448 110.113 94.7899 110.219 95.091C110.324 95.384 110.467 95.6282 110.646 95.8235C110.825 96.0189 111.033 96.1695 111.269 96.2753C111.513 96.3729 111.765 96.4218 112.026 96.4218C112.319 96.4218 112.583 96.377 112.819 96.2875C113.055 96.1898 113.255 96.0474 113.417 95.8602C113.58 95.673 113.69 95.4532 113.747 95.2009H114.797C114.667 95.8195 114.353 96.3241 113.857 96.7148C113.369 97.0973 112.762 97.2886 112.038 97.2886ZM116.351 97.1421V90.9888H117.376V97.1421H116.351ZM116.863 89.6825C116.66 89.6825 116.489 89.6174 116.351 89.4871C116.22 89.3488 116.155 89.1778 116.155 88.9744C116.155 88.7709 116.22 88.6081 116.351 88.486C116.489 88.3558 116.66 88.2907 116.863 88.2907C117.059 88.2907 117.226 88.3558 117.364 88.486C117.502 88.6081 117.572 88.7709 117.572 88.9744C117.572 89.1778 117.502 89.3488 117.364 89.4871C117.226 89.6174 117.059 89.6825 116.863 89.6825ZM121.884 97.2886C121.306 97.2886 120.794 97.1543 120.346 96.8857C119.906 96.6171 119.56 96.2427 119.308 95.7625C119.056 95.2741 118.93 94.7085 118.93 94.0655C118.93 93.4143 119.052 92.8486 119.296 92.3684C119.548 91.8882 119.898 91.5138 120.346 91.2452C120.802 90.9766 121.323 90.8423 121.909 90.8423C122.511 90.8423 123.02 90.9766 123.435 91.2452C123.858 91.5138 124.179 91.8679 124.399 92.3074C124.627 92.7388 124.741 93.2149 124.741 93.7358C124.741 93.8172 124.741 93.9027 124.741 93.9922C124.741 94.0817 124.737 94.1835 124.729 94.2974H119.699V93.5039H123.74C123.716 92.9422 123.528 92.5027 123.178 92.1853C122.836 91.8679 122.405 91.7091 121.884 91.7091C121.534 91.7091 121.209 91.7905 120.907 91.9533C120.614 92.108 120.378 92.3399 120.199 92.6492C120.02 92.9504 119.931 93.3289 119.931 93.7847V94.1265C119.931 94.6311 120.02 95.0544 120.199 95.3962C120.387 95.7381 120.627 95.9945 120.92 96.1654C121.221 96.3363 121.542 96.4218 121.884 96.4218C122.316 96.4218 122.67 96.3282 122.946 96.141C123.231 95.9456 123.435 95.6852 123.557 95.3596H124.57C124.472 95.7259 124.302 96.0555 124.057 96.3485C123.813 96.6415 123.508 96.8735 123.142 97.0444C122.784 97.2072 122.364 97.2886 121.884 97.2886ZM126.125 97.1421V90.9888H127.053L127.102 92.0632C127.297 91.6807 127.574 91.3836 127.932 91.172C128.298 90.9522 128.713 90.8423 129.177 90.8423C129.657 90.8423 130.073 90.94 130.423 91.1353C130.773 91.3225 131.045 91.6115 131.241 92.0022C131.436 92.3847 131.534 92.8731 131.534 93.4672V97.1421H130.508V93.5771C130.508 92.9585 130.37 92.4946 130.093 92.1853C129.824 91.876 129.442 91.7214 128.945 91.7214C128.603 91.7214 128.298 91.8068 128.03 91.9777C127.761 92.1405 127.545 92.3806 127.383 92.6981C127.228 93.0074 127.151 93.394 127.151 93.8579V97.1421H126.125ZM135.455 97.2886C134.943 97.2886 134.495 97.2031 134.112 97.0322C133.738 96.8613 133.437 96.6252 133.209 96.3241C132.989 96.0148 132.855 95.6526 132.806 95.2375H133.856C133.897 95.4491 133.982 95.6445 134.112 95.8235C134.243 96.0026 134.418 96.1491 134.637 96.2631C134.865 96.3689 135.142 96.4218 135.467 96.4218C135.752 96.4218 135.988 96.3811 136.176 96.2997C136.363 96.2101 136.501 96.0921 136.591 95.9456C136.688 95.7991 136.737 95.6404 136.737 95.4695C136.737 95.2172 136.676 95.0259 136.554 94.8957C136.44 94.7654 136.269 94.6637 136.041 94.5904C135.813 94.509 135.537 94.4399 135.211 94.3829C134.943 94.3341 134.678 94.2689 134.418 94.1875C134.157 94.1062 133.925 94.0003 133.722 93.8701C133.518 93.7317 133.355 93.5649 133.233 93.3696C133.119 93.1742 133.062 92.9341 133.062 92.6492C133.062 92.2992 133.152 91.99 133.331 91.7214C133.51 91.4446 133.766 91.2289 134.1 91.0743C134.442 90.9196 134.837 90.8423 135.284 90.8423C135.944 90.8423 136.477 91.001 136.884 91.3185C137.291 91.6359 137.531 92.0958 137.604 92.6981H136.591C136.55 92.3888 136.416 92.1487 136.188 91.9777C135.968 91.7987 135.663 91.7091 135.272 91.7091C134.89 91.7091 134.597 91.7865 134.393 91.9411C134.198 92.0958 134.1 92.2992 134.1 92.5516C134.1 92.7143 134.153 92.8609 134.259 92.9911C134.373 93.1132 134.536 93.219 134.747 93.3085C134.967 93.398 135.236 93.4713 135.553 93.5283C135.96 93.6015 136.33 93.6992 136.664 93.8213C136.998 93.9434 137.266 94.1265 137.47 94.3707C137.681 94.6067 137.787 94.9445 137.787 95.384C137.787 95.7666 137.69 96.1003 137.494 96.3851C137.307 96.67 137.038 96.8938 136.688 97.0566C136.338 97.2113 135.927 97.2886 135.455 97.2886ZM141.962 97.2886C141.384 97.2886 140.871 97.1543 140.424 96.8857C139.984 96.6171 139.638 96.2427 139.386 95.7625C139.134 95.2741 139.007 94.7085 139.007 94.0655C139.007 93.4143 139.13 92.8486 139.374 92.3684C139.626 91.8882 139.976 91.5138 140.424 91.2452C140.88 90.9766 141.4 90.8423 141.986 90.8423C142.589 90.8423 143.097 90.9766 143.513 91.2452C143.936 91.5138 144.257 91.8679 144.477 92.3074C144.705 92.7388 144.819 93.2149 144.819 93.7358C144.819 93.8172 144.819 93.9027 144.819 93.9922C144.819 94.0817 144.815 94.1835 144.807 94.2974H139.777V93.5039H143.818C143.793 92.9422 143.606 92.5027 143.256 92.1853C142.914 91.8679 142.483 91.7091 141.962 91.7091C141.612 91.7091 141.286 91.7905 140.985 91.9533C140.692 92.108 140.456 92.3399 140.277 92.6492C140.098 92.9504 140.009 93.3289 140.009 93.7847V94.1265C140.009 94.6311 140.098 95.0544 140.277 95.3962C140.464 95.7381 140.705 95.9945 140.998 96.1654C141.299 96.3363 141.62 96.4218 141.962 96.4218C142.393 96.4218 142.747 96.3282 143.024 96.141C143.309 95.9456 143.513 95.6852 143.635 95.3596H144.648C144.55 95.7259 144.379 96.0555 144.135 96.3485C143.891 96.6415 143.586 96.8735 143.22 97.0444C142.861 97.2072 142.442 97.2886 141.962 97.2886Z" fill="black" fill-opacity="0.6"/>
<path d="M45.579 113.351H398.022" stroke="#DCDCDC" stroke-width="1.0174" stroke-linecap="round"/>
<rect width="385" height="42.731" transform="translate(29.3006 115.386)" fill="white"/>
<g clip-path="url(#clip1_33_414)">
<path d="M53.7183 130.647V134.716L56.4314 136.073" stroke="#CE9C40" stroke-width="1.52611" stroke-linecap="round" stroke-linejoin="round"/>
<path d="M53.7179 141.5C57.4639 141.5 60.5006 138.463 60.5006 134.717C60.5006 130.971 57.4639 127.934 53.7179 127.934C49.972 127.934 46.9352 130.971 46.9352 134.717C46.9352 138.463 49.972 141.5 53.7179 141.5Z" stroke="#CE9C40" stroke-width="1.52611" stroke-linecap="round" stroke-linejoin="round"/>
</g>
<path d="M70.6886 138.863C69.8665 138.863 69.1381 138.68 68.5032 138.313C67.8765 137.939 67.384 137.422 67.0259 136.763C66.6678 136.095 66.4887 135.322 66.4887 134.443C66.4887 133.572 66.6678 132.807 67.0259 132.148C67.384 131.481 67.8765 130.96 68.5032 130.585C69.1381 130.211 69.8665 130.024 70.6886 130.024C71.5269 130.024 72.2635 130.211 72.8984 130.585C73.5332 130.96 74.0257 131.481 74.3757 132.148C74.7256 132.807 74.9006 133.572 74.9006 134.443C74.9006 135.322 74.7256 136.095 74.3757 136.763C74.0257 137.422 73.5332 137.939 72.8984 138.313C72.2635 138.68 71.5269 138.863 70.6886 138.863ZM70.7008 137.544C71.2461 137.544 71.7223 137.422 72.1292 137.178C72.5362 136.926 72.8495 136.568 73.0693 136.104C73.2891 135.64 73.3989 135.086 73.3989 134.443C73.3989 133.8 73.2891 133.247 73.0693 132.783C72.8495 132.319 72.5362 131.965 72.1292 131.721C71.7223 131.468 71.2461 131.342 70.7008 131.342C70.1555 131.342 69.6793 131.468 69.2724 131.721C68.8654 131.965 68.548 132.319 68.3201 132.783C68.1003 133.247 67.9904 133.8 67.9904 134.443C67.9904 135.086 68.1003 135.64 68.3201 136.104C68.548 136.568 68.8654 136.926 69.2724 137.178C69.6793 137.422 70.1555 137.544 70.7008 137.544ZM76.4054 138.716V132.563H77.6995L77.8094 133.589C77.9966 133.23 78.2652 132.946 78.6152 132.734C78.9652 132.522 79.3803 132.417 79.8605 132.417C80.357 132.417 80.7802 132.522 81.1302 132.734C81.4802 132.937 81.7488 133.239 81.936 133.637C82.1313 134.036 82.229 134.533 82.229 135.127V138.716H80.7639V135.261C80.7639 134.748 80.65 134.354 80.4221 134.077C80.1942 133.8 79.8564 133.662 79.4088 133.662C79.1157 133.662 78.8512 133.731 78.6152 133.869C78.3873 134.008 78.2041 134.211 78.0658 134.48C77.9356 134.74 77.8704 135.058 77.8704 135.432V138.716H76.4054ZM83.9934 135.725V134.504H89.0478V135.725H83.9934ZM93.5093 141.549C92.9314 141.549 92.4227 141.476 91.9832 141.329C91.5518 141.191 91.214 140.975 90.9699 140.682C90.7338 140.397 90.6158 140.039 90.6158 139.608C90.6158 139.355 90.6769 139.107 90.7989 138.863C90.9292 138.627 91.1204 138.407 91.3728 138.204C91.6332 137.992 91.9629 137.809 92.3617 137.654L93.0087 138.362C92.6181 138.501 92.3454 138.667 92.1908 138.863C92.0361 139.058 91.9588 139.258 91.9588 139.461C91.9588 139.673 92.0239 139.848 92.1541 139.986C92.2925 140.133 92.4756 140.242 92.7035 140.316C92.9396 140.389 93.2041 140.426 93.4971 140.426C93.782 140.426 94.0302 140.385 94.2418 140.303C94.4535 140.23 94.6162 140.124 94.7302 139.986C94.8523 139.848 94.9133 139.681 94.9133 139.485C94.9133 139.241 94.8279 139.042 94.6569 138.887C94.486 138.741 94.1482 138.651 93.6436 138.619C93.2122 138.586 92.8338 138.541 92.5082 138.484C92.1826 138.419 91.9018 138.346 91.6658 138.265C91.4379 138.183 91.2425 138.094 91.0797 137.996C90.917 137.89 90.7827 137.784 90.6769 137.679V137.398L91.9588 136.055L93.0454 136.409L91.6047 137.813L91.9832 137.105C92.0646 137.162 92.146 137.215 92.2274 137.263C92.3169 137.312 92.4268 137.357 92.557 137.398C92.6954 137.43 92.8745 137.463 93.0942 137.495C93.314 137.528 93.5988 137.561 93.9488 137.593C94.4942 137.634 94.9377 137.731 95.2796 137.886C95.6214 138.041 95.8738 138.248 96.0365 138.509C96.1993 138.769 96.2807 139.083 96.2807 139.449C96.2807 139.807 96.179 140.145 95.9755 140.462C95.7802 140.78 95.479 141.04 95.072 141.244C94.6651 141.447 94.1442 141.549 93.5093 141.549ZM93.5093 136.873C92.9965 136.873 92.553 136.775 92.1785 136.58C91.8123 136.376 91.5315 136.108 91.3361 135.774C91.1408 135.432 91.0431 135.058 91.0431 134.651C91.0431 134.236 91.1408 133.861 91.3361 133.528C91.5315 133.194 91.8123 132.925 92.1785 132.722C92.553 132.518 92.9965 132.417 93.5093 132.417C94.0221 132.417 94.4616 132.518 94.8279 132.722C95.1941 132.925 95.4749 133.194 95.6703 133.528C95.8656 133.861 95.9633 134.236 95.9633 134.651C95.9633 135.058 95.8656 135.432 95.6703 135.774C95.4749 136.108 95.1941 136.376 94.8279 136.58C94.4616 136.775 94.0221 136.873 93.5093 136.873ZM93.5093 135.737C93.8593 135.737 94.1401 135.644 94.3517 135.457C94.5633 135.269 94.6692 135.001 94.6692 134.651C94.6692 134.301 94.5633 134.036 94.3517 133.857C94.1401 133.67 93.8593 133.576 93.5093 133.576C93.1593 133.576 92.8745 133.67 92.6547 133.857C92.4349 134.036 92.3251 134.301 92.3251 134.651C92.3251 135.001 92.4349 135.269 92.6547 135.457C92.8745 135.644 93.1593 135.737 93.5093 135.737ZM94.5226 133.637L94.2418 132.563H96.7691V133.479L94.5226 133.637ZM100.815 138.863C100.229 138.863 99.7004 138.729 99.2283 138.46C98.7644 138.183 98.3981 137.805 98.1295 137.324C97.869 136.836 97.7388 136.279 97.7388 135.652C97.7388 135.009 97.8731 134.447 98.1417 133.967C98.4103 133.479 98.7766 133.1 99.2405 132.832C99.7126 132.555 100.242 132.417 100.828 132.417C101.414 132.417 101.939 132.555 102.403 132.832C102.875 133.1 103.241 133.475 103.501 133.955C103.77 134.435 103.904 134.997 103.904 135.64C103.904 136.283 103.77 136.844 103.501 137.324C103.233 137.805 102.862 138.183 102.39 138.46C101.926 138.729 101.401 138.863 100.815 138.863ZM100.815 137.605C101.108 137.605 101.373 137.532 101.609 137.386C101.853 137.239 102.049 137.019 102.195 136.726C102.342 136.433 102.415 136.071 102.415 135.64C102.415 135.208 102.342 134.85 102.195 134.565C102.057 134.272 101.865 134.053 101.621 133.906C101.385 133.76 101.121 133.686 100.828 133.686C100.543 133.686 100.278 133.76 100.034 133.906C99.7899 134.053 99.5946 134.272 99.4481 134.565C99.3016 134.85 99.2283 135.208 99.2283 135.64C99.2283 136.071 99.3016 136.433 99.4481 136.726C99.5946 137.019 99.7858 137.239 100.022 137.386C100.266 137.532 100.531 137.605 100.815 137.605ZM105.522 138.716V132.563H106.987V138.716H105.522ZM106.254 131.586C105.986 131.586 105.762 131.505 105.583 131.342C105.412 131.171 105.326 130.964 105.326 130.72C105.326 130.467 105.412 130.264 105.583 130.109C105.762 129.946 105.986 129.865 106.254 129.865C106.523 129.865 106.742 129.946 106.913 130.109C107.092 130.264 107.182 130.467 107.182 130.72C107.182 130.964 107.092 131.171 106.913 131.342C106.742 131.505 106.523 131.586 106.254 131.586ZM108.802 138.716V132.563H110.096L110.206 133.589C110.393 133.23 110.662 132.946 111.012 132.734C111.362 132.522 111.777 132.417 112.257 132.417C112.753 132.417 113.177 132.522 113.527 132.734C113.877 132.937 114.145 133.239 114.332 133.637C114.528 134.036 114.625 134.533 114.625 135.127V138.716H113.16V135.261C113.16 134.748 113.046 134.354 112.818 134.077C112.591 133.8 112.253 133.662 111.805 133.662C111.512 133.662 111.248 133.731 111.012 133.869C110.784 134.008 110.601 134.211 110.462 134.48C110.332 134.74 110.267 135.058 110.267 135.432V138.716H108.802ZM118.88 141.549C118.302 141.549 117.794 141.476 117.354 141.329C116.923 141.191 116.585 140.975 116.341 140.682C116.105 140.397 115.987 140.039 115.987 139.608C115.987 139.355 116.048 139.107 116.17 138.863C116.3 138.627 116.491 138.407 116.744 138.204C117.004 137.992 117.334 137.809 117.733 137.654L118.38 138.362C117.989 138.501 117.716 138.667 117.562 138.863C117.407 139.058 117.33 139.258 117.33 139.461C117.33 139.673 117.395 139.848 117.525 139.986C117.664 140.133 117.847 140.242 118.075 140.316C118.311 140.389 118.575 140.426 118.868 140.426C119.153 140.426 119.401 140.385 119.613 140.303C119.825 140.23 119.987 140.124 120.101 139.986C120.223 139.848 120.284 139.681 120.284 139.485C120.284 139.241 120.199 139.042 120.028 138.887C119.857 138.741 119.519 138.651 119.015 138.619C118.583 138.586 118.205 138.541 117.879 138.484C117.554 138.419 117.273 138.346 117.037 138.265C116.809 138.183 116.614 138.094 116.451 137.996C116.288 137.89 116.154 137.784 116.048 137.679V137.398L117.33 136.055L118.416 136.409L116.976 137.813L117.354 137.105C117.436 137.162 117.517 137.215 117.598 137.263C117.688 137.312 117.798 137.357 117.928 137.398C118.066 137.43 118.246 137.463 118.465 137.495C118.685 137.528 118.97 137.561 119.32 137.593C119.865 137.634 120.309 137.731 120.651 137.886C120.992 138.041 121.245 138.248 121.408 138.509C121.57 138.769 121.652 139.083 121.652 139.449C121.652 139.807 121.55 140.145 121.347 140.462C121.151 140.78 120.85 141.04 120.443 141.244C120.036 141.447 119.515 141.549 118.88 141.549ZM118.88 136.873C118.368 136.873 117.924 136.775 117.55 136.58C117.183 136.376 116.903 136.108 116.707 135.774C116.512 135.432 116.414 135.058 116.414 134.651C116.414 134.236 116.512 133.861 116.707 133.528C116.903 133.194 117.183 132.925 117.55 132.722C117.924 132.518 118.368 132.417 118.88 132.417C119.393 132.417 119.833 132.518 120.199 132.722C120.565 132.925 120.846 133.194 121.041 133.528C121.237 133.861 121.334 134.236 121.334 134.651C121.334 135.058 121.237 135.432 121.041 135.774C120.846 136.108 120.565 136.376 120.199 136.58C119.833 136.775 119.393 136.873 118.88 136.873ZM118.88 135.737C119.23 135.737 119.511 135.644 119.723 135.457C119.934 135.269 120.04 135.001 120.04 134.651C120.04 134.301 119.934 134.036 119.723 133.857C119.511 133.67 119.23 133.576 118.88 133.576C118.53 133.576 118.246 133.67 118.026 133.857C117.806 134.036 117.696 134.301 117.696 134.651C117.696 135.001 117.806 135.269 118.026 135.457C118.246 135.644 118.53 135.737 118.88 135.737ZM119.894 133.637L119.613 132.563H122.14V133.479L119.894 133.637Z" fill="#CE9C40"/>
<path d="M236.83 132.003H247.682M236.83 132.003V137.972C236.83 138.732 236.83 139.112 236.978 139.402C237.108 139.657 237.315 139.865 237.571 139.995C237.861 140.142 238.24 140.142 238.999 140.142H245.514C246.272 140.142 246.651 140.142 246.941 139.995C247.197 139.865 247.405 139.657 247.535 139.402C247.682 139.112 247.682 138.733 247.682 137.974V132.003M236.83 132.003V131.461C236.83 130.701 236.83 130.321 236.978 130.031C237.108 129.775 237.315 129.568 237.571 129.438C237.861 129.29 238.241 129.29 239.001 129.29H239.543M247.682 132.003V131.459C247.682 130.7 247.682 130.321 247.535 130.031C247.405 129.775 247.197 129.568 246.941 129.438C246.651 129.29 246.272 129.29 245.512 129.29H244.969M244.969 127.934V129.29M244.969 129.29H239.543M239.543 127.934V129.29" stroke="#B0B0B0" stroke-width="1.0174" stroke-linecap="round" stroke-linejoin="round"/>
<path d="M256.618 138.863C255.869 138.863 255.222 138.68 254.677 138.314C254.14 137.939 253.729 137.422 253.444 136.763C253.159 136.096 253.016 135.322 253.016 134.443C253.016 133.564 253.159 132.795 253.444 132.136C253.729 131.469 254.14 130.952 254.677 130.585C255.222 130.211 255.869 130.024 256.618 130.024C257.367 130.024 258.006 130.211 258.535 130.585C259.072 130.952 259.483 131.469 259.768 132.136C260.053 132.795 260.195 133.564 260.195 134.443C260.195 135.322 260.053 136.096 259.768 136.763C259.483 137.422 259.072 137.939 258.535 138.314C258.006 138.68 257.367 138.863 256.618 138.863ZM256.606 137.96C257.094 137.96 257.53 137.821 257.912 137.545C258.295 137.26 258.596 136.857 258.816 136.336C259.035 135.807 259.145 135.176 259.145 134.443C259.145 133.711 259.035 133.084 258.816 132.563C258.596 132.034 258.295 131.631 257.912 131.355C257.53 131.078 257.094 130.94 256.606 130.94C256.117 130.94 255.678 131.078 255.287 131.355C254.905 131.631 254.604 132.034 254.384 132.563C254.172 133.084 254.066 133.711 254.066 134.443C254.066 135.176 254.172 135.807 254.384 136.336C254.604 136.857 254.905 137.26 255.287 137.545C255.678 137.821 256.117 137.96 256.606 137.96ZM262.632 138.717V131.318L261.167 131.684V130.952L262.974 130.17H263.67V138.717H262.632ZM264.921 139.876L267.986 129.389H268.999L265.935 139.876H264.921ZM273.31 138.863C272.561 138.863 271.914 138.68 271.369 138.314C270.831 137.939 270.42 137.422 270.135 136.763C269.851 136.096 269.708 135.322 269.708 134.443C269.708 133.564 269.851 132.795 270.135 132.136C270.42 131.469 270.831 130.952 271.369 130.585C271.914 130.211 272.561 130.024 273.31 130.024C274.059 130.024 274.698 130.211 275.227 130.585C275.764 130.952 276.175 131.469 276.46 132.136C276.745 132.795 276.887 133.564 276.887 134.443C276.887 135.322 276.745 136.096 276.46 136.763C276.175 137.422 275.764 137.939 275.227 138.314C274.698 138.68 274.059 138.863 273.31 138.863ZM273.298 137.96C273.786 137.96 274.221 137.821 274.604 137.545C274.986 137.26 275.288 136.857 275.507 136.336C275.727 135.807 275.837 135.176 275.837 134.443C275.837 133.711 275.727 133.084 275.507 132.563C275.288 132.034 274.986 131.631 274.604 131.355C274.221 131.078 273.786 130.94 273.298 130.94C272.809 130.94 272.37 131.078 271.979 131.355C271.596 131.631 271.295 132.034 271.076 132.563C270.864 133.084 270.758 133.711 270.758 134.443C270.758 135.176 270.864 135.807 271.076 136.336C271.295 136.857 271.596 137.26 271.979 137.545C272.37 137.821 272.809 137.96 273.298 137.96ZM278.13 138.717V137.996C278.708 137.54 279.257 137.081 279.778 136.617C280.307 136.153 280.775 135.693 281.182 135.237C281.589 134.773 281.907 134.321 282.135 133.882C282.371 133.442 282.489 133.019 282.489 132.612C282.489 132.311 282.436 132.034 282.33 131.782C282.224 131.521 282.053 131.31 281.817 131.147C281.589 130.984 281.28 130.903 280.889 130.903C280.507 130.903 280.189 130.988 279.937 131.159C279.685 131.322 279.493 131.542 279.363 131.819C279.241 132.087 279.18 132.384 279.18 132.71H278.191C278.199 132.148 278.317 131.668 278.545 131.269C278.781 130.862 279.103 130.553 279.51 130.341C279.917 130.13 280.381 130.024 280.902 130.024C281.414 130.024 281.866 130.122 282.257 130.317C282.647 130.504 282.953 130.785 283.172 131.159C283.4 131.534 283.514 132.006 283.514 132.575C283.514 132.974 283.429 133.373 283.258 133.772C283.095 134.171 282.875 134.561 282.599 134.944C282.322 135.318 282.013 135.681 281.671 136.031C281.337 136.381 280.991 136.71 280.633 137.02C280.283 137.329 279.953 137.61 279.644 137.862H283.807V138.717H278.13ZM284.725 139.876L287.789 129.389H288.803L285.738 139.876H284.725ZM289.946 138.717V137.996C290.523 137.54 291.073 137.081 291.594 136.617C292.123 136.153 292.591 135.693 292.998 135.237C293.405 134.773 293.722 134.321 293.95 133.882C294.186 133.442 294.304 133.019 294.304 132.612C294.304 132.311 294.251 132.034 294.145 131.782C294.04 131.521 293.869 131.31 293.633 131.147C293.405 130.984 293.095 130.903 292.705 130.903C292.322 130.903 292.005 130.988 291.752 131.159C291.5 131.322 291.309 131.542 291.179 131.819C291.057 132.087 290.996 132.384 290.996 132.71H290.007C290.015 132.148 290.133 131.668 290.361 131.269C290.597 130.862 290.918 130.553 291.325 130.341C291.732 130.13 292.196 130.024 292.717 130.024C293.23 130.024 293.681 130.122 294.072 130.317C294.463 130.504 294.768 130.785 294.988 131.159C295.216 131.534 295.33 132.006 295.33 132.575C295.33 132.974 295.244 133.373 295.073 133.772C294.911 134.171 294.691 134.561 294.414 134.944C294.137 135.318 293.828 135.681 293.486 136.031C293.152 136.381 292.807 136.71 292.448 137.02C292.098 137.329 291.769 137.61 291.459 137.862H295.623V138.717H289.946ZM299.996 138.863C299.41 138.863 298.901 138.757 298.469 138.546C298.046 138.334 297.708 138.045 297.456 137.679C297.212 137.313 297.057 136.902 296.992 136.446H297.993C298.091 136.902 298.315 137.272 298.665 137.557C299.015 137.842 299.462 137.984 300.008 137.984C300.415 137.984 300.761 137.89 301.046 137.703C301.339 137.516 301.562 137.26 301.717 136.934C301.88 136.608 301.961 136.246 301.961 135.847C301.961 135.432 301.88 135.066 301.717 134.749C301.554 134.431 301.33 134.187 301.046 134.016C300.761 133.837 300.427 133.748 300.044 133.748C299.58 133.748 299.186 133.849 298.86 134.053C298.535 134.256 298.29 134.517 298.128 134.834H297.139L297.847 130.17H302.364V131.062H298.64L298.164 133.687C298.368 133.45 298.636 133.259 298.97 133.113C299.312 132.958 299.707 132.881 300.154 132.881C300.578 132.881 300.96 132.954 301.302 133.1C301.644 133.247 301.937 133.455 302.181 133.723C302.425 133.992 302.612 134.305 302.743 134.663C302.881 135.021 302.95 135.412 302.95 135.835C302.95 136.25 302.881 136.641 302.743 137.007C302.612 137.365 302.421 137.687 302.169 137.972C301.916 138.249 301.607 138.468 301.241 138.631C300.875 138.786 300.46 138.863 299.996 138.863Z" fill="#B0B0B0"/>
<path d="M313.449 135.542V134.675H318.283V135.542H313.449Z" fill="#B0B0B0"/>
<path d="M330.422 132.003H341.274M330.422 132.003V137.972C330.422 138.732 330.422 139.112 330.57 139.402C330.7 139.657 330.907 139.865 331.162 139.995C331.452 140.142 331.832 140.142 332.59 140.142H339.106C339.864 140.142 340.243 140.142 340.533 139.995C340.788 139.865 340.996 139.657 341.127 139.402C341.274 139.112 341.274 138.733 341.274 137.974V132.003M330.422 132.003V131.461C330.422 130.701 330.422 130.321 330.57 130.031C330.7 129.775 330.907 129.568 331.162 129.438C331.453 129.29 331.833 129.29 332.592 129.29H333.135M341.274 132.003V131.459C341.274 130.7 341.274 130.321 341.127 130.031C340.996 129.775 340.788 129.568 340.533 129.438C340.243 129.29 339.864 129.29 339.104 129.29H338.561M338.561 127.934V129.29M338.561 129.29H333.135M333.135 127.934V129.29" stroke="#B0B0B0" stroke-width="1.0174" stroke-linecap="round" stroke-linejoin="round"/>
<path d="M350.21 138.863C349.461 138.863 348.814 138.68 348.269 138.314C347.731 137.939 347.32 137.422 347.035 136.763C346.751 136.096 346.608 135.322 346.608 134.443C346.608 133.564 346.751 132.795 347.035 132.136C347.32 131.469 347.731 130.952 348.269 130.585C348.814 130.211 349.461 130.024 350.21 130.024C350.959 130.024 351.597 130.211 352.127 130.585C352.664 130.952 353.075 131.469 353.36 132.136C353.644 132.795 353.787 133.564 353.787 134.443C353.787 135.322 353.644 136.096 353.36 136.763C353.075 137.422 352.664 137.939 352.127 138.314C351.597 138.68 350.959 138.863 350.21 138.863ZM350.198 137.96C350.686 137.96 351.121 137.821 351.504 137.545C351.886 137.26 352.188 136.857 352.407 136.336C352.627 135.807 352.737 135.176 352.737 134.443C352.737 133.711 352.627 133.084 352.407 132.563C352.188 132.034 351.886 131.631 351.504 131.355C351.121 131.078 350.686 130.94 350.198 130.94C349.709 130.94 349.27 131.078 348.879 131.355C348.496 131.631 348.195 132.034 347.976 132.563C347.764 133.084 347.658 133.711 347.658 134.443C347.658 135.176 347.764 135.807 347.976 136.336C348.195 136.857 348.496 137.26 348.879 137.545C349.27 137.821 349.709 137.96 350.198 137.96ZM356.224 138.717V131.318L354.759 131.684V130.952L356.566 130.17H357.261V138.717H356.224ZM358.513 139.876L361.578 129.389H362.591L359.527 139.876H358.513ZM366.902 138.863C366.153 138.863 365.506 138.68 364.96 138.314C364.423 137.939 364.012 137.422 363.727 136.763C363.442 136.096 363.3 135.322 363.3 134.443C363.3 133.564 363.442 132.795 363.727 132.136C364.012 131.469 364.423 130.952 364.96 130.585C365.506 130.211 366.153 130.024 366.902 130.024C367.65 130.024 368.289 130.211 368.818 130.585C369.356 130.952 369.767 131.469 370.051 132.136C370.336 132.795 370.479 133.564 370.479 134.443C370.479 135.322 370.336 136.096 370.051 136.763C369.767 137.422 369.356 137.939 368.818 138.314C368.289 138.68 367.65 138.863 366.902 138.863ZM366.889 137.96C367.378 137.96 367.813 137.821 368.196 137.545C368.578 137.26 368.879 136.857 369.099 136.336C369.319 135.807 369.429 135.176 369.429 134.443C369.429 133.711 369.319 133.084 369.099 132.563C368.879 132.034 368.578 131.631 368.196 131.355C367.813 131.078 367.378 130.94 366.889 130.94C366.401 130.94 365.961 131.078 365.571 131.355C365.188 131.631 364.887 132.034 364.667 132.563C364.456 133.084 364.35 133.711 364.35 134.443C364.35 135.176 364.456 135.807 364.667 136.336C364.887 136.857 365.188 137.26 365.571 137.545C365.961 137.821 366.401 137.96 366.889 137.96ZM371.722 138.717V137.996C372.3 137.54 372.849 137.081 373.37 136.617C373.899 136.153 374.367 135.693 374.774 135.237C375.181 134.773 375.499 134.321 375.726 133.882C375.962 133.442 376.08 133.019 376.08 132.612C376.08 132.311 376.028 132.034 375.922 131.782C375.816 131.521 375.645 131.31 375.409 131.147C375.181 130.984 374.872 130.903 374.481 130.903C374.099 130.903 373.781 130.988 373.529 131.159C373.277 131.322 373.085 131.542 372.955 131.819C372.833 132.087 372.772 132.384 372.772 132.71H371.783C371.791 132.148 371.909 131.668 372.137 131.269C372.373 130.862 372.695 130.553 373.102 130.341C373.508 130.13 373.972 130.024 374.493 130.024C375.006 130.024 375.458 130.122 375.849 130.317C376.239 130.504 376.544 130.785 376.764 131.159C376.992 131.534 377.106 132.006 377.106 132.575C377.106 132.974 377.021 133.373 376.85 133.772C376.687 134.171 376.467 134.561 376.19 134.944C375.914 135.318 375.604 135.681 375.262 136.031C374.929 136.381 374.583 136.71 374.225 137.02C373.875 137.329 373.545 137.61 373.236 137.862H377.399V138.717H371.722ZM378.317 139.876L381.381 129.389H382.395L379.33 139.876H378.317ZM383.537 138.717V137.996C384.115 137.54 384.665 137.081 385.186 136.617C385.715 136.153 386.183 135.693 386.59 135.237C386.997 134.773 387.314 134.321 387.542 133.882C387.778 133.442 387.896 133.019 387.896 132.612C387.896 132.311 387.843 132.034 387.737 131.782C387.631 131.521 387.46 131.31 387.224 131.147C386.997 130.984 386.687 130.903 386.297 130.903C385.914 130.903 385.597 130.988 385.344 131.159C385.092 131.322 384.901 131.542 384.77 131.819C384.648 132.087 384.587 132.384 384.587 132.71H383.598C383.607 132.148 383.725 131.668 383.952 131.269C384.188 130.862 384.51 130.553 384.917 130.341C385.324 130.13 385.788 130.024 386.309 130.024C386.822 130.024 387.273 130.122 387.664 130.317C388.055 130.504 388.36 130.785 388.58 131.159C388.807 131.534 388.921 132.006 388.921 132.575C388.921 132.974 388.836 133.373 388.665 133.772C388.502 134.171 388.283 134.561 388.006 134.944C387.729 135.318 387.42 135.681 387.078 136.031C386.744 136.381 386.398 136.71 386.04 137.02C385.69 137.329 385.361 137.61 385.051 137.862H389.214V138.717H383.537ZM393.587 138.863C393.001 138.863 392.493 138.757 392.061 138.546C391.638 138.334 391.3 138.045 391.048 137.679C390.804 137.313 390.649 136.902 390.584 136.446H391.585C391.683 136.902 391.907 137.272 392.257 137.557C392.607 137.842 393.054 137.984 393.6 137.984C394.006 137.984 394.352 137.89 394.637 137.703C394.93 137.516 395.154 137.26 395.309 136.934C395.472 136.608 395.553 136.246 395.553 135.847C395.553 135.432 395.472 135.066 395.309 134.749C395.146 134.431 394.922 134.187 394.637 134.016C394.352 133.837 394.019 133.748 393.636 133.748C393.172 133.748 392.777 133.849 392.452 134.053C392.126 134.256 391.882 134.517 391.719 134.834H390.73L391.439 130.17H395.956V131.062H392.232L391.756 133.687C391.959 133.45 392.228 133.259 392.562 133.113C392.904 132.958 393.298 132.881 393.746 132.881C394.169 132.881 394.552 132.954 394.894 133.1C395.236 133.247 395.529 133.455 395.773 133.723C396.017 133.992 396.204 134.305 396.334 134.663C396.473 135.021 396.542 135.412 396.542 135.835C396.542 136.25 396.473 136.641 396.334 137.007C396.204 137.365 396.013 137.687 395.76 137.972C395.508 138.249 395.199 138.468 394.833 138.631C394.466 138.786 394.051 138.863 393.587 138.863Z" fill="#B0B0B0"/>
</g>
</g>
<defs>
<filter id="filter0_ddd_33_414" x="1.90735e-06" y="-2.5034e-05" width="443.601" height="191.324" filterUnits="userSpaceOnUse" color-interpolation-filters="sRGB">
<feFlood flood-opacity="0" result="BackgroundImageFix"/>
<feColorMatrix in="SourceAlpha" type="matrix" values="0 0 0 0 0 0 0 0 0 0 0 0 0 0 0 0 0 0 127 0" result="hardAlpha"/>
<feOffset dy="3.90674"/>
<feGaussianBlur stdDeviation="14.6503"/>
<feComposite in2="hardAlpha" operator="out"/>
<feColorMatrix type="matrix" values="0 0 0 0 0 0 0 0 0 0 0 0 0 0 0 0 0 0 0.04 0"/>
<feBlend mode="normal" in2="BackgroundImageFix" result="effect1_dropShadow_33_414"/>
<feColorMatrix in="SourceAlpha" type="matrix" values="0 0 0 0 0 0 0 0 0 0 0 0 0 0 0 0 0 0 127 0" result="hardAlpha"/>
<feMorphology radius="0.426322" operator="dilate" in="SourceAlpha" result="effect2_dropShadow_33_414"/>
<feOffset/>
<feComposite in2="hardAlpha" operator="out"/>
<feColorMatrix type="matrix" values="0 0 0 0 0.870588 0 0 0 0 0.870588 0 0 0 0 0.870588 0 0 0 1 0"/>
<feBlend mode="normal" in2="effect1_dropShadow_33_414" result="effect2_dropShadow_33_414"/>
<feColorMatrix in="SourceAlpha" type="matrix" values="0 0 0 0 0 0 0 0 0 0 0 0 0 0 0 0 0 0 127 0" result="hardAlpha"/>
<feOffset dy="3.41058"/>
<feGaussianBlur stdDeviation="5.11587"/>
<feComposite in2="hardAlpha" operator="out"/>
<feColorMatrix type="matrix" values="0 0 0 0 0 0 0 0 0 0 0 0 0 0 0 0 0 0 0.05 0"/>
<feBlend mode="normal" in2="effect2_dropShadow_33_414" result="effect3_dropShadow_33_414"/>
<feBlend mode="normal" in="SourceGraphic" in2="effect3_dropShadow_33_414" result="shape"/>
</filter>
<clipPath id="clip0_33_414">
<path d="M29.3006 41.0211C29.3006 32.3904 36.2972 25.3938 44.9279 25.3938H398.673C407.304 25.3938 414.301 32.3904 414.301 41.0211V142.49C414.301 151.12 407.304 158.117 398.673 158.117H44.9279C36.2972 158.117 29.3006 151.12 29.3006 142.49V41.0211Z" fill="white"/>
</clipPath>
<clipPath id="clip1_33_414">
<rect width="16.2785" height="16.2785" fill="white" transform="translate(45.579 126.577)"/>
</clipPath>
</defs>
</svg>
